<?xml version="1.0" encoding="UTF-8"?>
<svg id="Camada_1" data-name="Camada 1" xmlns="http://www.w3.org/2000/svg" viewBox="0 0 978.1 977.9">
  <defs>
    <style>
      .cls-1 {
        fill: #fffbfb;
      }

      .cls-1, .cls-2, .cls-3, .cls-4, .cls-5, .cls-6 {
        stroke-width: 0px;
      }

      .cls-2 {
        fill: #9b9b9b;
      }

      .cls-3, .cls-4 {
        fill: #fdfdfd;
      }

      .cls-4, .cls-5 {
        fill-rule: evenodd;
      }

      .cls-5 {
        fill: #fcfcfe;
      }

      .cls-6 {
        fill: #020001;
      }
    </style>
  </defs>
  <path class="cls-6" d="M55.3,112.9c-5.6,0-10.1,4.5-10.1,10v748.8c0,5.5,4.6,10,10.1,10h297.4c-2.3-4.8-4.2-9.4-5.8-13.6,5,4.4,10.4,9,16.2,13.6,18.8,15.1,42,30.9,69.8,45,1.4.7,2.9,1.4,4.3,2.1,18.3,8.9,35.7,15.8,51.7,21.1,16-5.3,33.4-12.1,51.7-21.1,1.4-.7,2.9-1.4,4.3-2.1,27.8-14.1,51-29.9,69.8-45,5.8-4.6,11.2-9.2,16.2-13.6-1.6,4.2-3.5,8.7-5.8,13.6h297.7c5.6,0,10.1-4.5,10.1-10V122.9c0-5.5-4.6-10-10.1-10h-90.5v-44.21h-30.68c5.5,42.76,11.01,85.52,16.48,128.31,5.9,74.5-10.9,112-21.5,127.7,6.3,2,14.1,3.7,23,4.1,9.3.4,17.6-.6,24.6-2.2.2,7.6-1,23.3-12.1,37.6-10.5,13.4-24.5,19-35.2,21.2,20.8,27.6,41.6,55.3,62.2,82.9-12.1-2.7-26.2-8-38.7-18.6-15-12.7-17.9-24.5-31.7-42.2-8.7-11.2-22.6-25.7-44.9-39.3,12.9,3,30.7,4.2,49.5-2.9,12.1-4.6,21.1-11.4,27.2-17.1-8,.7-18.6.3-30.1-3.9-12.1-4.4-20.4-11.3-25.4-16.3,12.7-12.7,37.5-47.9,32.2-126.1-3.9-29.7-7.8-59.4-11.6-89.1-1.9-15-3.9-30-5.8-45-1.3-9.9-2.6-19.9-3.9-29.8l-42.2,29.8-63.7,45c-40.5,28.7-81.1,57.3-121.7,86,0-3,.2-6.4,1-10.1.8-4.2,2.1-7.7,3.5-10.6-8.7-.4-19.8.1-32.1,2.9-5.7,1.3-10.8,2.9-15.5,4.7-6.4,2.5-11.8,5.1-16.3,7.6-4.4-2.5-9.9-5.2-16.3-7.6-4.7-1.8-9.9-3.4-15.5-4.7-12.3-2.8-23.3-3.3-32.1-2.9,1.3,2.9,2.6,6.5,3.5,10.6.8,3.7,1,7.1,1,10.1-40.5-28.7-81.1-57.3-121.7-86l-63.7-45-42.2-29.8c-1.3,9.9-2.6,19.9-3.9,29.8-1.9,15-3.9,30-5.8,45-3.9,29.7-7.8,59.4-11.6,89.1-5.4,78.2,19.4,113.4,32.2,126.1-4.9,5-13.3,11.9-25.4,16.3-11.5,4.2-22.1,4.6-30.1,3.9,6.1,5.8,15.1,12.5,27.2,17.1,18.8,7.1,36.6,5.8,49.5,2.9-22.3,13.6-36.2,28.2-44.9,39.3-13.8,17.7-16.7,29.5-31.7,42.2-12.5,10.6-26.6,15.9-38.7,18.6,20.8-27.6,41.6-55.3,62.4-82.9-10.7-2.3-24.8-7.8-35.2-21.2-11.1-14.3-12.3-29.9-12.1-37.6,7.1,1.6,15.4,2.6,24.6,2.2,8.9-.4,16.7-2.1,23-4.1-10.6-15.7-27.4-53.2-21.5-127.7,5.47-42.79,10.98-85.54,16.48-128.31h-30.58v44.21H55.3ZM199.6,809.2c-10.4,3.8-18.6,12-22.4,22.3l-.5,1.2-.5-1.2c-3.8-10.3-12.1-18.5-22.4-22.3l-1.2-.5,1.2-.5c10.4-3.8,18.6-12,22.4-22.3l.5-1.2.5,1.2c3.8,10.3,12.1,18.5,22.4,22.3l1.2.5-1.2.5ZM186.6,742.4c-2.2,6.4-3.9,13.2-5,20.3-4.8-3.2-9.2-7-13.5-11.4-18.3-19.3-30.2-49.5-30.2-83.5,0-20,4.1-38.7,11.2-54.6,6-13.5,14.3-25.1,24-33.7-5.9,11.2-10.6,24.2-13.4,38.2-2.1,10.5-3.3,21.7-3.3,33.3,0,29.6,7.5,56.7,19.8,77.1,7.2-14.9,17.6-27.2,29.9-35.4.8,4.7,1.1,9.6,1.1,14.6-8.7,9.5-15.9,21.5-20.6,35.1ZM457.1,888.9c-1.4-.3-2.8-.6-4.1-.9-2.7-.6-5.3-1.3-7.9-1.9-2.3-.6-4.6-1.3-6.9-1.9-6.6-2-13.2-4.2-19.6-6.6-4.9-1.9-9.7-3.9-14.6-6.1-18.5-8.4-35.7-18.8-51.2-31-7.5-5.9-14.6-12.2-21.3-18.9s-12.9-13.7-18.7-21c-.1-.1-.2-.2-.3-.4-22.1-28.4-37.2-61.6-42.8-97.6-2.1,9.4-3.2,19.1-3.2,29.1,0,14.2,2.2,27.8,6.3,40.8,8.5,26.7,25.3,50.3,47.7,68.3,2.9,8.8,6.6,17.2,11,25.3-29.9-13.9-55.4-34.8-73.6-60.2-9.3-13.1-16.9-27.5-22-42.8-5.4-16.1-8.4-33.2-8.4-50.9,0-41.3,16.1-79.3,42.8-109-14.8,24.5-23.2,52.6-23.2,82.6,5.4-13.2,12.7-25.6,21.3-37,5.4-7.2,11.5-14,18-20.3-.2,1.3-.4,2.6-.6,3.9,0,.02,0,.04,0,.06.02-.02.04-.04.06-.06-1.1,7.4-1.7,15-1.7,22.8,0,3.1.1,6.3.3,9.4,0,.78.1,1.47.19,2.26.19-.19.37-.37.56-.56,7.6-6.6,16-12.4,25.1-17.2-8,15.5-12.5,32.8-12.5,51,0,8.9,1.1,17.6,3.1,26,1.8,7.3,4.2,14.3,7.4,21.1.3-2,.7-3.9,1.2-5.9,5.7-25.4,20.2-47.9,40.6-64.7-.2,1.7-.5,3.4-.6,5.1-.01.09-.02.19-.03.28.03-.09.05-.19.08-.28-.3,2.5-.5,5-.7,7.6-.3,4.7-.5,9.4-.5,14.2,0,35.1,8.9,68.3,24.8,97.8,1.8,3.3,3.6,6.5,5.5,9.7,10.3,16.9,22.8,32.5,37.4,46.4,3,2.9,6,5.7,9.2,8.4,4.6,4,9.4,7.8,14.5,11.5,2.6,1.9,5.3,3.8,8,5.6,1.3.9,2.7,1.8,4,2.7,1.9,1.1,3.6,2.2,5.4,3.3-.03,0-.05-.01-.08-.02,0,0,.02.01.03.02ZM488.9,898.3c-5.1-5.7-9.7-11.7-14-18.1-13.6-20.4-22.7-44.1-25.9-69.6-.8-6.5-1.2-13.1-1.3-19.8.05.04.1.09.15.13,0,0,0-.02,0-.03,15.1,12.3,27.9,27.4,37.6,44.4-.1-.09-.22-.19-.32-.29.06.1.11.19.17.29,1.2,2.2,2.4,4.3,3.6,6.6,1.1-2.2,2.4-4.4,3.6-6.6,9.9-17,22.6-32.1,37.6-44.5,0,.01,0,.03,0,.04.02-.01.03-.03.05-.04,0,6.7-.4,13.3-1.3,19.8-.02,0-.04.02-.05.03-3.2,25.49-12.3,49.18-25.9,69.57-4.2,6.4-8.9,12.4-14,18.1ZM454.7,673.2c3.5-10.5,17.4-18.5,34.3-18.8,16.9.3,30.7,8.3,34.3,18.8.2.6.4,1.2.5,1.9-2.5-3.2-17-5.8-34.8-5.9h-1.2c-14.8,0-27.4,1.7-33.1,4ZM477,696.5h-1.1c-6.3,0-11.4-3.8-12.9-8.9,6.1.7,11.4,4.2,14,8.9ZM515,687.6c-1.5,5.1-6.6,8.9-12.9,8.9h-1.1c2.6-4.7,7.9-8.2,14-8.9ZM489,741.1c8.8,4.7,19.1,7.5,30.1,7.7h.8c-8.9,4.7-19.4,7.4-30.5,7.4h-.4c-11-.1-21.3-2.7-30.1-7.4,11-.1,21.3-2.9,30.1-7.7ZM742.1,763c-5.1,15.3-12.7,29.7-22,42.8-18.2,25.4-43.6,46.3-73.6,60.2,4.3-8.1,8-16.5,11-25.3,22.4-18,39.2-41.6,47.7-68.3,4.1-13,6.3-26.6,6.3-40.8,0-10-1.1-19.7-3.2-29.1-5.6,36-20.7,69.2-42.8,97.6-.1.2-.2.3-.3.4-5.8,7.3-12,14.4-18.7,21-6.7,6.7-13.8,13-21.3,18.9-15.5,12.2-32.7,22.6-51.2,31-4.8,2.2-9.6,4.2-14.6,6.1-6.4,2.4-13,4.6-19.6,6.6-2.3.6-4.6,1.3-6.9,1.9-2.5.67-5.01,1.25-7.6,1.83-.05.02-.1.05-.15.07-1.4.3-2.8.6-4.2,1,.03-.02.07-.04.1-.06-.08.02-.17.04-.25.06,1.8-1.1,3.5-2.2,5.2-3.4,1.3-.9,2.7-1.8,4-2.7,2.7-1.8,5.4-3.7,8-5.6,5-3.7,9.8-7.5,14.5-11.5,3.2-2.7,6.2-5.5,9.2-8.4,14.6-13.9,27.1-29.5,37.4-46.4,1.9-3.2,3.7-6.4,5.5-9.7,15.9-29.5,24.8-62.7,24.8-97.8,0-4.8-.2-9.5-.5-14.2-.2-2.6-.4-5.1-.7-7.6-.2-1.7-.4-3.4-.6-5.1,20.4,16.8,34.9,39.3,40.6,64.7.5,2,.9,3.9,1.2,5.9,3.2-6.8,5.6-13.8,7.4-21.1,2-8.4,3.1-17.1,3.1-26,0-18.2-4.4-35.5-12.5-51,9.1,4.9,17.5,10.7,25.1,17.2l.6.6s.01-.09.02-.13c-.09-.09-.18-.18-.27-.27.09.09.18.18.27.27.09-.74.18-1.41.18-2.17.2-3.1.3-6.3.3-9.4,0-7.7-.6-15.3-1.7-22.8-.2-1.3-.4-2.6-.6-3.9,6.5,6.3,12.6,13.1,18,20.3,8.6,11.4,15.9,23.8,21.3,37,0-30-8.4-58.1-23.2-82.6,27.1,29.8,43.1,67.8,43.1,109,0,17.7-3,34.8-8.4,50.9ZM824.2,809.2c-10.3,3.8-18.6,12-22.4,22.3l-.5,1.2-.5-1.2c-3.8-10.3-12-18.5-22.4-22.3l-1.2-.5,1.2-.5c10.3-3.8,18.6-12,22.4-22.3l.5-1.2.5,1.2c3.8,10.3,12,18.5,22.4,22.3l1.2.5-1.2.5ZM809.9,751.3c-4.3,4.4-8.7,8.2-13.5,11.4-1.1-7.1-2.8-13.9-5-20.3-4.7-13.6-11.9-25.6-20.6-35.1,0-5,.3-9.9,1.1-14.6,12.3,8.2,22.7,20.5,29.9,35.4,12.3-20.4,19.8-47.5,19.8-77.1,0-11.6-1.2-22.8-3.3-33.3-2.8-14-7.5-27-13.4-38.2,9.7,8.6,18,20.2,24,33.7,7.1,15.9,11.2,34.6,11.2,54.6,0,34-11.9,64.2-30.2,83.5ZM770.5,254.3c0,2.9-.2,5.7-.5,8.5,0,.05-.02.11-.02.16.02-.05.05-.11.07-.16-3.6,30-26.4,54.2-55.9,60.1,0,0,0,0,.01-.01-.02,0-.04,0-.06.01,3.7-3.9,7.2-8.1,10.5-12.4,20.4-26.5,32.9-59.3,34.1-94.9,7.5,11,11.8,24.4,11.8,38.7ZM622.2,246.7c.7-3.7,1.8-7.5,3.1-11.3,10.4-30.2,33.9-44.9,57.2-64.7,18.4-15.6,43.4-40,68.7-76.9,3.2,12,5.6,28.6,2.8,47.6-1,6.8-7.9,49.1-44.5,76-4.3,3.2-8.5,5.7-12.2,7.7.5,1,1.2,2,2,3.1.2.2.3.4.5.5,0,0,0,.1.1.1.1.13.22.24.34.36.4.37.8.71,1.21,1.03,4.89-.5,10.07-1.3,15.56-2.49,5.6-1.2,10.7-2.7,15.5-4.3-1.1,1.8-2.4,4-4.1,6.4-5.5,7.8-14.4,17.9-28,25.8-12.5,7.2-24.4,10-33,11.1.04-.04.08-.07.12-.11-.02,0-.05,0-.07,0,3.5-3.2,7.2-6.8,10.9-10.9,3.87-4.26,7.24-8.43,10.13-12.3-3.79-.3-7.99-.3-12.58.6-2.7.5-5.1,1.2-7.3,2,.9-3,2-6.2,3.3-9.5.5-1.3,1.1-2.6,1.6-4,1.7-4,3.6-7.8,5.4-11.2.02-.04.04-.08.06-.11,0,0,0,0-.01.01,1.28-2.36,2.56-4.52,3.83-6.59-14.5,8.4-31.39,20.8-46.98,38.59-6,6.9-11,13.7-15.3,20.2-.5-7.4-.4-16.7,1.7-26.7ZM226.6,93.4c25.3,36.9,50.4,61.3,68.7,76.9,23.3,19.8,46.8,34.5,57.2,64.7,1.3,3.8,2.4,7.6,3.1,11.3.01.06.02.12.04.18,0,0,0,.01.01.02,2.2,10,2.3,19.3,1.8,26.7-.02-.02-.03-.05-.05-.07,0,.02,0,.05,0,.07-4.2-6.5-9.3-13.3-15.3-20.2-15.57-17.77-32.44-30.15-46.92-38.55,1.29,2.09,2.58,4.27,3.87,6.65-.04-.04-.08-.09-.12-.13.02.04.05.09.07.13,1.8,3.4,3.7,7.1,5.4,11.2.6,1.4,1.1,2.7,1.6,4,0,0,0,.01,0,.02.08.03.16.06.24.08,1.3,3.3,2.4,6.5,3.3,9.5-2.2-.8-4.6-1.5-7.3-2-4.6-.9-8.8-.9-12.6-.6,2.9,3.9,6.3,8.1,10.2,12.4,3.6,4,7.3,7.6,10.8,10.9-8.6-1.1-20.5-3.9-33-11.1-1.72-1-3.37-2.04-4.94-3.09-10.94-7.33-18.38-15.87-23.21-22.81-1.7-2.4-3-4.5-4.1-6.4,4.8,1.6,10,3.1,15.5,4.3,5.5,1.2,10.8,2,15.6,2.5h.2c.4-.4.9-.9,1.3-1.4l.1-.1c.2-.2.3-.4.5-.5.8-1,1.5-2.1,2-3.1-3.7-2-7.9-4.6-12.2-7.7-36.6-26.9-43.5-69.2-44.6-76.2-2.8-19-.4-35.6,2.8-47.6ZM207.9,262.8c-.3-2.8-.5-5.6-.5-8.5,0-14.3,4.3-27.7,11.8-38.7,1.2,35.6,13.7,68.4,34.1,94.9.71.93,1.44,1.85,2.17,2.77,2.7,3.33,5.48,6.57,8.38,9.63-.02,0-.04,0-.06-.01,0,0,0,0,.01.01-29.4-5.9-52.2-30.1-55.9-60.1ZM119.9,514.5c6.1-18.8,17.7-30.9,25.2-37.2,0,0-3.5,9.3-4.3,15.5-.8,6.1-.6,11.4,0,15.7,8.1-11.4,19.3-24.5,34.2-37,30.8-25.8,63-37,84-42.1-7-1.9-16-3.3-26.5-2.8-19.7,1-34.8,8.8-44,15,12.2-13.4,32.8-31.6,63.1-43.2,23.5-9,44.8-10.9,59.9-10.9-9.9-2.8-22.5-5.2-37.1-4.9-9.8.2-18.4,1.8-25.7,3.2,0,0,18.9-12.1,32.8-16.6,14-4.5,26.7-5.7,36.3-5.7-7.6-4.6-15.9-9.3-24.9-13.8-9.7-4.9-19.1-9.1-27.9-12.6,10.1-1.7,21-3.2,32.7-4.1,20.5-1.6,39.2-1.2,55.6.2-.6-.4-23.7-15.5-37.2-23.1-16.6-9.3-32.4-16.9-47.1-23.2,0,0,49.2,1.3,80.2,15.2,15.1,6.8,27.3,14.8,36.8,22.3-3.4-19-6.7-38.1-10.1-57.2,0,0,17.4,12.6,28.2,20.5h.1s.06.04.1.07c-.12-.12-.23-.25-.35-.37,1,.6,1.8,1.3,2.7,1.9-3-8.5-6-17.7-8.5-27.8-2.5-9.5-4.3-18.7-5.7-27.3.15.51.3,1,.45,1.5-.07-.4-.14-.81-.2-1.2-1-6-1.7-11.7-2.3-17.2,5.5,6.4,13.3,13.9,23.6,20.6,9.9,6.4,16,8,24.8,12.7,9.5,5,22,13.4,35,28.5-.4-4.1-1.1-9-2.6-14.2-3.8-13.7-9.6-19.3-14.5-30.8-2.7-6.4-5.6-15.7-6.2-28.3,5.9,3.9,12.7,9.2,19.4,16.4,9.6,10.4,15.5,21.1,19.3,29.8,3.7-8.7,9.7-19.4,19.3-29.8,6.6-7.2,13.4-12.5,19.4-16.4-.6,12.6-3.5,21.9-6.2,28.3-4.9,11.6-10.7,17.2-14.5,30.8-1.5,5.2-2.2,10-2.6,14.2,13-15.1,25.6-23.5,35-28.5,8.9-4.7,14.9-6.3,24.8-12.7,10.3-6.7,18-14.2,23.6-20.6-.6,5.4-1.3,11.2-2.3,17.2-1.4,8.6-3.3,17.8-5.7,27.3-2.47,9.97-5.43,19.07-8.39,27.48.76-.57,1.6-1.22,2.54-1.78-.22.23-.44.47-.66.7.23-.16.46-.33.71-.5,10.8-7.9,28.2-20.5,28.2-20.5-3.4,19-6.7,38.1-10.1,57.2,9.5-7.5,21.7-15.6,36.8-22.3,31-13.9,80.2-15.2,80.2-15.2-14.7,6.3-30.5,13.9-47.1,23.2-13.5,7.5-36.6,22.7-37.2,23.1,16.4-1.4,35.1-1.8,55.6-.2,11.7.9,22.6,2.3,32.7,4.1-8.8,3.5-18.2,7.7-27.9,12.6-9,4.6-17.3,9.2-24.9,13.8,9.7,0,22.3,1.2,36.3,5.7,13.9,4.5,32.8,16.6,32.8,16.6-7.3-1.5-15.9-3-25.7-3.2-14.6-.3-27.2,2-37.1,4.9,15.1-.1,36.4,1.9,59.9,10.9,30.3,11.6,50.9,29.8,63.1,43.2-9.2-6.2-24.3-14-44-15-10.5-.6-19.6.9-26.5,2.8,21,5.1,53.2,16.3,84,42.1,14.9,12.5,26,25.6,34.2,37,.6-4.4.8-9.7,0-15.7-.8-6.2-4.3-15.5-4.3-15.5,7.4,6.4,19,18.5,25.2,37.2,7.9,24,2.3,45.2-1.6,56-4.8-13-14-31.9-31.3-49.6-21.2-21.7-45.1-32.2-62.2-37.3,9.3,6.3,20.5,15.8,30.4,29.7,12.1,17,17.3,33.8,19.7,45-5.5-6.4-12.6-13.6-21.8-20.5-5.7-4.2-11.2-7.7-16.4-10.5-.17-.1-.34-.18-.51-.28.09.06.18.12.26.18-3.4-1.85-6.7-3.5-9.82-4.87,3.89,3.5,8.38,9.09,10.57,16.97,1.7,6.3,1.4,11.9.6,16,.3.5.7,1,1,1.5,6.3,9.7,12.4,21.6,17,35.8,11.3,35.1,7.1,66.3,2.6,84.9-.1.3-.2.7-.3,1-.02-.05-.05-.1-.08-.15-.02.08-.05.17-.08.25-7.2-14.7-19.9-35.7-41.4-55.8-20.7-19.3-41.7-30.4-56.6-36.7.09-.02.17-.04.25-.05-.03-.01-.07-.03-.1-.05.5-.1.9-.2,1.4-.3,11.4-2.7,25.7-4.8,42.1-4.3,13.2.4,24.7,2.4,34,4.8-6.8-11.3-24.5-35.2-57.3-46.1-26.7-8.8-50.2-4.7-63.1-1,9.6.5,21.9,2.3,35.4,7.5,5.7,2.2,10.7,4.7,15.2,7.2,4,2.2,7.5,4.5,10.5,6.7-.16-.02-.32-.04-.47-.06.07.05.15.1.22.16-17.8-2.17-44.48-.78-73.1,12.18-1.68.77-3.36,1.57-5.05,2.42-33.2,16.7-50.8,51.8-50.8,51.8,0,0-.03-.08-.08-.23-.11.21-.17.33-.17.33,0,0-22.5-65.2-25.3-92,.08-.02.17-.03.26-.05,0-.02,0-.03,0-.05,3.1-.6,6.5-1.3,10.1-2.3,16.23-4.39,28.63-11,36.47-15.91,2.57-1.63,4.64-3.08,6.18-4.19,7.5-5.3,15.1-10.8,22.4-20.6,7-9.3,5.9-12.2,14.8-24.4,4.8-6.7,10-13.7,18.9-20.4,1.7-1.3,8.7-6.4,19.1-10.6.05-.02.09-.03.14-.05.04-.02.07-.03.11-.05,3.9-1.6,7.6-2.8,10.9-3.6.6-.1,1.2-.3,1.7-.4-11.4-2.4-26.6-4.3-44.5-2.8-5.9.5-25.5,2.5-48.6,12.5-8.6,3.7-15.7,7.7-21.2,11.1,4.6-5.9,10.8-12.6,18.8-19,3.9-3.2,13.8-10.8,28.4-17.2,7.6-3.4,14.7-5.6,20.6-7.1-2.8-.3-5.9-.4-9.4-.4-6.9.1-27.6.5-48.4,13.2-1.1.6-2.7,1.6-4.7,3-.28.19-.56.39-.85.59.23-.1.47-.2.7-.29-5,3.5-12.3,9.3-19,17.9-10.1,13.1-10.4,21.7-21.5,28.9-3.3,2.2-11.3,7.3-19.9,5.2-12.3-3-17.2-18.5-18.6-22.8-4.2-13.4-1-25.4,2-36.6.5-1.7,1-3.4,1.5-5-.03.14-.05.3-.08.44.08-.24.15-.5.23-.74,1.5-4.8,3.2-9.1,4.9-12.6-9.5,11.6-25,34.9-21.2,60.1.3,1.7.6,3.8,1.1,6.2,1.6,7.7,5.1,18,14.5,25.1,2.9,2.1,5.7,3.6,8.3,4.6l4.7,89.4.5-1.3c2.7-5.4,6.3-11.5,11.3-17.7,2.1-2.6,4.2-4.9,6.3-7,1,4.5,2.1,9.6,3.5,15.3.9,3.7,2.9,11.9,5.4,20.8,1,3.3,5.3,18.4,14.1,40.7,9.6,24.5,10.7,22.5,12,30.2.66,3.77,1.94,11.37.74,20.53-.08.68-.18,1.37-.29,2.07,0,0-.01-.01-.02-.02-.93,5.8-2.92,12.06-6.73,18.32-1.7,2.8-13.3,21.2-36.6,25-2.3.4-22.1,3.3-38.7-9.1-2.4-1.8-4.3-3.7-5.8-5.2,4.4-1.5,9.8-3.7,15.5-7.2,4-2.4,8.6-5.2,13.3-10.3,3.1-3.3,10.6-11.4,11.9-24.1.3-3.2,1.5-14.2-5.5-23.8-7.1-9.8-18.2-12.1-26-13.7-3.6-.8-7.3-1.3-10.7-1.5l-.1.2c-1.5-.2-3.5-.4-5.8-.4s-4.3.2-5.8.4l-.1-.2c-3.3.3-7,.7-10.7,1.5-7.8,1.6-18.9,3.9-26,13.7-7,9.6-5.8,20.6-5.5,23.8,1.3,12.6,8.8,20.7,11.9,24.1,4.6,5.1,9.3,7.9,13.3,10.3,5.7,3.5,11.1,5.7,15.5,7.2-1.4,1.6-3.4,3.4-5.8,5.2-16.6,12.4-36.4,9.5-38.7,9.1-23.3-3.7-34.9-22.2-36.6-25-3.8-6.4-5.9-12.8-6.8-18.7,0-.04-.01-.08-.02-.12-.11.14-.22.29-.33.42-1.6-9.9-.2-18.2.5-22.2,1.3-7.7,2.4-5.7,12-30.2,8.8-22.3,13.1-37.4,14.1-40.7,2.5-8.9,4.5-17.1,5.4-20.8,1.4-5.7,2.5-10.8,3.5-15.3.08.08.15.16.23.24.04-.17.08-.36.12-.54,2.1,2.1,4.2,4.4,6.3,7,5,6.2,8.7,12.3,11.3,17.7l.21.54,4.64-88.34c.11-.04.23-.1.34-.15v-.15c2.61-1,5.51-2.5,8.31-4.6.52-.39,1.01-.8,1.5-1.21,8.02-7,11.16-16.42,12.65-23.59.03.32.04.67.06,1,.1-.44.2-.87.29-1.3.5-2.4.8-4.5,1.1-6.2,3.8-25.3-11.7-48.5-21.2-60.1,1.7,3.6,3.4,7.8,5,12.6.5,1.6,1,3.3,1.5,5,3,11.2,6.2,23.2,2,36.6-.45,1.38-1.27,3.93-2.57,6.85-2.69,6.22-7.68,14.34-16.28,16.35-8.6,2.1-16.6-3.1-19.9-5.2-11.2-7.2-11.4-15.9-21.5-28.9-6.7-8.6-13.9-14.4-19-17.9.63.26,1.3.54,1.95.82-.59-.43-1.16-.84-1.7-1.22-1.9-1.4-3.6-2.4-4.7-3.1-20.8-12.7-41.5-13.1-48.4-13.2-3.5,0-6.6.2-9.4.4,5.9,1.5,13,3.7,20.6,7.1,14.6,6.5,24.5,14.1,28.4,17.2,7.9,6.5,14.1,13.1,18.8,19-5.5-3.5-12.6-7.4-21.2-11.1-23.2-10-42.7-12-48.6-12.5-17.8-1.5-33.1.4-44.5,2.8.6.1,1.1.3,1.7.4,3.3.9,7,2,10.9,3.6,10.4,4.2,17.4,9.3,19.1,10.6,8.9,6.7,14.1,13.7,18.9,20.4,8.9,12.2,7.8,15.1,14.8,24.4,7.3,9.8,14.9,15.3,22.4,20.6,6.2,4.5,21.1,14.4,42.9,20.2,3.6,1,7,1.7,10.1,2.3-.18,1.74-.45,3.65-.79,5.69-4.76,29.23-24.56,86.61-24.56,86.61,0,0-17.6-35.1-50.8-51.8-30.6-15.4-59.5-17.1-78.4-14.7.16-.12.33-.23.49-.35-.15.02-.3.03-.44.05,3.1-2.2,6.6-4.5,10.5-6.7,4.5-2.5,9.5-5,15.2-7.2,13.5-5.2,25.9-7,35.4-7.5-13-3.7-36.5-7.8-63.1,1-32.8,10.9-50.4,34.8-57.3,46.1,9.3-2.4,20.8-4.4,34-4.8,16.4-.5,30.7,1.6,42.1,4.3.5.1.9.2,1.4.3-14.9,6.3-35.9,17.4-56.6,36.7-21.5,20.1-34.2,41.1-41.4,55.8-.04-.11-.07-.24-.11-.38-.08.16-.16.32-.24.47-.1-.3-.2-.7-.3-1,.06-.25.13-.52.19-.77-4.53-18.67-8.4-49.54,2.76-84.23,4.58-14.15,10.66-26.02,16.94-35.7-.03.03-.06.07-.09.1.3-.5.7-1,1-1.5-.8-4.1-1.1-9.7.6-16,1.38-4.97,3.68-9.03,6.16-12.23,1.42-1.86,2.91-3.42,4.32-4.72-3.17,1.39-6.53,2.97-9.99,4.95.24-.17.5-.34.75-.51-.2.11-.4.21-.6.31-5.2,2.8-10.7,6.3-16.3,10.5-9.2,6.9-16.3,14.1-21.8,20.5,2.4-11.3,7.6-28,19.7-45,9.9-13.9,21.1-23.4,30.4-29.7-17.2,5.2-41.1,15.6-62.2,37.3-17.3,17.7-26.4,36.5-31.3,49.6-4.2-10.8-9.8-31.9-1.9-55.9ZM566.4,493.8c7.5-7.5,18.8-16.9,34.3-24.4,11.2-5.5,21.6-8.5,30-10.2-.8,5.9-3.3,16.3-11.6,25.8-3.1,3.5-13,14.6-29.2,15.5-9.8.5-17.8-3-23.5-6.7ZM411.6,493.8c-5.7,3.7-13.7,7.2-23.5,6.7-16.2-.9-26.1-12-29.2-15.5-8.3-9.5-10.8-19.9-11.6-25.8,8.4,1.7,18.8,4.7,30,10.2,15.5,7.5,26.8,16.9,34.3,24.4Z"/>
  <path class="cls-6" d="M587.2,373.8c18.9-12.7,36.9-21,52-26.6-15.4-.9-41.7.9-66.1,18.9-24.2,17.8-33.3,41.6-36.5,52.8,11.8-13.9,28.4-30.2,50.6-45.1Z"/>
  <path class="cls-6" d="M441.4,418.9c-3.2-11.2-12.3-35-36.5-52.8-24.4-18-50.7-19.8-66.1-18.9,15,5.6,33.1,13.9,52,26.6,22.3,14.9,38.8,31.2,50.6,45.1Z"/>
  <path class="cls-6" d="M453.4,159.6c14.4,2.3,26.4,6.4,35.6,10.4,9.1-4,21.1-8.1,35.6-10.4,15.6-2.5,29.5-2.1,40.6-.8l65.7-45.8h-283.8l65.7,45.8c11.1-1.3,25-1.7,40.6.8Z"/>
  <path class="cls-5" d="M489,756.2h.4c11.1,0,21.6-2.7,30.5-7.4h-.8c-11-.2-21.3-3-30.1-7.7-8.8,4.8-19.1,7.6-30.1,7.7,8.8,4.7,19.1,7.3,30.1,7.4Z"/>
  <path class="cls-1" d="M489,669.2c17.8.1,32.3,2.7,34.8,5.9-.1-.7-.3-1.3-.5-1.9-3.6-10.5-17.4-18.5-34.3-18.8-16.9.3-30.8,8.3-34.3,18.8,5.7-2.3,18.3-4,33.1-4h1.2Z"/>
  <path class="cls-1" d="M475.9,696.5h1.1c-2.6-4.7-7.9-8.2-14-8.9,1.5,5.1,6.6,8.9,12.9,8.9Z"/>
  <path class="cls-1" d="M502.1,696.5c6.3,0,11.4-3.8,12.9-8.9-6.1.7-11.4,4.2-14,8.9h1.1Z"/>
  <path class="cls-3" d="M346.85,765.8c-7.86-34.04-3.04-63.92,2.62-83.82.01-.09.02-.19.03-.28.1-1.7.4-3.4.6-5.1-20.4,16.8-34.9,39.3-40.6,64.7-.5,2-.9,3.9-1.2,5.9-3.2-6.8-5.6-13.8-7.4-21.1-2-8.4-3.1-17.1-3.1-26,0-18.2,4.5-35.5,12.5-51-9.1,4.8-17.5,10.6-25.1,17.2-.19.19-.37.37-.56.56,0,.02,0,.03,0,.04.2-.2.4-.4.6-.6-3.5,3.5-7.2,7.4-10.8,11.7-4.1,4.9-7.6,9.7-10.7,14.4-.5-7.8.1-16.9,2.9-26.7,4.39-15.36,12.45-26.34,19.14-33.24,0-.02,0-.04,0-.06.2-1.3.4-2.6.6-3.9-6.5,6.3-12.6,13.1-18,20.3-8.6,11.4-15.9,23.8-21.3,37,0-30,8.4-58.1,23.2-82.6-26.7,29.7-42.8,67.7-42.8,109,0,17.7,3,34.8,8.4,50.9,5.1,15.3,12.7,29.7,22,42.8,18.2,25.4,43.7,46.3,73.6,60.2-4.4-8.1-8.1-16.5-11-25.3-22.4-18-39.2-41.6-47.7-68.3-4.1-13-6.3-26.6-6.3-40.8,0-10,1.1-19.7,3.2-29.1,5.6,36,20.7,69.2,42.8,97.6.1.2.2.3.3.4,5.8,7.3,12,14.3,18.7,21s13.8,13,21.3,18.9c15.5,12.2,32.7,22.6,51.2,31,4.9,2.2,9.7,4.2,14.6,6.1,6.4,2.4,13,4.6,19.6,6.6,2.3.6,4.6,1.3,6.9,1.9,2.6.6,5.2,1.3,7.9,1.9,1.3.3,2.7.6,4.1.9,0,0-.02-.01-.03-.02-1.37-.29-2.75-.59-4.02-.88-18.3-8.2-88.2-44.2-106.2-122.2Z"/>
  <path class="cls-3" d="M176.2,728.1c-12.3-20.4-19.8-47.5-19.8-77.1,0-11.6,1.2-22.8,3.3-33.3,2.8-14,7.5-27,13.4-38.2-9.7,8.6-18,20.2-24,33.7-7.1,15.9-11.2,34.6-11.2,54.6,0,34,11.9,64.2,30.2,83.5,4.3,4.4,8.7,8.2,13.5,11.4,1.1-7.1,2.8-13.9,5-20.3,4.7-13.6,11.9-25.6,20.6-35.1,0-5-.3-9.9-1.1-14.6-12.3,8.2-22.7,20.5-29.9,35.4Z"/>
  <path class="cls-3" d="M505.35,824.7c-4.8,3.5-9,7.1-12.7,10.5,9.79-16.88,22.47-31.97,37.45-44.36,0-.01,0-.03,0-.04-15,12.4-27.7,27.5-37.6,44.5-1.2,2.2-2.5,4.4-3.6,6.6-1.2-2.3-2.4-4.4-3.6-6.6-.06-.1-.11-.19-.17-.29-3.63-3.32-7.81-6.81-12.48-10.21-8.3-6.1-16.4-10.7-23.5-14.1-.8-6.49-1.2-13.08-1.3-19.77-.05-.04-.1-.09-.15-.13.1,6.7.5,13.3,1.3,19.8,3.2,25.5,12.3,49.2,25.9,69.6,4.3,6.4,8.9,12.4,14,18.1,5.1-5.7,9.8-11.7,14-18.1,13.6-20.39,22.69-44.08,25.9-69.57-7.09,3.4-15.17,7.99-23.45,14.07Z"/>
  <path class="cls-3" d="M730.6,685.7c-5.4-13.2-12.7-25.6-21.3-37-5.4-7.2-11.5-14-18-20.3.2,1.3.4,2.6.6,3.9,1.1,7.5,1.7,15.1,1.7,22.8,0,3.1-.1,6.3-.3,9.4,0,.75-.09,1.42-.18,2.17.11.11.22.22.33.33.1-.8.2-1.5.2-2.3.2-3.1.3-6.3.3-9.4,0-7.7-.6-15.3-1.7-22.8,6.6,7,14.8,18,19.2,33.3,2.8,9.7,3.4,18.8,2.9,26.7-3.1-4.7-6.7-9.5-10.7-14.4-3.4-4.06-6.8-7.75-10.2-11.1-.11-.11-.22-.23-.33-.33,0,.05-.01.09-.02.13l-.6-.6c-7.6-6.5-16-12.3-25.1-17.2,8.1,15.5,12.5,32.8,12.5,51,0,8.9-1.1,17.6-3.1,26-1.8,7.3-4.2,14.3-7.4,21.1-.3-2-.7-3.9-1.2-5.9-5.7-25.4-20.2-47.9-40.6-64.7.2,1.7.4,3.4.6,5.1.3,2.5.5,5,.7,7.6.3,4.7.5,9.4.5,14.2,0,35.1-8.9,68.3-24.8,97.8-1.8,3.3-3.6,6.5-5.5,9.7-10.3,16.9-22.8,32.5-37.4,46.4-3,2.9-6,5.7-9.2,8.4-4.7,4-9.5,7.8-14.5,11.5-2.6,1.9-5.3,3.8-8,5.6-1.3.9-2.7,1.8-4,2.7-1.7,1.2-3.4,2.3-5.2,3.4.08-.02.17-.04.25-.06,1.76-1.08,3.43-2.16,5.1-3.34,1.3-.9,2.7-1.8,4-2.7,2.7-1.8,5.4-3.7,8-5.6,5-3.7,9.8-7.5,14.5-11.5,3.2-2.7,6.2-5.5,9.2-8.4,14.6-13.9,27.1-29.5,37.4-46.4,1.9-3.2,3.7-6.4,5.5-9.7,15.9-29.5,24.8-62.7,24.8-97.8,0-4.8-.2-9.5-.5-14.2-.2-2.6-.4-5.1-.7-7.6,5.9,20,10.8,49.9,2.9,84.1-17.95,77.89-87.52,113.81-105.95,122.13,2.59-.58,5.1-1.16,7.6-1.83,2.3-.6,4.6-1.3,6.9-1.9,6.6-2,13.2-4.2,19.6-6.6,5-1.9,9.8-3.9,14.6-6.1,18.5-8.4,35.7-18.8,51.2-31,7.5-5.9,14.6-12.2,21.3-18.9,6.7-6.6,12.9-13.7,18.7-21,.1-.1.2-.2.3-.4,22.1-28.4,37.2-61.6,42.8-97.6,2.1,9.4,3.2,19.1,3.2,29.1,0,14.2-2.2,27.8-6.3,40.8-8.5,26.7-25.3,50.3-47.7,68.3-3,8.8-6.7,17.2-11,25.3,30-13.9,55.4-34.8,73.6-60.2,9.3-13.1,16.9-27.5,22-42.8,5.4-16.1,8.4-33.2,8.4-50.9,0-41.2-16-79.2-43.1-109,14.8,24.5,23.2,52.6,23.2,82.6Z"/>
  <path class="cls-3" d="M804.9,579.5c5.9,11.2,10.6,24.2,13.4,38.2,2.1,10.5,3.3,21.7,3.3,33.3,0,29.6-7.5,56.7-19.8,77.1-7.2-14.9-17.6-27.2-29.9-35.4-.8,4.7-1.1,9.6-1.1,14.6,8.7,9.5,15.9,21.5,20.6,35.1,2.2,6.4,3.9,13.2,5,20.3,4.8-3.2,9.2-7,13.5-11.4,18.3-19.3,30.2-49.5,30.2-83.5,0-20-4.1-38.7-11.2-54.6-6-13.5-14.3-25.1-24-33.7Z"/>
  <path class="cls-3" d="M177.2,785.9l-.5-1.2-.5,1.2c-3.8,10.3-12,18.5-22.4,22.3l-1.2.5,1.2.5c10.3,3.8,18.6,12,22.4,22.3l.5,1.2.5-1.2c3.8-10.3,12-18.5,22.4-22.3l1.2-.5-1.2-.5c-10.3-3.8-18.6-12-22.4-22.3Z"/>
  <path class="cls-3" d="M801.8,785.9l-.5-1.2-.5,1.2c-3.8,10.3-12.1,18.5-22.4,22.3l-1.2.5,1.2.5c10.4,3.8,18.6,12,22.4,22.3l.5,1.2.5-1.2c3.8-10.3,12.1-18.5,22.4-22.3l1.2-.5-1.2-.5c-10.4-3.8-18.6-12-22.4-22.3Z"/>
  <path class="cls-4" d="M263.79,322.89c-29.37-5.92-52.14-30.11-55.84-60.09,3.2,7.1,8.2,16.2,16.2,25.3,10,11.2,20.8,18.2,29.1,22.4.73.93,1.48,1.85,2.22,2.77-.73-.92-1.46-1.84-2.17-2.77-20.4-26.5-32.9-59.3-34.1-94.9-7.5,11-11.8,24.4-11.8,38.7,0,2.9.2,5.7.5,8.5,3.7,30,26.5,54.2,55.9,60.1,0,0,0,0-.01-.01Z"/>
  <path class="cls-4" d="M714.1,322.9s.04,0,.06-.01c3.7-3.9,7.19-8.09,10.49-12.39,8.3-4.2,19.1-11.2,29.1-22.4,8.04-8.93,13.02-17.97,16.23-25.14,0-.05.02-.11.02-.16.3-2.8.5-5.6.5-8.5,0-14.3-4.3-27.7-11.8-38.7-1.2,35.6-13.7,68.4-34.1,94.9-3.3,4.3-6.8,8.5-10.5,12.4Z"/>
  <path class="cls-3" d="M347.3,459.2c.8,5.9,3.3,16.3,11.6,25.8,3.1,3.5,13,14.6,29.2,15.5,9.8.5,17.8-3,23.5-6.7-7.5-7.5-18.8-16.9-34.3-24.4-11.2-5.5-21.6-8.5-30-10.2Z"/>
  <path class="cls-3" d="M589.9,500.5c16.2-.9,26.1-12,29.2-15.5,8.3-9.5,10.8-19.9,11.6-25.8-8.4,1.7-18.8,4.7-30,10.2-15.5,7.5-26.8,16.9-34.3,24.4,5.7,3.7,13.7,7.2,23.5,6.7Z"/>
  <path class="cls-3" d="M295.15,214.4s.02.03.03.05c14.48,8.4,31.35,20.79,46.92,38.55,6,6.9,11.1,13.7,15.3,20.2,0-.02,0-.05,0-.07-4.19-6.48-9.28-13.25-15.25-20.13-15.6-17.8-32.5-30.2-47-38.6Z"/>
  <path class="cls-3" d="M268.4,217.2c4.3,3.1,8.5,5.7,12.2,7.7-.5,1-1.2,2.1-2,3.1-.2.1-.3.3-.5.5l-.1.1c-.4.5-.9,1-1.3,1.4h-.2c-4.8-.5-10.1-1.3-15.6-2.5-5.5-1.2-10.7-2.7-15.5-4.3,1.1,1.9,2.4,4,4.1,6.4,4.83,6.93,12.27,15.48,23.21,22.81-10.86-7.31-18.25-15.81-23.06-22.71,5.6,4.1,13.7,8.5,24.1,9.7,4.4.5,8.4.3,11.9-.1-1.4-2-3.7-4.5-7-6.6-1-.6-2.1-1.2-3.1-1.6.4-.3.8-.5,1.2-.9.5-.4,1-.8,1.5-1.3l.1-.1c.1,0,.1-.1.2-.1,1.1-1.2,1.9-2.4,2.5-3.5,4,2.3,8.4,4.5,13.3,6.7,4.01,1.76,7.93,3.23,11.66,4.42,0,0,0-.01,0-.02-.5-1.3-1-2.6-1.6-4-1.7-4.1-3.6-7.8-5.4-11.2-.02-.04-.05-.09-.07-.13-5.06-5.28-10.31-11.94-14.48-20.17-2.3-4.5-4-8.8-5.3-12.8,5.2,4.1,11.8,9.1,19.5,14.5,19.1,13.2,27,16,38.6,25.4,5.3,4.3,11.79,10.29,18.39,18.58-.01-.06-.02-.12-.04-.18-.7-3.7-1.8-7.5-3.1-11.3-10.4-30.2-33.9-44.9-57.2-64.7-18.3-15.6-43.4-40-68.7-76.9-3.2,12-5.6,28.6-2.8,47.6,1.1,7,8,49.3,44.6,76.2Z"/>
  <path class="cls-3" d="M635.8,253.2c15.59-17.79,32.49-30.19,46.98-38.59.02-.04.04-.07.07-.11-14.5,8.4-31.4,20.8-47,38.6-6,6.9-11,13.7-15.3,20.2-.5-7.4-.4-16.7,1.7-26.7,6.7-8.3,13.1-14.3,18.4-18.6,11.6-9.3,19.5-12.2,38.6-25.4,7.8-5.4,14.4-10.4,19.6-14.5-1.3,4-3,8.3-5.3,12.8-4.3,8.29-9.49,14.99-14.59,20.29-.02.04-.04.08-.06.11-1.8,3.4-3.7,7.2-5.4,11.2-.5,1.4-1.1,2.7-1.6,4-1.3,3.3-2.4,6.5-3.3,9.5,2.2-.8,4.6-1.5,7.3-2,4.59-.9,8.78-.9,12.58-.6.02-.03.05-.07.07-.1-3.8-.3-8-.3-12.6.6-2.7.5-5.1,1.2-7.3,2,.9-3,2-6.2,3.3-9.5,3.8-1.2,7.8-2.7,11.9-4.5,4.9-2.1,9.3-4.4,13.3-6.7.6,1.1,1.4,2.3,2.5,3.5.1,0,.1.1.2.1,0,0,0,.1.1.1.1.1.19.17.29.26-.11-.12-.23-.23-.34-.36-.1,0-.1-.1-.1-.1-.2-.1-.3-.3-.5-.5-.8-1.1-1.5-2.1-2-3.1,3.7-2,7.9-4.5,12.2-7.7,36.6-26.9,43.5-69.2,44.5-76,2.8-19,.4-35.6-2.8-47.6-25.3,36.9-50.3,61.3-68.7,76.9-23.3,19.8-46.8,34.5-57.2,64.7-1.3,3.8-2.4,7.6-3.1,11.3-2.1,10-2.2,19.3-1.7,26.7,4.3-6.5,9.3-13.3,15.3-20.2Z"/>
  <path class="cls-3" d="M702.65,231.1c-1,.4-2,1-3.1,1.6-3.3,2.1-5.6,4.6-7,6.6,3.4.4,7.4.6,11.9.1,10.3-1.2,18.4-5.6,24-9.7-5.5,7.8-14.4,17.9-28,25.8-12.47,7.18-24.34,9.98-32.93,11.09-.04.04-.08.07-.12.11,8.6-1.1,20.5-3.9,33-11.1,13.6-7.9,22.5-18,28-25.8,1.7-2.4,3-4.6,4.1-6.4-4.8,1.6-9.9,3.1-15.5,4.3-5.48,1.2-10.67,1.99-15.56,2.49,0,0,0,0,0,0,.4.3.8.6,1.2.9Z"/>
  <path class="cls-3" d="M796.9,385.4c10.7-2.2,24.7-7.8,35.2-21.2,11.1-14.3,12.3-30,12.1-37.6-7,1.6-15.3,2.6-24.6,2.2-8.9-.4-16.7-2.1-23-4.1,10.6-15.7,27.4-53.2,21.5-127.7-5.47-42.79-10.98-85.54-16.48-128.31-2.94-22.89-5.89-45.78-8.82-68.69l-97.4,67.9h-412.8L185.2,0c-2.93,22.91-5.88,45.8-8.82,68.69-5.5,42.76-11.01,85.52-16.48,128.31-5.9,74.5,10.9,112,21.5,127.7-6.3,2-14.1,3.7-23,4.1-9.2.4-17.5-.6-24.6-2.2-.2,7.7,1,23.3,12.1,37.6,10.4,13.4,24.5,18.9,35.2,21.2-20.8,27.6-41.6,55.3-62.4,82.9,12.1-2.7,26.2-8,38.7-18.6,15-12.7,17.9-24.5,31.7-42.2,8.7-11.1,22.6-25.7,44.9-39.3-12.9,2.9-30.7,4.2-49.5-2.9-12.1-4.6-21.1-11.3-27.2-17.1,8,.7,18.6.3,30.1-3.9,12.1-4.4,20.5-11.3,25.4-16.3-12.8-12.7-37.6-47.9-32.2-126.1,3.8-29.7,7.7-59.4,11.6-89.1,1.9-15,3.9-30,5.8-45,1.3-9.9,2.6-19.9,3.9-29.8l42.2,29.8,63.7,45c40.6,28.7,81.2,57.3,121.7,86,0-3-.2-6.4-1-10.1-.9-4.1-2.2-7.7-3.5-10.6,8.8-.4,19.8.1,32.1,2.9,5.6,1.3,10.8,2.9,15.5,4.7,6.4,2.4,11.9,5.1,16.3,7.6,4.5-2.5,9.9-5.1,16.3-7.6,4.7-1.8,9.8-3.4,15.5-4.7,12.3-2.8,23.4-3.3,32.1-2.9-1.4,2.9-2.7,6.4-3.5,10.6-.8,3.7-1,7.1-1,10.1,40.6-28.7,81.2-57.3,121.7-86l63.7-45,42.2-29.8c1.3,9.9,2.6,19.9,3.9,29.8,1.9,15,3.9,30,5.8,45,3.8,29.7,7.7,59.4,11.6,89.1,5.3,78.2-19.5,113.4-32.2,126.1,5,5,13.3,11.9,25.4,16.3,11.5,4.2,22.1,4.6,30.1,3.9-6.1,5.7-15.1,12.5-27.2,17.1-18.8,7.1-36.6,5.9-49.5,2.9,22.3,13.6,36.2,28.1,44.9,39.3,13.8,17.7,16.7,29.5,31.7,42.2,12.5,10.6,26.6,15.9,38.7,18.6-20.6-27.6-41.4-55.3-62.2-82.9ZM565.2,158.8c-11.1-1.3-25-1.7-40.6.8-14.5,2.3-26.5,6.4-35.6,10.4-9.2-4-21.2-8.1-35.6-10.4-15.6-2.5-29.5-2.1-40.6-.8l-65.7-45.8h283.8l-65.7,45.8Z"/>
  <path class="cls-3" d="M967.9,67.9h-135.6v45h90.5c5.5,0,10.1,4.5,10.1,10v748.8c0,5.5-4.5,10-10.1,10h-297.7c2.3-4.9,4.2-9.4,5.8-13.6-5,4.4-10.4,9-16.2,13.6-18.8,15.1-42,30.9-69.8,45-1.4.7-2.9,1.4-4.3,2.1-18.3,9-35.7,15.8-51.7,21.1-16-5.3-33.4-12.2-51.7-21.1-1.4-.7-2.9-1.4-4.3-2.1-27.8-14.1-51-29.9-69.8-45-5.8-4.6-11.2-9.2-16.2-13.6,1.6,4.2,3.5,8.8,5.8,13.6H55.3c-5.5,0-10.1-4.5-10.1-10V122.9c0-5.5,4.5-10,10.1-10h90.5v-45H10.1c-5.5,0-10.1,4.5-10.1,10v838.7c0,5.5,4.5,10,10.1,10h374c26.6,27.3,57.9,40.6,83.5,47.1,7.7,2,15,3.3,21.4,4.2,6.4-.9,13.6-2.3,21.4-4.2,25.6-6.5,57-19.8,83.5-47.1h374.1c5.5,0,10.1-4.5,10.1-10V77.9c-.1-5.5-4.6-10-10.2-10Z"/>
  <path class="cls-3" d="M121.8,570.4c4.9-13.1,14-31.9,31.3-49.6,21.1-21.7,45-32.1,62.2-37.3-9.3,6.3-20.5,15.8-30.4,29.7-12.1,17-17.3,33.7-19.7,45,5.5-6.4,12.6-13.6,21.8-20.5,5.6-4.2,11.1-7.7,16.3-10.5.2-.11.4-.21.6-.31,8.95-6.13,23.07-13.87,41.85-16.79,16.6-2.8,31.3-.8,42.9,2.4-12,.9-28.4,3.9-46,12.4-19.93,9.57-33.4,22.41-41.51,31.9-6.28,9.68-12.35,21.55-16.94,35.7-11.17,34.68-7.29,65.55-2.76,84.23,4.2-17.35,13.74-41.42,35.91-61.53,21.9-19.9,46.1-27,60.8-29.6.5.2,1,.3,1.4.4-14.9,6.3-35.9,17.4-56.6,36.7-21.27,19.89-33.92,40.65-41.16,55.33.04.13.08.26.11.38,7.2-14.7,19.9-35.7,41.4-55.8,20.7-19.3,41.7-30.4,56.6-36.7-.5-.1-.9-.2-1.4-.3-11.4-2.7-25.7-4.8-42.1-4.3-13.2.4-24.7,2.4-34,4.8,6.9-11.3,24.5-35.2,57.3-46.1,26.6-8.8,50.1-4.7,63.1-1-9.5.5-21.9,2.3-35.4,7.5-5.7,2.2-10.7,4.7-15.2,7.2-3.9,2.2-7.4,4.5-10.5,6.7.15-.02.3-.03.44-.05,2.89-2.09,6.22-4.27,10.01-6.35,18.8-2.3,45.3-1.9,72.8,10.9,20.1,9.4,34,22.2,42.7,32-1.8-6.5-4.8-14-10.1-21.5-4.7-6.6-9.8-11.5-14.2-14.9,5.9,1.4,12.4,3.3,19.3,6.2,6,2.5,11.3,5.3,15.8,8-6.4-18.2-15.6-28.6-23.1-34.8-13.9-11.4-24.7-10.9-41.3-26.9-10.6-10.2-10-14.1-19.3-23.2-7.2-7-16.4-13.3-28.4-18,4.5-1.2,9.5-2.1,15-2.5,3.1-.2,6.1-.3,8.9-.2-3.2-3-7.4-6.5-12.5-9.9-5.1-3.5-11.2-6.9-18.3-9.9-10.3-4.3-19.8-6.4-27.4-7.3,4.2-1.9,8.7-3.8,13.7-5.5,3.9-1.3,7.7-2.4,11.3-3.3,3.3.8,7,2,10.9,3.6,10.4,4.2,17.4,9.3,19.1,10.6,9,6.7,14.1,13.7,18.9,20.4,8.9,12.3,7.8,15.1,14.8,24.4,7.3,9.8,15,15.2,22.4,20.6,6.2,4.4,21.1,14.3,42.9,20.2,3.6.8,7,1.6,10.1,2.2-.17,1.66-.42,3.46-.74,5.39.34-2.04.6-3.95.79-5.69-3.1-.6-6.5-1.3-10.1-2.3-21.8-5.8-36.7-15.7-42.9-20.2-7.5-5.3-15.1-10.8-22.4-20.6-7-9.3-5.9-12.2-14.8-24.4-4.8-6.7-10-13.7-18.9-20.4-1.7-1.3-8.7-6.4-19.1-10.6-3.9-1.6-7.6-2.7-10.9-3.6-.6-.1-1.1-.3-1.7-.4,11.4-2.4,26.7-4.3,44.5-2.8,5.9.5,25.4,2.5,48.6,12.5,8.6,3.7,15.7,7.6,21.2,11.1-4.7-5.9-10.9-12.5-18.8-19-3.9-3.1-13.8-10.7-28.4-17.2-7.6-3.4-14.7-5.6-20.6-7.1,2.8-.2,5.9-.4,9.4-.4,6.9.1,27.6.5,48.4,13.2,1.1.7,2.8,1.7,4.7,3.1.54.38,1.11.79,1.7,1.22,8.68,3.65,18.74,8.72,29.15,15.88,11,7.6,19.6,15.6,26.4,22.9,5.4-4.7,10.6-10.9,14.2-19,5.6-12.5,5.3-24.3,3.7-33,.5,1.6,1,3.3,1.5,5,3.1,11.2,6.3,23.1,2.1,36.6-.4,1.32-1.14,3.7-2.32,6.45,1.31-2.92,2.12-5.46,2.57-6.85,4.2-13.4,1-25.4-2-36.6-.5-1.7-1-3.4-1.5-5-1.6-4.8-3.3-9-5-12.6,9.5,11.6,25,34.8,21.2,60.1-.3,1.7-.6,3.8-1.1,6.2-.09.42-.18.86-.29,1.3.22,3.14.22,6.58.04,10.2-1.1,31.5-10.8,52.1-16.8,70.5-5,15.4-9.8,37-9.8,65.2-2.1-4.7-4.8-10-8.6-15.4-1.5-2.2-3.1-4.3-4.7-6.2-3.7,18.1-8.5,33-12.7,44.2-4.7,12.5-9.5,25.2-19.4,40.2-3.08,4.62-6.06,8.67-8.87,12.18,0,.04.01.08.02.12.9,5.9,3,12.3,6.8,18.7,1.7,2.8,13.3,21.3,36.6,25,2.3.4,22.1,3.3,38.7-9.1,2.4-1.8,4.4-3.6,5.8-5.2-4.4-1.5-9.8-3.7-15.5-7.2-4-2.4-8.7-5.2-13.3-10.3-3.1-3.4-10.6-11.5-11.9-24.1-.3-3.2-1.5-14.2,5.5-23.8,7.1-9.8,18.2-12.1,26-13.7,3.7-.8,7.4-1.2,10.7-1.5l.1.2c1.5-.2,3.5-.4,5.8-.4s4.3.2,5.8.4l.1-.2c3.4.2,7.1.7,10.7,1.5,7.8,1.6,18.9,3.9,26,13.7,7,9.6,5.8,20.6,5.5,23.8-1.3,12.7-8.8,20.8-11.9,24.1-4.7,5.1-9.3,7.9-13.3,10.3-5.7,3.5-11.1,5.7-15.5,7.2,1.5,1.5,3.4,3.4,5.8,5.2,16.6,12.4,36.4,9.5,38.7,9.1,23.3-3.8,34.9-22.2,36.6-25,3.82-6.26,5.81-12.53,6.73-18.32-2.9-3.6-5.99-7.79-9.18-12.58-9.8-14.9-14.7-27.6-19.4-40.2-4.2-11.2-9-26.1-12.7-44.2-1.5,1.9-3.1,3.9-4.7,6.2-3.8,5.4-6.5,10.7-8.6,15.4,0-28.3-4.9-49.8-9.8-65.2-6-18.4-15.7-39-16.8-70.5-.1-4-.1-7.8,0-11.2,1.6,7.7,5.1,18,14.5,25.1,2.8,2.1,5.7,3.6,8.3,4.6l4.7,89.4.5-1.3c2.6-5.4,6.3-11.5,11.3-17.7,2.1-2.6,4.2-4.9,6.3-7,1,4.5,2.1,9.6,3.5,15.3.9,3.7,2.9,11.9,5.4,20.8,1,3.3,5.3,18.4,14.1,40.7,9.6,24.5,10.7,22.5,12,30.2.74,3.63,2,11.14.89,20.13,1.2-9.16-.08-16.76-.74-20.53-1.3-7.7-2.4-5.7-12-30.2-8.8-22.3-13.1-37.4-14.1-40.7-2.5-8.9-4.5-17.1-5.4-20.8-1.4-5.7-2.5-10.8-3.5-15.3-2.1,2.1-4.2,4.4-6.3,7-5,6.2-8.6,12.3-11.3,17.7l-.5,1.3-4.7-89.4c-2.6-1-5.4-2.5-8.3-4.6-9.4-7.1-12.9-17.4-14.5-25.1-.5-2.4-.8-4.5-1.1-6.2-3.8-25.2,11.7-48.5,21.2-60.1-1.7,3.5-3.4,7.8-4.9,12.6-.08.24-.15.5-.23.74-1.53,8.56-1.63,20.27,3.78,32.56,3.6,8.1,8.8,14.3,14.2,19,6.7-7.3,15.4-15.3,26.4-22.9,11.02-7.51,21.54-12.72,30.5-16.41.29-.2.58-.4.85-.59,2-1.4,3.6-2.4,4.7-3,20.8-12.7,41.5-13.1,48.4-13.2,3.5,0,6.6.1,9.4.4-5.9,1.5-13,3.7-20.6,7.1-14.6,6.4-24.5,14-28.4,17.2-8,6.4-14.2,13.1-18.8,19,5.5-3.4,12.6-7.4,21.2-11.1,23.1-10,42.7-12,48.6-12.5,17.9-1.5,33.1.4,44.5,2.8-.5.1-1.1.3-1.7.4-3.3.8-7,2-10.9,3.6-.04.02-.07.03-.11.05,3.85-1.57,7.5-2.66,10.76-3.55,3.6.9,7.4,2,11.3,3.3,4.9,1.7,9.5,3.5,13.7,5.5-7.7,1-17.2,3-27.4,7.3-7.1,3-13.2,6.4-18.3,9.9s-9.3,6.9-12.5,9.9c2.8-.1,5.7,0,8.9.2,5.5.4,10.6,1.4,15,2.5-11.9,4.7-21.2,11-28.4,18-9.3,9.1-8.7,13-19.3,23.2-16.6,16-27.4,15.5-41.2,26.9-7.5,6.2-16.7,16.6-23.1,34.8,4.5-2.7,9.8-5.5,15.8-8,6.9-2.9,13.5-4.9,19.3-6.2-4.4,3.4-9.6,8.3-14.2,14.9-5.2,7.4-8.3,15-10.1,21.5,8.6-9.8,22.5-22.7,42.7-32,27.4-12.7,53.9-13.1,72.7-10.8,3.81,2.15,7.23,4.39,10.28,6.54.16.02.32.04.47.06-3-2.2-6.5-4.5-10.5-6.7-4.5-2.5-9.5-5-15.2-7.2-13.5-5.2-25.8-7-35.4-7.5,12.9-3.7,36.4-7.8,63.1,1,32.8,10.9,50.5,34.8,57.3,46.1-9.3-2.4-20.8-4.4-34-4.8-16.4-.5-30.7,1.6-42.1,4.3-.5.1-.9.2-1.4.3.03.01.07.03.1.05.38-.08.74-.16,1.15-.25,14.7,2.6,38.9,9.6,60.8,29.6,22.5,20.3,32,44.8,36.1,62.2-.08.22-.15.5-.22.75.02.05.05.1.08.15.1-.3.2-.7.3-1,4.5-18.6,8.7-49.8-2.6-84.9-4.6-14.2-10.7-26.1-17-35.8-.3-.5-.7-1-1-1.5.8-4.1,1.1-9.7-.6-16-2.2-7.88-6.68-13.47-10.57-16.97-.09-.04-.19-.09-.28-.13,3.9,3.5,8.4,9.1,10.6,17,1.7,6.3,1.4,12,.6,16,.4.6.8,1.1,1.1,1.7-8.2-9.5-21.7-22.3-41.7-32-17.6-8.5-34-11.4-46-12.4,11.6-3.2,26.3-5.2,43-2.6,19.12,2.97,33.42,10.94,42.24,17.12.17.1.34.18.51.28,5.2,2.8,10.7,6.3,16.4,10.5,9.2,6.9,16.3,14.1,21.8,20.5-2.4-11.2-7.6-28-19.7-45-9.9-13.9-21.1-23.4-30.4-29.7,17.1,5.1,41,15.6,62.2,37.3,17.3,17.7,26.5,36.6,31.3,49.6,3.9-10.8,9.5-32,1.6-56-6.2-18.7-17.8-30.8-25.2-37.2,0,0,3.5,9.3,4.3,15.5.8,6,.6,11.3,0,15.7-8.2-11.4-19.3-24.5-34.2-37-30.8-25.8-63-37-84-42.1,6.9-1.9,16-3.4,26.5-2.8,19.7,1,34.8,8.8,44,15-12.2-13.4-32.8-31.6-63.1-43.2-23.5-9-44.8-11-59.9-10.9,9.9-2.9,22.5-5.2,37.1-4.9,9.8.2,18.4,1.7,25.7,3.2,0,0-18.9-12.1-32.8-16.6-14-4.5-26.6-5.7-36.3-5.7,7.6-4.6,15.9-9.2,24.9-13.8,9.7-4.9,19.1-9.1,27.9-12.6-10.1-1.8-21-3.2-32.7-4.1-20.5-1.6-39.2-1.2-55.6.2.6-.4,23.7-15.6,37.2-23.1,16.6-9.3,32.4-16.9,47.1-23.2,0,0-49.2,1.3-80.2,15.2-15.1,6.7-27.3,14.8-36.8,22.3,3.4-19.1,6.7-38.2,10.1-57.2,0,0-17.4,12.6-28.2,20.5-.25.17-.48.34-.71.5-3.19,3.39-6.47,6.96-9.74,10.8-4.2,5-8,9.9-11.5,14.7.6-5.3,1.7-11.6,4.1-18.4,4-11.6,9.2-18.1,14.2-26.3,4.8-7.9,10.6-19.2,15.1-34.7-1.4,8.7-3.3,17.8-5.7,27.3-2.6,10-5.5,19.3-8.5,27.8.05-.04.11-.08.16-.12,2.96-8.41,5.92-17.51,8.39-27.48,2.4-9.5,4.3-18.7,5.7-27.3,1-6,1.7-11.8,2.3-17.2-5.6,6.4-13.3,13.9-23.6,20.6-9.9,6.4-15.9,8-24.8,12.7-9.4,5-22,13.4-35,28.5.4-4.2,1.1-9,2.6-14.2,3.8-13.6,9.6-19.2,14.5-30.8,2.7-6.4,5.6-15.7,6.2-28.3-6,3.9-12.8,9.2-19.4,16.4-9.6,10.4-15.6,21.1-19.3,29.8-3.8-8.7-9.7-19.4-19.3-29.8-6.7-7.2-13.5-12.5-19.4-16.4.6,12.6,3.5,21.9,6.2,28.3,4.9,11.5,10.7,17.1,14.5,30.8,1.5,5.2,2.2,10.1,2.6,14.2-13-15.1-25.5-23.5-35-28.5-8.8-4.7-14.9-6.3-24.8-12.7-10.3-6.7-18.1-14.2-23.6-20.6.6,5.5,1.3,11.2,2.3,17.2.06.4.13.8.2,1.2,4.43,14.73,10.01,25.65,14.65,33.2,5,8.1,10.2,14.6,14.2,26.3,2.3,6.8,3.5,13.1,4.1,18.4-3.5-4.8-7.3-9.7-11.5-14.7-3.38-3.96-6.67-7.64-10.05-11.13-.03-.02-.06-.04-.1-.07h-.1c-10.8-7.9-28.2-20.5-28.2-20.5,3.4,19.1,6.7,38.2,10.1,57.2-9.5-7.5-21.7-15.5-36.8-22.3-31-13.9-80.2-15.2-80.2-15.2,14.7,6.3,30.5,13.9,47.1,23.2,13.5,7.6,36.6,22.7,37.2,23.1-16.4-1.4-35.1-1.8-55.6-.2-11.7.9-22.6,2.4-32.7,4.1,8.8,3.5,18.2,7.7,27.9,12.6,9,4.5,17.3,9.2,24.9,13.8-9.6,0-22.3,1.2-36.3,5.7-13.9,4.5-32.8,16.6-32.8,16.6,7.3-1.4,15.9-3,25.7-3.2,14.6-.3,27.2,2.1,37.1,4.9-15.1,0-36.4,1.9-59.9,10.9-30.3,11.6-50.9,29.8-63.1,43.2,9.2-6.2,24.3-14,44-15,10.5-.5,19.5.9,26.5,2.8-21,5.1-53.2,16.3-84,42.1-14.9,12.5-26.1,25.6-34.2,37-.6-4.3-.8-9.6,0-15.7.8-6.2,4.3-15.5,4.3-15.5-7.5,6.3-19.1,18.4-25.2,37.2-7.9,24-2.3,45.1,1.9,55.9ZM573.1,366.1c24.4-18,50.7-19.8,66.1-18.9-15.1,5.6-33.1,13.9-52,26.6-22.2,14.9-38.8,31.2-50.6,45.1,3.2-11.2,12.3-35,36.5-52.8ZM404.9,366.1c24.2,17.8,33.3,41.6,36.5,52.8-11.8-13.9-28.3-30.2-50.6-45.1-18.9-12.7-37-21-52-26.6,15.4-.9,41.7.9,66.1,18.9Z"/>
  <path class="cls-3" d="M462,490.99c-.48.41-.98.82-1.5,1.21-2.8,2.1-5.7,3.6-8.3,4.6v.15c2.5-1,5.17-2.44,7.95-4.45.65-.49,1.26-.99,1.85-1.51Z"/>
  <path class="cls-3" d="M213.25,522.4s-.08.03-.11.05c-1.42,1.3-2.9,2.86-4.32,4.72,1.46-1.89,2.99-3.48,4.44-4.77Z"/>
  <path class="cls-3" d="M608.87,516.79c-7.84,4.91-20.24,11.52-36.47,15.91-3.6,1-7,1.7-10.1,2.3,0,.02,0,.03,0,.05,3.03-.59,6.34-1.28,9.84-2.25,16.4-4.36,28.9-11.05,36.72-16.01Z"/>
  <path class="cls-3" d="M446.65,585.2l.5,1.3.06-1.06-.21-.54c-2.6-5.4-6.3-11.5-11.3-17.7-2.1-2.6-4.2-4.9-6.3-7-.04.17-.08.36-.12.54,2.02,2.04,4.05,4.26,6.07,6.76,5,6.2,8.6,12.3,11.3,17.7Z"/>
  <path class="cls-3" d="M587.52,626.77c.05.15.08.23.08.23,0,0,17.6-35.1,50.8-51.8,1.69-.85,3.37-1.65,5.05-2.42-1.76.8-3.53,1.63-5.3,2.52-31.36,15.77-48.79,47.95-50.63,51.47Z"/>
  <path class="cls-2" d="M575.1,443.7c-10.1,13-10.3,21.7-21.5,28.9-3.3,2.1-11.3,7.3-19.9,5.2-12.4-2.9-17.3-18.5-18.6-22.8-4.2-13.5-1-25.4,2-36.6.42-1.44.85-2.88,1.27-4.26.03-.15.05-.3.08-.44-.5,1.6-1,3.3-1.5,5-3,11.2-6.2,23.2-2,36.6,1.4,4.3,6.3,19.8,18.6,22.8,8.6,2.1,16.6-3,19.9-5.2,11.1-7.2,11.4-15.8,21.5-28.9,6.7-8.6,14-14.4,19-17.9-.23.09-.47.2-.7.29-5.03,3.55-11.81,9.17-18.15,17.31Z"/>
  <path class="cls-2" d="M536.35,465.7c-5.4-4.7-10.6-10.9-14.2-19-5.41-12.29-5.3-24-3.78-32.56-.42,1.38-.85,2.81-1.27,4.26-3,11.2-6.2,23.1-2,36.6,1.3,4.3,6.2,19.9,18.6,22.8,8.6,2.1,16.6-3.1,19.9-5.2,11.2-7.2,11.4-15.9,21.5-28.9,6.34-8.13,13.12-13.76,18.15-17.31-8.95,3.69-19.48,8.9-30.5,16.41-11,7.6-19.7,15.6-26.4,22.9Z"/>
  <path class="cls-2" d="M584.43,689.78s.01.01.02.02c.11-.7.21-1.39.29-2.07-.07.55-.15,1.11-.24,1.67-.02.13-.05.25-.07.38Z"/>
  <path class="cls-2" d="M583.85,667.6c-1.3-7.7-2.4-5.7-12-30.2-8.8-22.3-13.1-37.4-14.1-40.7-2.5-8.9-4.5-17.1-5.4-20.8-1.4-5.7-2.5-10.8-3.5-15.3-2.1,2.1-4.2,4.4-6.3,7-5,6.2-8.7,12.3-11.3,17.7l-.5,1.3-4.7-89.4c-2.6-1-5.5-2.5-8.3-4.6-9.4-7.1-12.9-17.4-14.5-25.1-.1,3.4-.1,7.2,0,11.2,1.1,31.5,10.8,52.1,16.8,70.5,4.9,15.4,9.8,36.9,9.8,65.2,2.1-4.7,4.8-10,8.6-15.4,1.6-2.3,3.2-4.3,4.7-6.2,3.7,18.1,8.5,33,12.7,44.2,4.7,12.6,9.6,25.3,19.4,40.2,3.19,4.79,6.29,8.98,9.18,12.58.02-.13.05-.25.07-.38.09-.56.17-1.12.24-1.67,1.11-8.99-.15-16.51-.89-20.13Z"/>
  <path class="cls-2" d="M637.7,491.9c7-9.3,5.9-12.1,14.8-24.4,4.8-6.7,9.9-13.7,18.9-20.4,1.69-1.3,8.65-6.36,18.99-10.55-.05.02-.09.03-.14.05-10.4,4.2-17.4,9.3-19.1,10.6-8.9,6.7-14.1,13.7-18.9,20.4-8.9,12.2-7.8,15.1-14.8,24.4-7.3,9.8-14.9,15.3-22.4,20.6-1.53,1.11-3.61,2.56-6.18,4.19,2.69-1.68,4.85-3.17,6.43-4.29,7.4-5.4,15.1-10.8,22.4-20.6Z"/>
  <path class="cls-2" d="M643.45,572.78c28.61-12.96,55.29-14.35,73.1-12.18-.07-.05-.15-.1-.22-.16-17.85-2.18-44.41-.7-72.87,12.34Z"/>
  <path class="cls-2" d="M562.05,535.1c2.8,26.8,25.3,92,25.3,92,0,0,.06-.12.17-.33-1.44-4.18-22.49-65.81-25.22-91.72-.08.02-.17.03-.26.05Z"/>
  <path class="cls-2" d="M633.35,564.7c-20.2,9.3-34.1,22.2-42.7,32,1.8-6.5,4.9-14.1,10.1-21.5,4.6-6.6,9.8-11.5,14.2-14.9-5.8,1.3-12.4,3.3-19.3,6.2-6,2.5-11.3,5.3-15.8,8,6.4-18.2,15.6-28.6,23.1-34.8,13.8-11.4,24.6-10.9,41.2-26.9,10.6-10.2,10-14.1,19.3-23.2,7.2-7,16.5-13.3,28.4-18-4.4-1.1-9.5-2.1-15-2.5-3.2-.2-6.1-.3-8.9-.2,3.2-3,7.4-6.4,12.5-9.9s11.2-6.9,18.3-9.9c10.2-4.3,19.7-6.3,27.4-7.3-4.2-2-8.8-3.8-13.7-5.5-3.9-1.3-7.7-2.4-11.3-3.3-3.26.89-6.91,1.98-10.76,3.55-10.34,4.19-17.3,9.26-18.99,10.55-9,6.7-14.1,13.7-18.9,20.4-8.9,12.3-7.8,15.1-14.8,24.4-7.3,9.8-15,15.2-22.4,20.6-1.58,1.12-3.74,2.61-6.43,4.29-7.82,4.96-20.32,11.64-36.72,16.01-3.5.97-6.81,1.66-9.84,2.25,2.73,25.91,23.78,87.54,25.22,91.72,1.84-3.52,19.27-35.69,50.63-51.47,1.77-.89,3.54-1.72,5.3-2.52,28.46-13.03,55.02-14.52,72.87-12.34-3.05-2.15-6.47-4.4-10.28-6.54-18.8-2.3-45.3-1.9-72.7,10.8Z"/>
  <path class="cls-2" d="M755.2,622.7c-20.65-19.26-41.6-30.35-56.5-36.65-.09.02-.16.04-.25.05,14.9,6.3,35.9,17.4,56.6,36.7,21.5,20.1,34.2,41.1,41.4,55.8.02-.08.05-.17.08-.25-7.21-14.69-19.9-35.62-41.32-55.65Z"/>
  <path class="cls-2" d="M760.65,615.4c-21.9-20-46.1-27-60.8-29.6-.41.08-.76.16-1.15.25,14.89,6.31,35.84,17.4,56.5,36.65,21.43,20.03,34.11,40.96,41.32,55.65.08-.25.15-.53.22-.75-4.1-17.4-13.6-41.9-36.1-62.2Z"/>
  <path class="cls-2" d="M714.35,692.5c.5-7.9-.1-17-2.9-26.7-4.4-15.3-12.6-26.3-19.2-33.3,1.1,7.5,1.7,15.1,1.7,22.8,0,3.1-.1,6.3-.3,9.4,0,.8-.1,1.5-.2,2.3,3.4,3.35,6.8,7.04,10.2,11.1,4,4.9,7.6,9.7,10.7,14.4Z"/>
  <path class="cls-2" d="M521.05,888.84s-.07.04-.1.06c1.4-.4,2.8-.7,4.2-1,.05-.02.1-.05.15-.07-.1.02-.2.05-.3.07-1.32.28-2.63.57-3.95.94Z"/>
  <path class="cls-2" d="M631.25,765.7c7.9-34.2,3-64.1-2.9-84.1.3,2.5.5,5,.7,7.6.3,4.7.5,9.4.5,14.2,0,35.1-8.9,68.3-24.8,97.8-1.8,3.3-3.6,6.5-5.5,9.7-10.3,16.9-22.8,32.5-37.4,46.4-3,2.9-6,5.7-9.2,8.4-4.7,4-9.5,7.8-14.5,11.5-2.6,1.9-5.3,3.8-8,5.6-1.3.9-2.7,1.8-4,2.7-1.67,1.18-3.34,2.26-5.1,3.34,1.32-.36,2.63-.65,3.95-.94.1-.02.2-.05.3-.07,18.43-8.33,88-44.24,105.95-122.13Z"/>
  <path class="cls-2" d="M528.8,810.63s.04-.02.05-.03c.9-6.5,1.3-13.1,1.3-19.8-.02.01-.03.03-.05.04,0,6.69-.4,13.27-1.3,19.76,0,0,0,.02,0,.03Z"/>
  <path class="cls-2" d="M492.65,835.2c3.7-3.4,7.9-7,12.7-10.5,8.28-6.08,16.36-10.68,23.45-14.07,0,0,0-.02,0-.03.9-6.49,1.3-13.07,1.3-19.76-14.98,12.39-27.66,27.48-37.45,44.36Z"/>
  <path class="cls-2" d="M765.13,522.33c3.12,1.38,6.42,3.03,9.82,4.87-.08-.06-.18-.12-.26-.18-3.32-1.86-6.54-3.39-9.59-4.72,0,0,.02.02.03.03Z"/>
  <path class="cls-2" d="M689.45,512.5c12,1,28.4,3.9,46,12.4,20,9.7,33.5,22.5,41.7,32-.3-.6-.7-1.1-1.1-1.7.8-4,1.1-9.7-.6-16-2.2-7.9-6.7-13.5-10.6-17,.09.04.19.09.28.13,0,0-.02-.02-.03-.03,3.04,1.33,6.27,2.85,9.59,4.72-8.82-6.18-23.12-14.15-42.24-17.12-16.7-2.6-31.4-.6-43,2.6Z"/>
  <path class="cls-2" d="M573.49,288.2c.22-.23.44-.47.66-.7-.94.56-1.78,1.21-2.54,1.78-.04.11-.07.21-.11.32.68-.45,1.3-.91,1.99-1.4Z"/>
  <path class="cls-2" d="M579.95,261.6c2.4-9.5,4.3-18.6,5.7-27.3-4.5,15.5-10.3,26.8-15.1,34.7-5,8.2-10.2,14.7-14.2,26.3-2.4,6.8-3.5,13.1-4.1,18.4,3.5-4.8,7.3-9.7,11.5-14.7,3.28-3.84,6.55-7.41,9.74-10.8-.69.5-1.32.95-1.99,1.4.04-.11.07-.21.11-.32-.05.04-.11.08-.16.12,3-8.5,5.9-17.8,8.5-27.8Z"/>
  <path class="cls-2" d="M714.16,322.89s0,0-.01.01c29.5-5.9,52.3-30.1,55.9-60.1-.02.05-.05.11-.07.16-3.66,29.9-26.4,54.01-55.81,59.93Z"/>
  <path class="cls-2" d="M724.65,310.5c-3.3,4.29-6.79,8.49-10.49,12.39,29.42-5.91,52.16-30.02,55.81-59.93-3.2,7.17-8.19,16.21-16.23,25.14-10,11.2-20.8,18.2-29.1,22.4Z"/>
  <path class="cls-2" d="M682.78,214.61c-1.28,2.07-2.56,4.23-3.83,6.59,0,0,0,0,.01-.01,1.28-2.35,2.56-4.52,3.84-6.59,0,0-.01,0-.02.01Z"/>
  <path class="cls-2" d="M698.85,188.1c-5.2,4.1-11.8,9.1-19.6,14.5-19.1,13.2-27,16.1-38.6,25.4-5.3,4.3-11.7,10.3-18.4,18.6-2.1,10-2.2,19.3-1.7,26.7,4.3-6.5,9.3-13.3,15.3-20.2,15.6-17.8,32.5-30.2,47-38.6-.02.04-.04.07-.07.11,0,0,.01,0,.02-.01-1.28,2.07-2.56,4.23-3.84,6.59,5.1-5.3,10.29-11.99,14.59-20.29,2.3-4.5,4-8.8,5.3-12.8Z"/>
  <path class="cls-2" d="M678.3,255.8c3.9-4.3,7.3-8.5,10.2-12.4,0,0-.02,0-.02,0-2.88,3.87-6.26,8.04-10.13,12.3-3.7,4.1-7.4,7.7-10.9,10.9.02,0,.05,0,.07,0,3.47-3.17,7.12-6.74,10.78-10.79Z"/>
  <path class="cls-2" d="M701.4,230.2s.03,0,.04,0c-.4-.32-.8-.66-1.21-1.03.32.34.67.67.96,1.04h.2Z"/>
  <path class="cls-2" d="M699.85,228.8c-.1,0-.1-.1-.2-.1-1.1-1.2-1.9-2.4-2.5-3.5-4,2.3-8.4,4.6-13.3,6.7-4.1,1.8-8.1,3.3-11.9,4.5-1.3,3.3-2.4,6.5-3.3,9.5,2.2-.8,4.6-1.5,7.3-2,4.6-.9,8.8-.9,12.6-.6-.02.03-.05.07-.07.1,0,0,.02,0,.02,0-2.9,3.9-6.3,8.1-10.2,12.4-3.66,4.05-7.32,7.62-10.78,10.79,8.59-1.11,20.46-3.91,32.93-11.09,13.6-7.9,22.5-18,28-25.8-5.6,4.1-13.7,8.5-24,9.7-4.5.5-8.5.3-11.9-.1,1.4-2,3.7-4.5,7-6.6,1.1-.6,2.1-1.2,3.1-1.6-.4-.3-.8-.6-1.2-.9,0,0,0,0,0,0-.01,0-.03,0-.04,0h-.2c-.3-.37-.64-.69-.96-1.04-.1-.09-.19-.17-.29-.26-.1,0-.1-.1-.1-.1Z"/>
  <path class="cls-2" d="M444.8,477.8c-8.6,2.1-16.6-3-19.9-5.2-11.1-7.2-11.4-15.8-21.5-28.9-5.98-7.67-12.43-13.11-17.3-16.68-.65-.27-1.31-.56-1.95-.82,5.1,3.5,12.3,9.3,19,17.9,10.1,13,10.3,21.7,21.5,28.9,3.3,2.1,11.3,7.3,19.9,5.2,8.6-2.01,13.59-10.13,16.28-16.35-2.75,6.14-7.69,13.92-16.03,15.95Z"/>
  <path class="cls-2" d="M461.05,418.8c-.5-1.7-1-3.4-1.5-5,1.6,8.7,1.9,20.5-3.7,33-3.6,8.1-8.8,14.3-14.2,19-6.8-7.3-15.4-15.3-26.4-22.9-10.42-7.16-20.47-12.23-29.15-15.88,4.87,3.57,11.33,9.01,17.3,16.68,10.1,13.1,10.4,21.7,21.5,28.9,3.3,2.2,11.3,7.3,19.9,5.2,8.34-2.03,13.27-9.81,16.03-15.95,1.19-2.75,1.93-5.13,2.32-6.45,4.2-13.5,1-25.4-2.1-36.6Z"/>
  <path class="cls-2" d="M394.4,667.2c1.3-7.7,2.4-5.7,12-30.2,8.8-22.3,13.1-37.4,14.1-40.7,2.5-8.9,4.5-17.1,5.4-20.8,1.35-5.48,2.41-10.39,3.38-14.76-.08-.08-.15-.16-.23-.24-1,4.5-2.1,9.6-3.5,15.3-.9,3.7-2.9,11.9-5.4,20.8-1,3.3-5.3,18.4-14.1,40.7-9.6,24.5-10.7,22.5-12,30.2-.7,4-2.1,12.3-.5,22.2.11-.14.22-.29.33-.42-1.57-9.85-.18-18.09.52-22.08Z"/>
  <path class="cls-2" d="M474.71,468.4c-.02-.33-.04-.68-.06-1-1.49,7.17-4.63,16.59-12.65,23.59,7.79-6.61,11.1-15.5,12.72-22.59Z"/>
  <path class="cls-2" d="M452.19,496.95c-.11.04-.23.1-.34.15l-4.64,88.34.29.76,4.69-89.25Z"/>
  <path class="cls-2" d="M422.15,636.9c4.2-11.2,9-26.1,12.7-44.2,1.6,1.9,3.2,4,4.7,6.2,3.8,5.4,6.5,10.7,8.6,15.4,0-28.2,4.8-49.8,9.8-65.2,6-18.4,15.7-39,16.8-70.5.18-3.62.19-7.06-.04-10.2-1.62,7.09-4.92,15.98-12.72,22.59-.59.52-1.2,1.02-1.85,1.51-2.78,2.01-5.45,3.46-7.96,4.45l-4.69,89.25-.29-.76-.06,1.06-.5-1.3c-2.7-5.4-6.3-11.5-11.3-17.7-2.02-2.5-4.05-4.73-6.07-6.76-.97,4.37-2.04,9.28-3.38,14.76-.9,3.7-2.9,11.9-5.4,20.8-1,3.3-5.3,18.4-14.1,40.7-9.6,24.5-10.7,22.5-12,30.2-.7,3.98-2.09,12.23-.52,22.08,2.81-3.51,5.79-7.56,8.87-12.18,9.9-15,14.7-27.7,19.4-40.2Z"/>
  <path class="cls-2" d="M340.1,575.1c-30.37-15.18-59.05-16.97-77.96-14.75-.16.12-.33.23-.49.35,18.9-2.4,47.8-.7,78.4,14.7,33.2,16.7,50.8,51.8,50.8,51.8,0,0,19.8-57.38,24.56-86.61-4.85,29.32-24.51,86.31-24.51,86.31,0,0-17.6-35.1-50.8-51.8Z"/>
  <path class="cls-2" d="M406.05,533c-21.8-5.9-36.7-15.8-42.9-20.2-7.4-5.4-15.1-10.8-22.4-20.6-7-9.3-5.9-12.1-14.8-24.4-4.8-6.7-9.9-13.7-18.9-20.4-1.7-1.3-8.7-6.4-19.1-10.6-3.9-1.6-7.6-2.8-10.9-3.6-3.6.9-7.4,2-11.3,3.3-5,1.7-9.5,3.6-13.7,5.5,7.6.9,17.1,3,27.4,7.3,7.1,3,13.2,6.4,18.3,9.9,5.1,3.4,9.3,6.9,12.5,9.9-2.8-.1-5.8,0-8.9.2-5.5.4-10.5,1.3-15,2.5,12,4.7,21.2,11,28.4,18,9.3,9.1,8.7,13,19.3,23.2,16.6,16,27.4,15.5,41.3,26.9,7.5,6.2,16.7,16.6,23.1,34.8-4.5-2.7-9.8-5.5-15.8-8-6.9-2.9-13.4-4.8-19.3-6.2,4.4,3.4,9.5,8.3,14.2,14.9,5.3,7.5,8.3,15,10.1,21.5-8.7-9.8-22.6-22.6-42.7-32-27.5-12.8-54-13.2-72.8-10.9-3.79,2.08-7.12,4.26-10.01,6.35,18.91-2.22,47.59-.43,77.96,14.75,33.2,16.7,50.8,51.8,50.8,51.8,0,0,19.67-56.99,24.51-86.31.31-1.93.56-3.73.74-5.39-3.1-.6-6.5-1.4-10.1-2.2Z"/>
  <path class="cls-2" d="M181.44,676.73c-.06.26-.13.52-.19.77.1.3.2.7.3,1,.08-.15.16-.32.24-.47-.06-.22-.12-.44-.19-.62-.05-.22-.11-.45-.16-.67Z"/>
  <path class="cls-2" d="M222.95,622.7c20.7-19.3,41.7-30.4,56.6-36.7-.4-.1-.9-.2-1.4-.4-14.7,2.6-38.9,9.7-60.8,29.6-22.17,20.1-31.71,44.18-35.91,61.53.05.22.11.45.16.67.06.19.12.41.19.62,7.24-14.68,19.89-35.44,41.16-55.33Z"/>
  <path class="cls-2" d="M284.4,664.6c0,.8.1,1.5.2,2.3l.04-.04c-.1-.78-.19-1.47-.19-2.26-.2-3.1-.3-6.3-.3-9.4,0-7.8.6-15.4,1.7-22.8-.02.02-.04.04-.06.06-1.09,7.38-1.69,14.96-1.69,22.74,0,3.1.1,6.3.3,9.4Z"/>
  <path class="cls-2" d="M263.75,692.4c3.1-4.7,6.6-9.5,10.7-14.4,3.6-4.3,7.3-8.2,10.8-11.7-.2.2-.4.4-.6.6,0-.02,0-.03,0-.04l-.04.04c-.1-.8-.2-1.5-.2-2.3-.2-3.1-.3-6.3-.3-9.4,0-7.78.6-15.36,1.69-22.74-6.69,6.9-14.75,17.88-19.14,33.24-2.8,9.8-3.4,18.9-2.9,26.7Z"/>
  <path class="cls-2" d="M451.75,885.6c-1.3-.9-2.7-1.8-4-2.7-2.7-1.8-5.4-3.7-8-5.6-5.1-3.7-9.9-7.5-14.5-11.5-3.2-2.7-6.2-5.5-9.2-8.4-14.6-13.9-27.1-29.5-37.4-46.4-1.9-3.2-3.7-6.4-5.5-9.7-15.9-29.5-24.8-62.7-24.8-97.8,0-4.8.2-9.5.5-14.2.2-2.6.4-5.1.7-7.6-.03.09-.05.19-.08.28-.28,2.41-.48,4.82-.67,7.32-.3,4.7-.5,9.4-.5,14.2,0,35.1,8.9,68.3,24.8,97.8,1.8,3.3,3.6,6.5,5.5,9.7,10.3,16.9,22.8,32.5,37.4,46.4,3,2.9,6,5.7,9.2,8.4,4.6,4,9.4,7.8,14.5,11.5,2.6,1.9,5.3,3.8,8,5.6,1.3.9,2.7,1.8,4,2.7,1.89,1.09,3.58,2.19,5.37,3.28.03,0,.05.01.08.02-1.8-1.1-3.5-2.2-5.4-3.3Z"/>
  <path class="cls-2" d="M447.7,882.9c-2.7-1.8-5.4-3.7-8-5.6-5.1-3.7-9.9-7.5-14.5-11.5-3.2-2.7-6.2-5.5-9.2-8.4-14.6-13.9-27.1-29.5-37.4-46.4-1.9-3.2-3.7-6.4-5.5-9.7-15.9-29.5-24.8-62.7-24.8-97.8,0-4.8.2-9.5.5-14.2.19-2.5.39-4.91.67-7.32-5.67,19.9-10.48,49.78-2.62,83.82,18,78,87.9,114,106.2,122.2,1.28.29,2.65.59,4.02.88-1.79-1.09-3.48-2.19-5.37-3.28-1.3-.9-2.7-1.8-4-2.7Z"/>
  <path class="cls-2" d="M485.13,835.01c.1.09.22.19.32.29-9.7-17-22.5-32.1-37.6-44.4,0,0,0,.02,0,.03,14.85,12.31,27.54,27.26,37.28,44.09Z"/>
  <path class="cls-2" d="M472.65,824.8c4.67,3.4,8.85,6.9,12.48,10.21-9.75-16.83-22.43-31.78-37.28-44.09.1,6.69.5,13.28,1.3,19.77,7.1,3.4,15.2,8,23.5,14.1Z"/>
  <path class="cls-2" d="M202.2,555.2c-.8-4-1.1-9.7.6-16,1.36-4.87,3.59-8.86,6.01-12.03-2.48,3.2-4.78,7.26-6.16,12.23-1.7,6.3-1.4,11.9-.6,16-.3.5-.7,1-1,1.5.03-.03.06-.07.09-.1.02-.03.04-.07.06-.1.3-.5.7-1,1-1.5Z"/>
  <path class="cls-2" d="M203.9,526.89c-.25.17-.51.35-.75.51,3.46-1.98,6.82-3.56,9.99-4.95.09-.08.18-.17.26-.25-2.92,1.32-6.12,2.92-9.5,4.69Z"/>
  <path class="cls-2" d="M242.65,524.9c17.6-8.5,34-11.5,46-12.4-11.6-3.2-26.3-5.2-42.9-2.4-18.78,2.92-32.9,10.66-41.85,16.79,3.37-1.77,6.57-3.37,9.5-4.69-.09.08-.18.17-.26.25.04-.02.08-.03.11-.05-1.45,1.3-2.97,2.89-4.44,4.77-2.42,3.17-4.66,7.16-6.01,12.03-1.7,6.3-1.4,12-.6,16-.3.5-.7,1-1,1.5-.02.03-.04.07-.06.1,8.11-9.49,21.58-22.33,41.51-31.9Z"/>
  <path class="cls-2" d="M398.4,261.8c-2.38-9.06-4.13-17.84-5.5-26.1-.15-.5-.3-.99-.45-1.5,1.4,8.6,3.2,17.8,5.7,27.3,2.5,10.1,5.5,19.3,8.5,27.8-.9-.6-1.7-1.3-2.7-1.9.12.12.23.24.35.37.96.59,1.83,1.26,2.6,1.83-3-8.5-5.9-17.8-8.5-27.8Z"/>
  <path class="cls-2" d="M425.85,313.6c-.6-5.3-1.8-11.6-4.1-18.4-4-11.7-9.2-18.2-14.2-26.3-4.64-7.54-10.22-18.47-14.65-33.2,1.37,8.25,3.11,17.04,5.5,26.1,2.6,10,5.5,19.3,8.5,27.8-.77-.58-1.64-1.25-2.6-1.83,3.38,3.49,6.67,7.17,10.05,11.13,4.2,5,8,9.9,11.5,14.7Z"/>
  <path class="cls-2" d="M263.85,322.9c-2.9-3.06-5.68-6.3-8.38-9.63,2.65,3.33,5.42,6.57,8.32,9.62.02,0,.04,0,.06.01Z"/>
  <path class="cls-2" d="M224.15,288.1c-8-9.1-13-18.2-16.2-25.3,3.7,29.98,26.47,54.16,55.84,60.09-2.9-3.05-5.67-6.29-8.32-9.62-.74-.92-1.49-1.84-2.22-2.77-8.3-4.2-19.1-11.2-29.1-22.4Z"/>
  <path class="cls-2" d="M298.93,220.97s.08.09.12.13c-1.29-2.38-2.58-4.57-3.87-6.65-.03-.01-.05-.03-.08-.05,1.28,2.06,2.55,4.22,3.83,6.57Z"/>
  <path class="cls-2" d="M357.4,273.13s.03.05.05.07c.5-7.4.4-16.7-1.8-26.7,0,0,0-.01-.01-.02,2.16,10.1,2.26,19.3,1.77,26.65Z"/>
  <path class="cls-2" d="M337.25,227.9c-11.6-9.4-19.5-12.2-38.6-25.4-7.7-5.4-14.3-10.4-19.5-14.5,1.3,4,3,8.3,5.3,12.8,4.17,8.23,9.42,14.89,14.48,20.17-1.28-2.35-2.55-4.51-3.83-6.57.03.01.05.03.08.05,0-.02-.02-.03-.03-.05,14.5,8.4,31.4,20.8,47,38.6,5.98,6.88,11.06,13.65,15.25,20.13.49-7.34.39-16.55-1.77-26.65-6.59-8.29-13.09-14.29-18.39-18.58Z"/>
  <path class="cls-2" d="M302,243.8c-4.6-.9-8.8-.9-12.6-.6,2.9,3.9,6.3,8.1,10.2,12.4,3.7,4.1,7.4,7.7,10.9,10.9-8.6-1.1-20.5-3.9-33-11.1-1.67-.97-3.26-1.97-4.79-2.99,1.57,1.06,3.22,2.09,4.94,3.09,12.5,7.2,24.4,10,33,11.1-3.5-3.3-7.2-6.9-10.8-10.9-3.9-4.3-7.3-8.5-10.2-12.4,3.8-.3,8-.3,12.6.6,2.7.5,5.1,1.2,7.3,2-.9-3-2-6.2-3.3-9.5-.08-.03-.16-.05-.24-.08,1.3,3.29,2.39,6.49,3.29,9.48-2.2-.8-4.6-1.5-7.3-2Z"/>
  <path class="cls-2" d="M281.05,225.2c-.6,1.1-1.4,2.3-2.5,3.5-.1,0-.1.1-.2.1l-.1.1c-.5.5-1,.9-1.5,1.3-.4.4-.8.6-1.2.9,1,.4,2.1,1,3.1,1.6,3.3,2.1,5.6,4.6,7,6.6-3.5.4-7.5.6-11.9.1-10.4-1.2-18.5-5.6-24.1-9.7,4.8,6.9,12.2,15.4,23.06,22.71,1.53,1.02,3.12,2.03,4.79,2.99,12.5,7.2,24.4,10,33,11.1-3.5-3.2-7.2-6.8-10.9-10.9-3.9-4.3-7.3-8.5-10.2-12.4,3.8-.3,8-.3,12.6.6,2.7.5,5.1,1.2,7.3,2-.9-2.99-2-6.19-3.29-9.48-3.73-1.19-7.64-2.66-11.66-4.42-4.9-2.2-9.3-4.4-13.3-6.7Z"/>
</svg>