<?xml version="1.0" encoding="UTF-8"?>
<svg id="Camada_1" data-name="Camada 1" xmlns="http://www.w3.org/2000/svg" viewBox="0 0 1024 1024">
  <defs>
    <style>
      .cls-1 {
        fill: #fffbfb;
      }

      .cls-1, .cls-2, .cls-3, .cls-4, .cls-5 {
        stroke-width: 0px;
      }

      .cls-2 {
        fill: #e0dcdc;
      }

      .cls-3 {
        fill: #303030;
      }

      .cls-4 {
        fill: #e30613;
      }

      .cls-5 {
        fill: #ca0101;
      }
    </style>
  </defs>
  <path class="cls-3" d="M529.66,491.28c3.4-2.29,6.64-3.78,9.36-4.79-2.77-.16-7.5.16-11.89,3.4-4.35,3.2-5.99,7.49-6.57,9.5,2.12-2.5,5.11-5.44,9.1-8.12Z"/>
  <path class="cls-3" d="M503.43,499.39c-.58-2.02-2.21-6.3-6.57-9.5-4.39-3.24-9.12-3.56-11.89-3.4,2.7,1.01,5.96,2.5,9.36,4.79,4.01,2.68,6.98,5.62,9.11,8.12Z"/>
  <path class="cls-3" d="M433.95,444.32c-1.01,0-1.82.81-1.82,1.8v134.77c0,.99.83,1.8,1.82,1.8h53.51c-.41-.86-.76-1.69-1.04-2.45.9.79,1.87,1.62,2.92,2.45,3.38,2.72,7.56,5.56,12.56,8.1.25.13.52.25.77.38,3.29,1.6,6.42,2.84,9.3,3.8,2.88-.95,6.01-2.18,9.3-3.8.25-.13.52-.25.77-.38,5-2.54,9.18-5.38,12.56-8.1,1.04-.83,2.02-1.66,2.92-2.45-.29.76-.63,1.57-1.04,2.45h53.57c1.01,0,1.82-.81,1.82-1.8v-134.77c0-.99-.83-1.8-1.82-1.8h-16.28v-8.1h20.64s0,0,0,0h-26.18c1,7.74,1.99,15.49,2.98,23.24,1.06,13.41-1.96,20.16-3.87,22.98,1.13.36,2.54.67,4.14.74,1.67.07,3.17-.11,4.43-.4.04,1.37-.18,4.19-2.18,6.77-1.89,2.41-4.41,3.42-6.33,3.82,3.74,4.97,7.49,9.95,11.19,14.92-2.18-.49-4.71-1.44-6.96-3.35-2.7-2.29-3.22-4.41-5.7-7.6-1.57-2.02-4.07-4.63-8.08-7.07,2.32.54,5.52.76,8.91-.52,2.18-.83,3.8-2.05,4.89-3.08-1.44.13-3.35.05-5.42-.7-2.18-.79-3.67-2.03-4.57-2.93,2.29-2.29,6.75-8.62,5.79-22.7-.7-5.35-1.4-10.69-2.09-16.04-.34-2.7-.7-5.4-1.04-8.1-.23-1.78-.47-3.58-.7-5.36l-7.59,5.36-11.46,8.1c-7.29,5.17-14.59,10.31-21.9,15.48,0-.54.04-1.15.18-1.82.14-.76.38-1.39.63-1.91-1.57-.07-3.56.02-5.78.52-1.03.23-1.94.52-2.79.85-1.15.45-2.12.92-2.93,1.37-.79-.45-1.78-.94-2.93-1.37-.85-.32-1.78-.61-2.79-.85-2.21-.5-4.19-.59-5.78-.52.23.52.47,1.17.63,1.91.14.67.18,1.28.18,1.82-7.29-5.17-14.59-10.31-21.9-15.48l-11.46-8.1-7.59-5.36c-.23,1.78-.47,3.58-.7,5.36-.34,2.7-.7,5.4-1.04,8.1-.7,5.35-1.4,10.69-2.09,16.04-.97,14.07,3.49,20.41,5.79,22.7-.88.9-2.39,2.14-4.57,2.93-2.07.76-3.98.83-5.42.7,1.1,1.04,2.72,2.25,4.89,3.08,3.38,1.28,6.59,1.04,8.91.52-4.01,2.45-6.51,5.08-8.08,7.07-2.48,3.19-3.01,5.31-5.7,7.6-2.25,1.91-4.79,2.86-6.96,3.35,3.74-4.97,7.49-9.95,11.23-14.92-1.93-.41-4.46-1.4-6.33-3.82-2-2.57-2.21-5.38-2.18-6.77,1.28.29,2.77.47,4.43.4,1.6-.07,3.01-.38,4.14-.74-1.91-2.83-4.93-9.57-3.87-22.98.99-7.75,1.99-15.49,2.98-23.24h-5.52v8.1h-16.28ZM459.92,569.64c-1.87.68-3.35,2.16-4.03,4.01l-.09.22-.09-.22c-.68-1.85-2.18-3.33-4.03-4.01l-.22-.09.22-.09c1.87-.68,3.35-2.16,4.03-4.01l.09-.22.09.22c.68,1.85,2.18,3.33,4.03,4.01l.22.09-.22.09ZM457.58,557.62c-.4,1.15-.7,2.38-.9,3.65-.86-.58-1.66-1.26-2.43-2.05-3.29-3.47-5.43-8.91-5.43-15.03,0-3.6.74-6.97,2.02-9.83,1.08-2.43,2.57-4.52,4.32-6.07-1.06,2.02-1.91,4.36-2.41,6.88-.38,1.89-.59,3.91-.59,5.99,0,5.33,1.35,10.2,3.56,13.88,1.3-2.68,3.17-4.9,5.38-6.37.14.85.2,1.73.2,2.63-1.57,1.71-2.86,3.87-3.71,6.32ZM505.51,583.82c-.49-.11-.95-.23-1.42-.34-.41-.11-.83-.23-1.24-.34-1.19-.36-2.38-.76-3.53-1.19-.88-.34-1.75-.7-2.63-1.1-3.33-1.51-6.42-3.38-9.21-5.58-1.35-1.06-2.63-2.2-3.83-3.4s-2.32-2.47-3.36-3.78c-.02-.02-.04-.04-.05-.07-3.98-5.11-6.69-11.09-7.7-17.57-.38,1.69-.58,3.44-.58,5.24,0,2.56.4,5,1.13,7.34,1.53,4.81,4.55,9.05,8.58,12.29.52,1.58,1.19,3.1,1.98,4.55-5.38-2.5-9.97-6.26-13.24-10.83-1.67-2.36-3.04-4.95-3.96-7.7-.97-2.9-1.51-5.98-1.51-9.16,0-7.43,2.9-14.27,7.7-19.62-2.66,4.41-4.17,9.47-4.17,14.87.97-2.38,2.29-4.61,3.83-6.66.97-1.3,2.07-2.52,3.24-3.65-.04.23-.07.47-.11.7,0,0,0,0,0,0h0c-.2,1.33-.31,2.7-.31,4.1,0,.56.02,1.13.05,1.69,0,.14.02.27.04.41.04-.04.07-.07.11-.11,1.37-1.19,2.88-2.23,4.52-3.1-1.44,2.79-2.25,5.9-2.25,9.18,0,1.6.2,3.17.56,4.68.32,1.31.76,2.57,1.33,3.8.05-.36.13-.7.22-1.06,1.03-4.57,3.63-8.62,7.31-11.64-.04.31-.09.61-.11.92h0s0,0,0,0c-.05.45-.09.9-.13,1.37-.05.85-.09,1.69-.09,2.56,0,2.62.28,5.17.8,7.65.05.24.11.49.16.73.13.57.28,1.14.44,1.71.03.09.05.19.08.28.74,2.52,1.74,4.94,2.98,7.24.32.59.65,1.17.99,1.75,1.85,3.04,4.1,5.85,6.73,8.35.54.52,1.08,1.03,1.66,1.51.83.72,1.69,1.4,2.61,2.07.47.34.95.68,1.44,1.01.23.16.49.32.72.49.17.1.33.2.49.3.16.1.32.2.48.3-.25-.05-.5-.11-.74-.16ZM511.97,585.67c-.92-1.03-1.75-2.11-2.52-3.26-2.45-3.67-4.08-7.94-4.66-12.53-.14-1.17-.22-2.36-.23-3.56.09.07.17.15.26.22,2.61,2.18,4.83,4.82,6.53,7.79-.01-.01-.03-.02-.04-.03,0,.01.01.02.02.03.22.4.43.77.65,1.19.2-.4.43-.79.65-1.19,1.28-2.2,2.83-4.23,4.6-6.02.31-.31.63-.62.95-.92.24-.22.47-.43.72-.64.17-.14.33-.28.5-.42,0,1.21-.07,2.39-.23,3.56-.58,4.59-2.21,8.85-4.66,12.53-.76,1.15-1.6,2.23-2.52,3.26ZM505.82,545.16c.63-1.89,3.13-3.33,6.17-3.38,3.04.05,5.52,1.49,6.17,3.38.04.11.07.22.09.34-.45-.58-3.06-1.04-6.26-1.06h-.22c-2.66,0-4.93.31-5.96.72ZM509.83,549.35h-.2c-1.13,0-2.05-.68-2.32-1.6,1.1.13,2.05.76,2.52,1.6ZM516.67,547.75c-.27.92-1.19,1.6-2.32,1.6h-.2c.47-.85,1.42-1.48,2.52-1.6ZM511.99,557.38c1.58.85,3.44,1.35,5.42,1.39h.14c-1.6.85-3.49,1.33-5.49,1.33h-.07c-1.98-.02-3.83-.49-5.42-1.33,1.98-.02,3.83-.52,5.42-1.39ZM557.53,561.32c-.92,2.75-2.29,5.35-3.96,7.7-3.27,4.57-7.85,8.33-13.24,10.83.77-1.46,1.44-2.97,1.98-4.55,4.03-3.24,7.05-7.49,8.58-12.29.74-2.34,1.13-4.79,1.13-7.34,0-1.8-.2-3.55-.58-5.24-1.01,6.48-3.72,12.45-7.7,17.57-.02.04-.04.05-.05.07-1.04,1.31-2.16,2.59-3.36,3.78-1.21,1.21-2.48,2.34-3.83,3.4-2.79,2.2-5.88,4.07-9.21,5.58-.86.4-1.73.76-2.63,1.1-1.15.43-2.34.83-3.53,1.19-.41.11-.83.23-1.24.34-.46.12-.91.23-1.39.33,0,0-.01,0-.02,0-.25.05-.5.11-.76.18,0,0,0,0,.01,0-.01,0-.02,0-.03,0,.32-.2.63-.4.94-.61.23-.16.49-.32.72-.49.49-.32.97-.67,1.44-1.01.9-.67,1.76-1.35,2.61-2.07.58-.49,1.12-.99,1.66-1.51,2.63-2.5,4.88-5.31,6.73-8.35.34-.58.67-1.15.99-1.75,2.86-5.31,4.46-11.28,4.46-17.6,0-.86-.04-1.71-.09-2.56-.04-.47-.07-.92-.13-1.37-.04-.31-.07-.61-.11-.92,3.67,3.02,6.28,7.07,7.31,11.64.09.36.16.7.22,1.06.58-1.22,1.01-2.48,1.33-3.8.36-1.51.56-3.08.56-4.68,0-3.28-.79-6.39-2.25-9.18,1.64.88,3.15,1.93,4.52,3.1l.11.11s0-.01,0-.02c-.02-.02-.04-.04-.06-.06.02.02.04.04.06.06.02-.14.03-.26.03-.4.04-.56.05-1.13.05-1.69,0-1.39-.11-2.75-.31-4.1-.04-.23-.07-.47-.11-.7,1.17,1.13,2.27,2.36,3.24,3.65,1.55,2.05,2.86,4.28,3.83,6.66,0-5.4-1.51-10.46-4.17-14.87,4.88,5.36,7.76,12.2,7.76,19.62,0,3.19-.54,6.26-1.51,9.16ZM572.31,569.64c-1.85.68-3.35,2.16-4.03,4.01l-.09.22-.09-.22c-.68-1.85-2.16-3.33-4.03-4.01l-.22-.09.22-.09c1.85-.68,3.35-2.16,4.03-4.01l.09-.22.09.22c.68,1.85,2.16,3.33,4.03,4.01l.22.09-.22.09ZM569.73,559.22c-.77.79-1.57,1.48-2.43,2.05-.2-1.28-.5-2.5-.9-3.65-.85-2.45-2.14-4.61-3.71-6.32,0-.9.05-1.78.2-2.63,2.21,1.48,4.08,3.69,5.38,6.37,2.21-3.67,3.56-8.55,3.56-13.88,0-2.09-.22-4.1-.59-5.99-.5-2.52-1.35-4.86-2.41-6.88,1.75,1.55,3.24,3.64,4.32,6.07,1.28,2.86,2.02,6.23,2.02,9.83,0,6.12-2.14,11.55-5.43,15.03ZM562.64,469.77c0,.52-.04,1.03-.09,1.53-.65,5.4-4.75,9.75-10.06,10.82.67-.7,1.3-1.46,1.89-2.23,3.67-4.77,5.92-10.67,6.14-17.08,1.35,1.98,2.12,4.39,2.12,6.97ZM535.96,468.38s0,0,0,0c.13-.66.32-1.33.55-2.01,1.87-5.44,6.1-8.08,10.29-11.64,3.31-2.81,7.81-7.2,12.36-13.84.58,2.16,1.01,5.15.5,8.57-.18,1.22-1.42,8.84-8.01,13.68-.77.58-1.53,1.03-2.2,1.39.09.18.22.36.36.56.04.04.05.07.09.09,0,0,0,.02.02.02.03.04.07.08.11.12.05.05.11.09.16.13.88-.09,1.82-.23,2.81-.45,1.01-.22,1.93-.49,2.79-.77-.2.32-.43.72-.74,1.15-.99,1.4-2.59,3.22-5.04,4.64-2.25,1.3-4.39,1.8-5.94,2,0,0,.02-.01.02-.02,0,0-.02,0-.02,0,.63-.58,1.3-1.22,1.96-1.96.7-.77,1.3-1.52,1.82-2.21-.68-.05-1.43-.05-2.25.11-.49.09-.92.22-1.31.36,0,0,0-.01,0-.02,0,0,0,0,0,0,.16-.54.36-1.12.59-1.71,0,0,0,0,0,0,.09-.23.19-.45.28-.7.31-.72.65-1.4.97-2.02,0-.02.02-.03.02-.04,0,0-.02.02-.02.03.23-.42.46-.81.68-1.18-2.61,1.51-5.64,3.74-8.44,6.94-1.08,1.24-1.98,2.47-2.75,3.64-.02-.34-.04-.7-.04-1.08-.02-1.12.07-2.4.35-3.75ZM464.77,440.81c4.55,6.64,9.07,11.03,12.36,13.84,4.19,3.56,8.42,6.21,10.29,11.64.23.68.43,1.37.56,2.03.3,1.38.38,2.66.37,3.78,0,.37-.02.73-.04,1.06-.76-1.17-1.67-2.39-2.75-3.64-2.81-3.2-5.85-5.44-8.46-6.95.23.38.47.77.7,1.21.32.61.67,1.28.97,2.02.11.25.2.49.29.72,0,0,0,0,0,0,.01,0,.02,0,.03.01.23.59.43,1.17.59,1.71-.4-.14-.83-.27-1.31-.36-.83-.16-1.58-.16-2.27-.11.52.7,1.13,1.46,1.84,2.23.63.7,1.27,1.33,1.89,1.91.01.01.03.02.04.04,0,0,0,0,0,0,0,0,.01.01.02.02-1.55-.2-3.69-.7-5.94-2-1.38-.8-2.49-1.72-3.37-2.62-.69-.71-1.25-1.41-1.69-2.04-.31-.43-.54-.81-.74-1.15.86.29,1.8.56,2.79.77.99.22,1.94.36,2.81.45h.04c.07-.07.16-.16.23-.25l.02-.02s.05-.07.09-.09c.14-.18.27-.38.36-.56-.67-.36-1.42-.83-2.2-1.39-6.59-4.84-7.83-12.45-8.03-13.71-.5-3.42-.07-6.41.5-8.57ZM461.41,471.3c-.05-.5-.09-1.01-.09-1.53,0-2.57.77-4.99,2.12-6.97.22,6.41,2.47,12.31,6.14,17.08.59.77,1.22,1.53,1.89,2.23-5.29-1.06-9.39-5.42-10.06-10.82ZM445.57,516.6c1.1-3.38,3.18-5.56,4.53-6.7,0,0-.63,1.67-.77,2.79-.14,1.1-.11,2.05,0,2.83,1.46-2.05,3.47-4.41,6.15-6.66,5.54-4.64,11.34-6.66,15.12-7.58-1.26-.34-2.88-.59-4.77-.5-3.54.18-6.26,1.58-7.92,2.7,2.2-2.41,5.9-5.69,11.35-7.78,4.23-1.62,8.06-1.96,10.78-1.96-1.78-.5-4.05-.94-6.68-.88-1.76.04-3.31.32-4.62.58,0,0,3.4-2.18,5.9-2.99,2.52-.81,4.8-1.03,6.53-1.03-1.37-.83-2.86-1.67-4.48-2.48-1.75-.88-3.44-1.64-5.02-2.27,1.82-.31,3.78-.58,5.88-.74,3.69-.29,7.05-.22,10,.04-.11-.07-4.26-2.79-6.69-4.16-2.99-1.67-5.83-3.04-8.48-4.18,0,0,8.85.23,14.43,2.74,2.72,1.22,4.91,2.66,6.62,4.01-.61-3.42-1.21-6.86-1.82-10.29,0,0,3.13,2.27,5.07,3.69h.02s-.03-.04-.05-.05c.18.11.32.23.49.34-.54-1.53-1.08-3.19-1.53-5-.45-1.71-.77-3.37-1.03-4.91.03.11.07.23.1.34-.02-.09-.03-.19-.05-.28-.18-1.08-.31-2.11-.41-3.1.99,1.15,2.39,2.5,4.25,3.71,1.78,1.15,2.88,1.44,4.46,2.29,1.71.9,3.96,2.41,6.3,5.13-.07-.74-.2-1.62-.47-2.56-.68-2.47-1.73-3.47-2.61-5.54-.49-1.15-1.01-2.83-1.12-5.09,1.06.7,2.29,1.66,3.49,2.95,1.73,1.87,2.79,3.8,3.47,5.36.67-1.57,1.75-3.49,3.47-5.36,1.19-1.3,2.41-2.25,3.49-2.95-.11,2.27-.63,3.94-1.12,5.09-.88,2.09-1.93,3.1-2.61,5.54-.27.94-.4,1.8-.47,2.56,2.34-2.72,4.61-4.23,6.3-5.13,1.6-.85,2.68-1.13,4.46-2.29,1.85-1.21,3.24-2.56,4.25-3.71-.11.97-.23,2.02-.41,3.1-.25,1.55-.59,3.2-1.03,4.91-.44,1.79-.97,3.43-1.51,4.94.13-.1.28-.21.44-.31-.05.05-.09.1-.14.15.05-.04.1-.07.15-.11,1.94-1.42,5.07-3.69,5.07-3.69-.61,3.42-1.21,6.86-1.82,10.29,1.71-1.35,3.9-2.81,6.62-4.01,5.58-2.5,14.43-2.74,14.43-2.74-2.65,1.13-5.49,2.5-8.48,4.18-2.43,1.35-6.59,4.09-6.69,4.16,2.95-.25,6.32-.32,10-.04,2.11.16,4.07.41,5.88.74-1.58.63-3.27,1.39-5.02,2.27-1.62.83-3.11,1.66-4.48,2.48,1.75,0,4.01.22,6.53,1.03,2.5.81,5.9,2.99,5.9,2.99-1.31-.27-2.86-.54-4.62-.58-2.63-.05-4.89.36-6.68.88,2.72-.02,6.55.34,10.78,1.96,5.45,2.09,9.16,5.36,11.35,7.78-1.66-1.12-4.37-2.52-7.92-2.7-1.89-.11-3.53.16-4.77.5,3.78.92,9.57,2.93,15.12,7.58,2.68,2.25,4.68,4.61,6.15,6.66.11-.79.14-1.75,0-2.83-.14-1.12-.77-2.79-.77-2.79,1.33,1.15,3.42,3.33,4.53,6.7,1.42,4.32.41,8.13-.29,10.08-.86-2.34-2.52-5.74-5.63-8.93-3.81-3.91-8.12-5.8-11.19-6.71,1.67,1.13,3.69,2.84,5.47,5.35,2.18,3.06,3.11,6.08,3.54,8.1-.99-1.15-2.27-2.45-3.92-3.69-1.03-.76-2.02-1.39-2.95-1.89-.05-.03-.09-.05-.14-.07.03.02.06.04.08.06-.61-.33-1.19-.62-1.75-.87.7.63,1.5,1.63,1.89,3.05.31,1.13.25,2.14.11,2.88.05.09.13.18.18.27,1.13,1.75,2.23,3.89,3.06,6.44,2.03,6.32,1.28,11.93.47,15.28-.02.05-.04.13-.05.18,0-.01-.01-.03-.02-.04,0,.02-.01.04-.02.06-1.3-2.65-3.58-6.43-7.45-10.04-3.72-3.47-7.5-5.47-10.18-6.61.02,0,.03,0,.05-.01,0,0-.01,0-.02,0,.09-.02.16-.04.25-.05,2.05-.49,4.62-.86,7.58-.77,2.38.07,4.44.43,6.12.86-1.22-2.03-4.41-6.34-10.31-8.3-4.8-1.58-9.03-.85-11.35-.18,1.73.09,3.94.41,6.37,1.35,1.03.4,1.93.85,2.74,1.3.72.4,1.35.81,1.89,1.21-.03,0-.06,0-.1-.01.01,0,.03.02.04.03-3.07-.37-7.61-.16-12.52,1.92-.51.22-1.02.45-1.53.71-5.97,3.01-9.14,9.32-9.14,9.32,0,0,0-.02-.02-.05-.02.05-.04.07-.04.07,0,0-4.05-11.73-4.55-16.56.02,0,.04,0,.05-.01,0,0,0,0,0,0,.56-.11,1.17-.23,1.82-.41,2.43-.66,4.38-1.59,5.78-2.39.84-.48,1.47-.92,1.89-1.23,1.35-.95,2.72-1.94,4.03-3.71,1.26-1.67,1.06-2.2,2.66-4.39.86-1.21,1.8-2.47,3.4-3.67.31-.23,1.57-1.15,3.44-1.91.18-.07.36-.14.53-.2.53-.2,1.03-.35,1.49-.46.11-.02.22-.05.31-.07-2.05-.43-4.79-.77-8.01-.5-1.06.09-4.59.45-8.75,2.25-1.55.67-2.83,1.39-3.81,2,.83-1.06,1.94-2.27,3.38-3.42.7-.58,2.48-1.94,5.11-3.1,1.37-.61,2.65-1.01,3.71-1.28-.5-.05-1.06-.07-1.69-.07-1.24.02-4.97.09-8.71,2.38-.2.11-.49.29-.85.54-.05.03-.09.06-.14.1.03-.01.07-.03.1-.04-.9.63-2.21,1.67-3.42,3.22-.33.43-.61.84-.84,1.22-.64,1.03-1.01,1.9-1.59,2.66-.36.48-.8.92-1.43,1.33-.59.4-2.03,1.31-3.58.94-2.21-.54-3.09-3.33-3.35-4.1-.76-2.41-.18-4.57.36-6.59.09-.31.18-.61.27-.9,0,.05-.02.1-.03.15.02-.07.04-.14.06-.2.27-.86.58-1.64.88-2.27-1.71,2.09-4.5,6.28-3.81,10.82.05.31.11.68.2,1.12.29,1.39.92,3.24,2.61,4.52.52.38,1.03.65,1.49.83l.84,16.07.05-.14c.19-.39.4-.79.66-1.21.39-.66.85-1.35,1.41-2.05.38-.47.76-.88,1.13-1.26.18.81.38,1.73.63,2.75.16.67.52,2.14.97,3.74.18.59.95,3.31,2.54,7.33,1.73,4.41,1.93,4.05,2.16,5.44.13.72.38,2.21.09,4-.16,1.06-.52,2.21-1.22,3.37-.31.5-2.39,3.82-6.59,4.5-.41.07-3.98.59-6.96-1.64-.43-.32-.77-.67-1.04-.94.79-.27,1.76-.67,2.79-1.3.72-.43,1.55-.94,2.39-1.85.56-.59,1.91-2.05,2.14-4.34.05-.58.27-2.56-.99-4.28-1.28-1.76-3.27-2.18-4.68-2.47-.65-.14-1.31-.23-1.93-.27l-.02.04c-.27-.04-.63-.07-1.04-.07s-.77.04-1.04.07l-.02-.04c-.59.05-1.26.13-1.93.27-1.4.29-3.4.7-4.68,2.47-1.26,1.73-1.04,3.71-.99,4.28.23,2.27,1.58,3.73,2.14,4.34.83.92,1.67,1.42,2.39,1.85,1.03.63,2,1.03,2.79,1.3-.25.29-.61.61-1.04.94-2.99,2.23-6.55,1.71-6.96,1.64-4.19-.67-6.28-4-6.59-4.5-.68-1.15-1.06-2.3-1.22-3.37,0-.01,0-.02,0-.03-.02.03-.05.06-.07.09-.29-1.78-.04-3.28.09-4,.23-1.39.43-1.03,2.16-5.44,1.58-4.01,2.36-6.73,2.54-7.33.45-1.6.81-3.08.97-3.74.25-1.03.45-1.94.63-2.75.02.02.03.03.05.05,0-.03.02-.07.02-.1.38.38.76.79,1.13,1.26.9,1.12,1.57,2.21,2.03,3.19l.03.08.83-15.88s.05-.02.07-.03v-.02c.35-.13.73-.32,1.11-.56,0,0,0,0,.01,0,.11-.07.22-.15.33-.23,1.66-1.28,2.29-3.11,2.57-4.49,0,.07,0,.14.01.21.02-.09.04-.18.06-.27.09-.43.14-.81.2-1.12.68-4.55-2.11-8.73-3.81-10.82.31.65.61,1.4.9,2.27.09.29.18.59.27.9.54,2.02,1.12,4.18.36,6.59-.11.33-.33,1.02-.72,1.75-.52,1.01-1.37,2.11-2.68,2.42-1.55.38-2.99-.56-3.58-.94-2.02-1.3-2.05-2.86-3.87-5.2-1.21-1.55-2.5-2.59-3.42-3.22.12.05.25.1.37.16-.11-.08-.22-.16-.32-.23-.34-.25-.65-.43-.85-.56-3.74-2.29-7.47-2.36-8.71-2.38-.63,0-1.19.04-1.69.07,1.06.27,2.34.67,3.71,1.28,2.63,1.17,4.41,2.54,5.11,3.1,1.42,1.17,2.54,2.36,3.38,3.42-.99-.63-2.27-1.33-3.81-2-4.17-1.8-7.68-2.16-8.75-2.25-3.2-.27-5.96.07-8.01.5.11.02.2.05.31.07.59.16,1.26.36,1.96.65,1.87.76,3.13,1.67,3.44,1.91,1.6,1.21,2.54,2.47,3.4,3.67,1.6,2.2,1.4,2.72,2.66,4.39,1.31,1.76,2.68,2.75,4.03,3.71,1.12.81,3.8,2.59,7.72,3.64.65.18,1.26.31,1.82.41-.4,3.86-3.08,12.17-4.13,15.31-.27.81-.44,1.3-.44,1.3,0,0-3.17-6.32-9.14-9.32-5.51-2.77-10.71-3.08-14.11-2.65.03-.02.06-.04.09-.06-.02,0-.05,0-.07,0,.56-.4,1.19-.81,1.89-1.21.81-.45,1.71-.9,2.74-1.3,2.43-.94,4.66-1.26,6.37-1.35-2.34-.67-6.57-1.4-11.35.18-5.9,1.96-9.07,6.26-10.31,8.3,1.67-.43,3.74-.79,6.12-.86,2.95-.09,5.52.29,7.58.77.09.02.16.04.25.05-2.68,1.13-6.46,3.13-10.18,6.61-3.87,3.62-6.15,7.4-7.45,10.04,0-.02-.02-.05-.02-.08-.02.03-.03.07-.05.1-.02-.05-.04-.13-.05-.18.01-.05.03-.11.04-.16-.81-3.36-1.5-8.91.5-15.14.83-2.56,1.93-4.7,3.06-6.44,0,0,.01-.02.02-.02-.02.02-.04.04-.05.06.05-.09.13-.18.18-.27-.14-.74-.2-1.75.11-2.88.35-1.26,1.02-2.19,1.66-2.83.08-.08.16-.16.24-.23-.57.25-1.19.54-1.81.9.03-.02.07-.05.11-.07-.02.01-.05.02-.07.04-.94.5-1.93,1.13-2.93,1.89-1.66,1.24-2.93,2.54-3.92,3.69.43-2.03,1.37-5.04,3.54-8.1,1.78-2.5,3.8-4.21,5.47-5.35-3.09.94-7.4,2.81-11.19,6.71-3.11,3.19-4.75,6.57-5.63,8.93-.76-1.94-1.76-5.74-.34-10.06ZM525.92,512.87c1.35-1.35,3.38-3.04,6.17-4.39,2.02-.99,3.89-1.53,5.4-1.84-.14,1.06-.59,2.93-2.09,4.64-.56.63-2.34,2.63-5.25,2.79-1.76.09-3.2-.54-4.23-1.21ZM498.06,512.87c-1.03.67-2.47,1.3-4.23,1.21-2.92-.16-4.7-2.16-5.25-2.79-1.49-1.71-1.94-3.58-2.09-4.64,1.51.31,3.38.85,5.4,1.84,2.79,1.35,4.82,3.04,6.17,4.39Z"/>
  <rect class="cls-3" x="511.99" y="399.08" width="0" height="74.28" transform="translate(-158.49 489.87) rotate(-45.01)"/>
  <path class="cls-3" d="M505.59,452.72c2.59.41,4.75,1.15,6.41,1.87,1.64-.72,3.8-1.46,6.41-1.87,2.81-.45,5.31-.38,7.31-.14l11.82-8.24h-51.07l11.82,8.24c2-.23,4.5-.31,7.31.14Z"/>
  <path class="cls-5" d="M511.99,560.1h.07c2,0,3.89-.49,5.49-1.33h-.14c-1.98-.04-3.83-.54-5.42-1.39-1.58.86-3.44,1.37-5.42,1.39,1.58.85,3.44,1.31,5.42,1.33Z"/>
  <path class="cls-1" d="M511.99,544.44c3.2.02,5.81.49,6.26,1.06-.02-.13-.05-.23-.09-.34-.65-1.89-3.13-3.33-6.17-3.38-3.04.05-5.54,1.49-6.17,3.38,1.03-.41,3.29-.72,5.96-.72h.22Z"/>
  <path class="cls-1" d="M509.63,549.35h.2c-.47-.85-1.42-1.48-2.52-1.6.27.92,1.19,1.6,2.32,1.6Z"/>
  <path class="cls-1" d="M514.35,549.35c1.13,0,2.05-.68,2.32-1.6-1.1.13-2.05.76-2.52,1.6h.2Z"/>
  <path class="cls-2" d="M487.64,558.99c.13.57.28,1.14.44,1.71-.16-.56-.31-1.13-.44-1.71Z"/>
  <path class="cls-2" d="M486.4,561.83c-1.42-6.16-.54-11.55.49-15.14h0c.02-.31.07-.61.11-.92-3.67,3.02-6.28,7.07-7.31,11.64-.09.36-.16.7-.22,1.06-.58-1.22-1.01-2.48-1.33-3.8-.36-1.51-.56-3.08-.56-4.68,0-3.28.81-6.39,2.25-9.18-1.64.86-3.15,1.91-4.52,3.1-.04.04-.07.07-.11.11h0s.07-.07.11-.11c-.63.63-1.3,1.33-1.94,2.11-.74.88-1.37,1.75-1.93,2.59-.09-1.4.02-3.04.52-4.81.79-2.77,2.25-4.75,3.45-5.99,0,0,0,0,0,0,.04-.23.07-.47.11-.7-1.17,1.13-2.27,2.36-3.24,3.65-1.55,2.05-2.86,4.28-3.83,6.66,0-5.4,1.51-10.46,4.17-14.87-4.8,5.35-7.7,12.18-7.7,19.62,0,3.19.54,6.26,1.51,9.16.92,2.75,2.29,5.35,3.96,7.7,3.27,4.57,7.86,8.33,13.24,10.83-.79-1.46-1.46-2.97-1.98-4.55-4.03-3.24-7.05-7.49-8.58-12.29-.74-2.34-1.13-4.79-1.13-7.34,0-1.8.2-3.55.58-5.24,1.01,6.48,3.72,12.45,7.7,17.57.02.04.04.05.05.07,1.04,1.31,2.16,2.57,3.36,3.78s2.48,2.34,3.83,3.4c2.79,2.2,5.88,4.07,9.21,5.58.88.4,1.75.76,2.63,1.1,1.15.43,2.34.83,3.53,1.19.41.11.83.23,1.24.34.47.11.94.23,1.42.34-3.29-1.48-15.87-7.96-19.11-21.99Z"/>
  <path class="cls-2" d="M487.48,558.26c-.52-2.48-.8-5.03-.8-7.65h0c0,2.62.28,5.17.8,7.65Z"/>
  <path class="cls-2" d="M492.13,569.96c1.85,3.04,4.1,5.85,6.73,8.35.54.52,1.08,1.03,1.66,1.51.83.72,1.69,1.4,2.61,2.07.47.34.95.68,1.44,1.01.23.16.49.32.72.49.17.1.33.2.49.3-.16-.1-.32-.2-.49-.3-.23-.16-.49-.32-.72-.49-.49-.32-.97-.67-1.44-1.01-.92-.67-1.78-1.35-2.61-2.07-.58-.49-1.12-.99-1.66-1.51-2.63-2.5-4.88-5.31-6.73-8.35-.34-.58-.67-1.15-.99-1.75-1.24-2.3-2.24-4.72-2.98-7.24.74,2.52,1.74,4.94,2.98,7.24.32.59.65,1.17.99,1.75Z"/>
  <path class="cls-2" d="M455.71,555.04c-2.21-3.67-3.56-8.55-3.56-13.88,0-2.09.22-4.1.59-5.99.5-2.52,1.35-4.86,2.41-6.88-1.75,1.55-3.24,3.64-4.32,6.07-1.28,2.86-2.02,6.23-2.02,9.83,0,6.12,2.14,11.55,5.43,15.03.77.79,1.57,1.48,2.43,2.05.2-1.28.5-2.5.9-3.65.85-2.45,2.14-4.61,3.71-6.32,0-.9-.05-1.78-.2-2.63-2.21,1.48-4.08,3.69-5.38,6.37Z"/>
  <path class="cls-2" d="M514.92,572.43c-.86.63-1.62,1.28-2.29,1.89,1.27-2.19,2.81-4.21,4.58-6-1.77,1.79-3.31,3.82-4.6,6.02-.22.4-.45.79-.65,1.19-.22-.41-.43-.79-.65-1.19,0-.01-.01-.02-.02-.03-.66-.6-1.42-1.24-2.26-1.86-1.49-1.1-2.95-1.93-4.23-2.54-.14-1.17-.22-2.36-.23-3.56.08.07.16.13.24.2-.09-.07-.17-.15-.26-.22.02,1.21.09,2.39.23,3.56.58,4.59,2.21,8.85,4.66,12.53.77,1.15,1.6,2.23,2.52,3.26.92-1.03,1.76-2.11,2.52-3.26,2.45-3.67,4.08-7.94,4.66-12.53-1.28.61-2.74,1.44-4.23,2.54Z"/>
  <path class="cls-2" d="M518.17,567.39c.24-.22.47-.43.72-.64-.24.21-.48.43-.72.64Z"/>
  <path class="cls-2" d="M555.46,547.41c-.97-2.38-2.29-4.61-3.83-6.66-.97-1.3-2.07-2.52-3.24-3.65.04.23.07.47.11.7.2,1.35.31,2.72.31,4.1,0,.56-.02,1.13-.05,1.69,0,.14-.02.26-.03.4.02.02.03.03.05.05.02-.14.04-.27.04-.41.04-.56.05-1.13.05-1.69,0-1.39-.11-2.75-.31-4.1,1.19,1.26,2.66,3.24,3.45,5.99.5,1.75.61,3.38.52,4.81-.56-.85-1.21-1.71-1.93-2.59-.61-.73-1.22-1.4-1.84-2-.02-.02-.03-.04-.05-.05,0,0,0,.01,0,.02l-.11-.11c-1.37-1.17-2.88-2.21-4.52-3.1,1.46,2.79,2.25,5.9,2.25,9.18,0,1.6-.2,3.17-.56,4.68-.32,1.31-.76,2.57-1.33,3.8-.05-.36-.13-.7-.22-1.06-1.03-4.57-3.63-8.62-7.31-11.64.04.31.07.61.11.92.05.45.09.9.13,1.37.05.85.09,1.69.09,2.56,0,6.32-1.6,12.29-4.46,17.6-.32.59-.65,1.17-.99,1.75-1.85,3.04-4.1,5.85-6.73,8.35-.54.52-1.08,1.03-1.66,1.51-.85.72-1.71,1.4-2.61,2.07-.47.34-.95.68-1.44,1.01-.23.16-.49.32-.72.49-.31.22-.61.41-.94.61.01,0,.02,0,.03,0,.32-.2.62-.39.92-.6.23-.16.49-.32.72-.49.49-.32.97-.67,1.44-1.01.9-.67,1.76-1.35,2.61-2.07.58-.49,1.12-.99,1.66-1.51,2.63-2.5,4.88-5.31,6.73-8.35.34-.58.67-1.15.99-1.75,2.86-5.31,4.46-11.28,4.46-17.6,0-.86-.04-1.71-.09-2.56-.04-.47-.07-.92-.13-1.37,1.06,3.6,1.94,8.98.52,15.14-3.23,14.03-15.77,20.49-19.07,21.98.47-.11.93-.21,1.39-.33.41-.11.83-.23,1.24-.34,1.19-.36,2.38-.76,3.53-1.19.9-.34,1.76-.7,2.63-1.1,3.33-1.51,6.42-3.38,9.21-5.58,1.35-1.06,2.63-2.2,3.83-3.4,1.21-1.19,2.32-2.47,3.36-3.78.02-.02.04-.04.05-.07,3.98-5.11,6.69-11.09,7.7-17.57.38,1.69.58,3.44.58,5.24,0,2.56-.4,5-1.13,7.34-1.53,4.81-4.55,9.05-8.58,12.29-.54,1.58-1.21,3.1-1.98,4.55,5.4-2.5,9.97-6.26,13.24-10.83,1.67-2.36,3.04-4.95,3.96-7.7.97-2.9,1.51-5.98,1.51-9.16,0-7.42-2.88-14.25-7.76-19.62,2.66,4.41,4.17,9.47,4.17,14.87Z"/>
  <path class="cls-2" d="M568.83,528.3c1.06,2.02,1.91,4.36,2.41,6.88.38,1.89.59,3.91.59,5.99,0,5.33-1.35,10.2-3.56,13.88-1.3-2.68-3.17-4.9-5.38-6.37-.14.85-.2,1.73-.2,2.63,1.57,1.71,2.86,3.87,3.71,6.32.4,1.15.7,2.38.9,3.65.86-.58,1.66-1.26,2.43-2.05,3.29-3.47,5.43-8.91,5.43-15.03,0-3.6-.74-6.97-2.02-9.83-1.08-2.43-2.57-4.52-4.32-6.07Z"/>
  <path class="cls-2" d="M455.89,565.44l-.09-.22-.09.22c-.68,1.85-2.16,3.33-4.03,4.01l-.22.09.22.09c1.85.68,3.35,2.16,4.03,4.01l.09.22.09-.22c.68-1.85,2.16-3.33,4.03-4.01l.22-.09-.22-.09c-1.85-.68-3.35-2.16-4.03-4.01Z"/>
  <path class="cls-2" d="M568.28,565.44l-.09-.22-.09.22c-.68,1.85-2.18,3.33-4.03,4.01l-.22.09.22.09c1.87.68,3.35,2.16,4.03,4.01l.09.22.09-.22c.68-1.85,2.18-3.33,4.03-4.01l.22-.09-.22-.09c-1.87-.68-3.35-2.16-4.03-4.01Z"/>
  <path class="cls-2" d="M469.56,479.88c.61.77,1.24,1.53,1.91,2.23-.67-.7-1.3-1.46-1.89-2.23-3.67-4.77-5.92-10.67-6.14-17.08-1.35,1.98-2.12,4.39-2.12,6.97,0,.52.04,1.03.09,1.53.58,1.28,1.48,2.92,2.92,4.55,1.8,2.02,3.74,3.28,5.24,4.03Z"/>
  <path class="cls-2" d="M559.62,475.85c1.46-1.62,2.36-3.26,2.93-4.55.05-.5.09-1.01.09-1.53,0-2.57-.77-4.99-2.12-6.97-.22,6.41-2.47,12.31-6.14,17.08,1.49-.76,3.44-2.02,5.24-4.03Z"/>
  <path class="cls-2" d="M486.49,506.65c.14,1.06.59,2.93,2.09,4.64.56.63,2.34,2.63,5.25,2.79,1.76.09,3.2-.54,4.23-1.21-1.35-1.35-3.38-3.04-6.17-4.39-2.02-.99-3.89-1.53-5.4-1.84Z"/>
  <path class="cls-2" d="M530.15,514.08c2.92-.16,4.7-2.16,5.25-2.79,1.49-1.71,1.94-3.58,2.09-4.64-1.51.31-3.38.85-5.4,1.84-2.79,1.35-4.82,3.04-6.17,4.39,1.03.67,2.47,1.3,4.23,1.21Z"/>
  <path class="cls-2" d="M472.3,463.09c.77.56,1.53,1.03,2.2,1.39-.09.18-.22.38-.36.56-.04.02-.05.05-.09.09l-.02.02c-.07.09-.16.18-.23.25h-.04c-.86-.09-1.82-.23-2.81-.45-.99-.22-1.93-.49-2.79-.77.2.34.43.72.74,1.15.44.63.99,1.33,1.69,2.04-.69-.7-1.24-1.4-1.67-2.02,1.01.74,2.47,1.53,4.34,1.75.79.09,1.51.05,2.14-.02-.25-.36-.67-.81-1.26-1.19-.18-.11-.38-.22-.56-.29.07-.05.14-.09.22-.16.09-.07.18-.14.27-.23l.02-.02s.02-.02.04-.02c.2-.22.34-.43.45-.63.72.41,1.51.81,2.39,1.21.73.32,1.43.58,2.11.8,0,0,0,0,0,0-.09-.23-.18-.47-.29-.72-.31-.74-.65-1.4-.97-2.02-.92-.95-1.87-2.16-2.63-3.65-.41-.81-.72-1.58-.95-2.3.94.74,2.12,1.64,3.51,2.61,3.44,2.38,4.86,2.88,6.95,4.57.95.77,2.12,1.85,3.31,3.35.3,1.35.38,2.63.37,3.75.01-1.12-.07-2.4-.37-3.78-.13-.67-.32-1.35-.56-2.03-1.87-5.44-6.1-8.08-10.29-11.64-3.29-2.81-7.81-7.2-12.36-13.84-.58,2.16-1.01,5.15-.5,8.57.2,1.26,1.44,8.87,8.03,13.71Z"/>
  <path class="cls-2" d="M479.87,471.96s-.03-.02-.04-.04c.01.01.03.02.04.04,0,0,0,0,0,0Z"/>
  <path class="cls-2" d="M535.65,473.21c.77-1.17,1.67-2.39,2.75-3.64,2.8-3.2,5.83-5.43,8.44-6.94,0,0,.01-.02.02-.03-2.61,1.51-5.65,3.74-8.46,6.95-1.08,1.24-1.98,2.47-2.75,3.64-.02-.33-.04-.69-.04-1.06,0,.38.02.74.04,1.08Z"/>
  <path class="cls-2" d="M539.27,465.03c2.09-1.67,3.51-2.2,6.95-4.57,1.4-.97,2.59-1.87,3.53-2.61-.23.72-.54,1.49-.95,2.3-.77,1.48-1.69,2.68-2.6,3.63,0,.01-.02.03-.02.04-.32.61-.67,1.3-.97,2.02-.09.24-.19.47-.28.7.68-.22,1.4-.48,2.13-.81.88-.38,1.67-.79,2.39-1.21.11.2.25.41.45.63.02,0,.02.02.04.02,0,0,0,.02.02.02.04.04.07.07.11.1-.04-.04-.08-.08-.11-.12-.02,0-.02-.02-.02-.02-.04-.02-.05-.05-.09-.09-.14-.2-.27-.38-.36-.56.67-.36,1.42-.81,2.2-1.39,6.59-4.84,7.83-12.45,8.01-13.68.5-3.42.07-6.41-.5-8.57-4.55,6.64-9.05,11.03-12.36,13.84-4.19,3.56-8.42,6.21-10.29,11.64-.23.68-.43,1.35-.55,2.01,1.2-1.49,2.35-2.57,3.31-3.34Z"/>
  <path class="cls-2" d="M545.62,467.9c-.48.09-.91.21-1.31.36,0,0,0,.01,0,.02.4-.14.83-.27,1.31-.36.82-.16,1.57-.16,2.25-.11,0,0,0-.01.01-.02-.68-.05-1.44-.05-2.27.11Z"/>
  <path class="cls-2" d="M550.43,465.59c-.18.07-.36.18-.56.29-.59.38-1.01.83-1.26,1.19.61.07,1.33.11,2.14.02,1.85-.22,3.31-1.01,4.32-1.75-.99,1.4-2.59,3.22-5.04,4.64-2.24,1.29-4.37,1.79-5.92,1.99,0,0-.02.01-.02.02,1.55-.2,3.69-.7,5.94-2,2.45-1.42,4.05-3.24,5.04-4.64.31-.43.54-.83.74-1.15-.86.29-1.78.56-2.79.77-.99.22-1.93.36-2.81.45h0c.07.05.14.11.22.16Z"/>
  <path class="cls-4" d="M567.39,493.36c1.93-.4,4.44-1.4,6.33-3.82,2-2.57,2.21-5.4,2.18-6.77-1.26.29-2.75.47-4.43.4-1.6-.07-3.01-.38-4.14-.74,1.91-2.83,4.93-9.57,3.87-22.98-.99-7.75-1.99-15.49-2.98-23.24-.52-4.07-1.05-8.14-1.57-12.22l-17.53,12.22h0s-74.28,0-74.28,0h0s-17.53-12.22-17.53-12.22c-.52,4.08-1.05,8.15-1.57,12.22-1,7.74-1.99,15.49-2.98,23.24-1.06,13.41,1.96,20.16,3.87,22.98-1.13.36-2.54.67-4.14.74-1.66.07-3.15-.11-4.43-.4-.04,1.39.18,4.19,2.18,6.77,1.87,2.41,4.41,3.4,6.33,3.82-3.74,4.97-7.49,9.95-11.23,14.92,2.18-.49,4.71-1.44,6.96-3.35,2.7-2.29,3.22-4.41,5.7-7.6,1.57-2,4.07-4.63,8.08-7.07-2.32.52-5.52.76-8.91-.52-2.18-.83-3.8-2.03-4.89-3.08,1.44.13,3.35.05,5.42-.7,2.18-.79,3.69-2.03,4.57-2.93-2.3-2.29-6.77-8.62-5.79-22.7.68-5.35,1.39-10.69,2.09-16.04.34-2.7.7-5.4,1.04-8.1.23-1.78.47-3.58.7-5.36l7.59,5.36,11.46,8.1c7.31,5.17,14.61,10.31,21.9,15.48,0-.54-.04-1.15-.18-1.82-.16-.74-.4-1.39-.63-1.91,1.58-.07,3.56.02,5.78.52,1.01.23,1.94.52,2.79.85,1.15.43,2.14.92,2.93,1.37.81-.45,1.78-.92,2.93-1.37.85-.32,1.76-.61,2.79-.85,2.21-.5,4.21-.59,5.78-.52-.25.52-.49,1.15-.63,1.91-.14.67-.18,1.28-.18,1.82,7.31-5.17,14.61-10.31,21.9-15.48l11.46-8.1,7.59-5.36c.23,1.78.47,3.58.7,5.36.34,2.7.7,5.4,1.04,8.1.68,5.35,1.39,10.69,2.09,16.04.95,14.07-3.51,20.41-5.79,22.7.9.9,2.39,2.14,4.57,2.93,2.07.76,3.98.83,5.42.7-1.1,1.03-2.72,2.25-4.89,3.08-3.38,1.28-6.59,1.06-8.91.52,4.01,2.45,6.51,5.06,8.08,7.07,2.48,3.19,3.01,5.31,5.7,7.6,2.25,1.91,4.79,2.86,6.96,3.35-3.71-4.97-7.45-9.95-11.19-14.92ZM525.7,452.58c-2-.23-4.5-.31-7.31.14-2.61.41-4.77,1.15-6.41,1.87-1.66-.72-3.81-1.46-6.41-1.87-2.81-.45-5.31-.38-7.31-.14l-11.82-8.24h51.07l-11.82,8.24Z"/>
  <path class="cls-4" d="M598.16,436.22h-24.4v8.1h16.28c.99,0,1.82.81,1.82,1.8v134.77c0,.99-.81,1.8-1.82,1.8h-53.57c.41-.88.76-1.69,1.04-2.45-.9.79-1.87,1.62-2.92,2.45-3.38,2.72-7.56,5.56-12.56,8.1-.25.13-.52.25-.77.38-3.29,1.62-6.42,2.84-9.3,3.8-2.88-.95-6.01-2.2-9.3-3.8-.25-.13-.52-.25-.77-.38-5-2.54-9.18-5.38-12.56-8.1-1.04-.83-2.02-1.66-2.92-2.45.29.76.63,1.58,1.04,2.45h-53.51c-.99,0-1.82-.81-1.82-1.8v-134.77c0-.99.81-1.8,1.82-1.8h16.28v-8.1h-24.42c-.99,0-1.82.81-1.82,1.8v150.95c0,.99.81,1.8,1.82,1.8h67.3c4.79,4.91,10.42,7.31,15.03,8.48,1.39.36,2.7.59,3.85.76,1.15-.16,2.45-.41,3.85-.76,4.61-1.17,10.26-3.56,15.03-8.48h67.32c.99,0,1.82-.81,1.82-1.8v-150.95c-.02-.99-.83-1.8-1.84-1.8Z"/>
  <path class="cls-4" d="M462.36,518.02c-.08.07-.16.15-.24.23.08-.08.17-.16.25-.23,0,0,0,0,0,0Z"/>
  <path class="cls-4" d="M506.83,512.61c-.11.08-.22.16-.33.23.1-.06.2-.13.3-.2.01,0,.02-.02.04-.03Z"/>
  <path class="cls-4" d="M445.92,526.66c.88-2.36,2.52-5.74,5.63-8.93,3.8-3.91,8.1-5.78,11.19-6.71-1.67,1.13-3.69,2.84-5.47,5.35-2.18,3.06-3.11,6.07-3.54,8.1.99-1.15,2.27-2.45,3.92-3.69,1.01-.76,2-1.39,2.93-1.89.02-.01.05-.02.07-.04,1.61-1.11,4.16-2.51,7.56-3.04,2.99-.5,5.63-.14,7.72.43-2.16.16-5.11.7-8.28,2.23-3.56,1.71-5.97,4-7.43,5.7,0,0-.01.02-.02.02-1.13,1.75-2.23,3.89-3.06,6.44-2.01,6.23-1.32,11.78-.5,15.14.76-3.12,2.48-7.44,6.46-11.05,3.94-3.58,8.3-4.86,10.94-5.33.09.04.18.05.25.07-2.68,1.13-6.46,3.13-10.18,6.61-3.82,3.57-6.1,7.31-7.4,9.95,0,.03.02.06.02.08,1.3-2.65,3.58-6.43,7.45-10.04,3.72-3.47,7.5-5.47,10.18-6.61-.09-.02-.16-.04-.25-.05-2.05-.49-4.62-.86-7.58-.77-2.38.07-4.44.43-6.12.86,1.24-2.03,4.41-6.34,10.31-8.3,4.79-1.58,9.02-.85,11.35-.18-1.71.09-3.94.41-6.37,1.35-1.03.4-1.93.85-2.74,1.3-.7.4-1.33.81-1.89,1.21.02,0,.05,0,.07,0,.52-.38,1.12-.77,1.8-1.14,3.38-.41,8.15-.34,13.1,1.96,3.62,1.69,6.12,4,7.68,5.76-.32-1.17-.86-2.52-1.82-3.87-.85-1.19-1.76-2.07-2.56-2.68,1.06.25,2.23.59,3.47,1.12,1.08.45,2.03.95,2.84,1.44-1.15-3.28-2.81-5.15-4.16-6.26-2.5-2.05-4.44-1.96-7.43-4.84-1.91-1.84-1.8-2.54-3.47-4.18-1.3-1.26-2.95-2.39-5.11-3.24.81-.22,1.71-.38,2.7-.45.56-.04,1.1-.05,1.6-.04-.58-.54-1.33-1.17-2.25-1.78-.92-.63-2.02-1.24-3.29-1.78-1.85-.77-3.56-1.15-4.93-1.31.76-.34,1.57-.68,2.47-.99.7-.23,1.39-.43,2.03-.59.59.14,1.26.36,1.96.65,1.87.76,3.13,1.67,3.44,1.91,1.62,1.21,2.54,2.47,3.4,3.67,1.6,2.21,1.4,2.72,2.66,4.39,1.31,1.76,2.7,2.74,4.03,3.71,1.12.79,3.8,2.57,7.72,3.64.65.14,1.26.29,1.82.4-.4,3.84-3.05,12.07-4.11,15.26,1.05-3.15,3.73-11.45,4.13-15.31-.56-.11-1.17-.23-1.82-.41-3.92-1.04-6.6-2.83-7.72-3.64-1.35-.95-2.72-1.94-4.03-3.71-1.26-1.67-1.06-2.2-2.66-4.39-.86-1.21-1.8-2.47-3.4-3.67-.31-.23-1.57-1.15-3.44-1.91-.7-.29-1.37-.49-1.96-.65-.11-.02-.2-.05-.31-.07,2.05-.43,4.8-.77,8.01-.5,1.06.09,4.57.45,8.75,2.25,1.55.67,2.83,1.37,3.81,2-.85-1.06-1.96-2.25-3.38-3.42-.7-.56-2.48-1.93-5.11-3.1-1.37-.61-2.65-1.01-3.71-1.28.5-.04,1.06-.07,1.69-.07,1.24.02,4.97.09,8.71,2.38.2.13.5.31.85.56.1.07.21.15.32.23,1.56.66,3.36,1.57,5.22,2.85,1.98,1.37,3.53,2.81,4.75,4.12.97-.85,1.91-1.96,2.56-3.42,1.01-2.25.95-4.37.67-5.94.09.29.18.59.27.9.56,2.02,1.13,4.16.38,6.59-.1.32-.3.98-.66,1.68.39-.73.61-1.42.72-1.75.76-2.41.18-4.57-.36-6.59-.09-.31-.18-.61-.27-.9-.29-.86-.59-1.62-.9-2.27,1.71,2.09,4.5,6.26,3.81,10.82-.05.31-.11.68-.2,1.12-.02.09-.04.18-.06.27.04.56.04,1.16,0,1.8-.2,5.67-1.94,9.38-3.02,12.69-.9,2.77-1.76,6.66-1.76,11.73-.38-.85-.86-1.8-1.55-2.77-.27-.4-.56-.77-.85-1.12-.67,3.26-1.53,5.94-2.29,7.96-.85,2.25-1.71,4.54-3.49,7.24-.55.83-1.09,1.55-1.59,2.18,0,.01,0,.02,0,.03.16,1.06.54,2.21,1.22,3.37.31.5,2.39,3.83,6.59,4.5.41.07,3.98.59,6.96-1.64.43-.32.79-.65,1.04-.94-.79-.27-1.76-.67-2.79-1.3-.72-.43-1.57-.94-2.39-1.85-.56-.61-1.91-2.07-2.14-4.34-.05-.58-.27-2.56.99-4.28,1.28-1.76,3.27-2.18,4.68-2.47.67-.14,1.33-.22,1.93-.27l.02.04c.27-.04.63-.07,1.04-.07s.77.04,1.04.07l.02-.04c.61.04,1.28.13,1.93.27,1.4.29,3.4.7,4.68,2.47,1.26,1.73,1.04,3.71.99,4.28-.23,2.29-1.58,3.74-2.14,4.34-.85.92-1.67,1.42-2.39,1.85-1.03.63-2,1.03-2.79,1.3.27.27.61.61,1.04.94,2.99,2.23,6.55,1.71,6.96,1.64,4.19-.68,6.28-4,6.59-4.5.7-1.15,1.06-2.3,1.22-3.37.29-1.78.04-3.28-.09-4-.23-1.39-.43-1.03-2.16-5.44-1.58-4.01-2.36-6.73-2.54-7.33-.45-1.6-.81-3.08-.97-3.74-.25-1.03-.45-1.94-.63-2.75-.38.38-.76.79-1.13,1.26-.56.7-1.03,1.39-1.41,2.05.38-.64.84-1.3,1.38-1.97.38-.47.76-.88,1.13-1.26.18.81.38,1.73.63,2.75.16.67.52,2.14.97,3.74.18.59.95,3.31,2.54,7.33,1.73,4.41,1.93,4.05,2.16,5.44.14.7.4,2.21.11,4-.52-.65-1.08-1.4-1.66-2.27-1.76-2.68-2.65-4.97-3.49-7.24-.76-2.02-1.62-4.7-2.29-7.96-.27.34-.56.7-.85,1.12-.68.97-1.17,1.93-1.55,2.77,0-5.09-.88-8.96-1.76-11.73-1.08-3.31-2.83-7.02-3.02-12.69-.02-.72-.02-1.4,0-2.02.29,1.39.92,3.24,2.61,4.52.5.38,1.03.65,1.49.83l.85,16.09.04-.09-.84-16.07c-.47-.18-.97-.45-1.49-.83-1.69-1.28-2.32-3.13-2.61-4.52-.09-.43-.14-.81-.2-1.12-.68-4.54,2.11-8.73,3.81-10.82-.31.63-.61,1.4-.88,2.27-.02.07-.04.13-.06.2-.26,1.54-.27,3.61.69,5.79.65,1.46,1.58,2.57,2.56,3.42,1.21-1.31,2.77-2.75,4.75-4.12,1.99-1.36,3.89-2.3,5.51-2.96.05-.03.09-.07.14-.1.36-.25.65-.43.85-.54,3.74-2.29,7.47-2.36,8.71-2.38.63,0,1.19.02,1.69.07-1.06.27-2.34.67-3.71,1.28-2.63,1.15-4.41,2.52-5.11,3.1-1.44,1.15-2.56,2.36-3.38,3.42.99-.61,2.27-1.33,3.81-2,4.16-1.8,7.68-2.16,8.75-2.25,3.22-.27,5.96.07,8.01.5-.09.02-.2.05-.31.07-.46.11-.96.27-1.49.46.51-.18.99-.32,1.43-.44.65.16,1.33.36,2.03.59.88.31,1.71.63,2.47.99-1.39.18-3.09.54-4.93,1.31-1.28.54-2.38,1.15-3.29,1.78s-1.67,1.24-2.25,1.78c.5-.02,1.03,0,1.6.04.99.07,1.91.25,2.7.45-2.14.85-3.81,1.98-5.11,3.24-1.67,1.64-1.57,2.34-3.47,4.18-2.99,2.88-4.93,2.79-7.41,4.84-1.35,1.12-3.01,2.99-4.16,6.26.81-.49,1.76-.99,2.84-1.44,1.24-.52,2.43-.88,3.47-1.12-.79.61-1.73,1.49-2.56,2.68-.94,1.33-1.49,2.7-1.82,3.87,1.55-1.76,4.05-4.09,7.68-5.76,4.93-2.29,9.7-2.36,13.08-1.94.68.39,1.3.79,1.85,1.18.03,0,.06,0,.1.01-.54-.4-1.17-.81-1.89-1.21-.81-.45-1.71-.9-2.74-1.3-2.43-.94-4.64-1.26-6.37-1.35,2.32-.67,6.55-1.4,11.35.18,5.9,1.96,9.09,6.26,10.31,8.3-1.67-.43-3.74-.79-6.12-.86-2.95-.09-5.52.29-7.58.77-.09.02-.16.04-.25.05,0,0,.01,0,.02,0,.07-.01.13-.03.2-.04,2.65.47,7,1.73,10.94,5.33,4.05,3.65,5.76,8.06,6.5,11.19-.01.04-.02.08-.04.12,0,.01.01.03.02.04.02-.05.04-.13.05-.18.81-3.35,1.57-8.96-.47-15.28-.83-2.56-1.93-4.7-3.06-6.44-.05-.09-.13-.18-.18-.27.14-.74.2-1.75-.11-2.88-.39-1.41-1.2-2.42-1.89-3.05-.02,0-.05-.02-.07-.03.7.63,1.51,1.64,1.91,3.06.31,1.13.25,2.16.11,2.88.07.11.14.2.2.31-1.48-1.71-3.9-4.01-7.5-5.76-3.17-1.53-6.12-2.05-8.28-2.23,2.09-.58,4.73-.94,7.74-.47,3.42.53,5.98,1.95,7.57,3.06.05.03.09.05.14.07.94.5,1.93,1.13,2.95,1.89,1.66,1.24,2.93,2.54,3.92,3.69-.43-2.02-1.37-5.04-3.54-8.1-1.78-2.5-3.8-4.21-5.47-5.35,3.08.92,7.38,2.81,11.19,6.71,3.11,3.19,4.77,6.59,5.63,8.93.7-1.94,1.71-5.76.29-10.08-1.12-3.37-3.2-5.54-4.53-6.7,0,0,.63,1.67.77,2.79.14,1.08.11,2.03,0,2.83-1.48-2.05-3.47-4.41-6.15-6.66-5.54-4.64-11.34-6.66-15.12-7.58,1.24-.34,2.88-.61,4.77-.5,3.54.18,6.26,1.58,7.92,2.7-2.2-2.41-5.9-5.69-11.35-7.78-4.23-1.62-8.06-1.98-10.78-1.96,1.78-.52,4.05-.94,6.68-.88,1.76.04,3.31.31,4.62.58,0,0-3.4-2.18-5.9-2.99-2.52-.81-4.79-1.03-6.53-1.03,1.37-.83,2.86-1.66,4.48-2.48,1.75-.88,3.44-1.64,5.02-2.27-1.82-.32-3.78-.58-5.88-.74-3.69-.29-7.05-.22-10,.04.11-.07,4.26-2.81,6.69-4.16,2.99-1.67,5.83-3.04,8.48-4.18,0,0-8.85.23-14.43,2.74-2.72,1.21-4.91,2.66-6.62,4.01.61-3.44,1.21-6.88,1.82-10.29,0,0-3.13,2.27-5.07,3.69-.05.04-.1.07-.15.11-.57.61-1.15,1.24-1.74,1.92-.76.9-1.44,1.78-2.07,2.65.11-.95.31-2.09.74-3.31.72-2.09,1.66-3.26,2.56-4.73.86-1.42,1.91-3.46,2.72-6.25-.25,1.57-.59,3.2-1.03,4.91-.47,1.8-.99,3.47-1.53,5,.01,0,.03-.02.04-.03.53-1.51,1.06-3.15,1.51-4.94.43-1.71.77-3.37,1.03-4.91.18-1.08.31-2.12.41-3.1-1.01,1.15-2.39,2.5-4.25,3.71-1.78,1.15-2.86,1.44-4.46,2.29-1.69.9-3.96,2.41-6.3,5.13.07-.76.2-1.62.47-2.56.68-2.45,1.73-3.46,2.61-5.54.49-1.15,1.01-2.83,1.12-5.09-1.08.7-2.3,1.66-3.49,2.95-1.73,1.87-2.81,3.8-3.47,5.36-.68-1.57-1.75-3.49-3.47-5.36-1.21-1.3-2.43-2.25-3.49-2.95.11,2.27.63,3.94,1.12,5.09.88,2.07,1.93,3.08,2.61,5.54.27.94.4,1.82.47,2.56-2.34-2.72-4.59-4.23-6.3-5.13-1.58-.85-2.68-1.13-4.46-2.29-1.85-1.21-3.26-2.56-4.25-3.71.11.99.23,2.02.41,3.1.02.09.03.19.05.28.79,2.62,1.79,4.56,2.62,5.91.9,1.46,1.84,2.63,2.56,4.73.41,1.22.63,2.36.74,3.31-.63-.86-1.31-1.75-2.07-2.65-.61-.72-1.21-1.38-1.82-2.02h-.02c-1.94-1.42-5.07-3.69-5.07-3.69.61,3.44,1.21,6.88,1.82,10.29-1.71-1.35-3.9-2.79-6.62-4.01-5.58-2.5-14.43-2.74-14.43-2.74,2.65,1.13,5.49,2.5,8.48,4.18,2.43,1.37,6.59,4.09,6.69,4.16-2.95-.25-6.32-.32-10-.04-2.11.16-4.07.43-5.88.74,1.58.63,3.27,1.39,5.02,2.27,1.62.81,3.11,1.66,4.48,2.48-1.73,0-4.01.22-6.53,1.03-2.5.81-5.9,2.99-5.9,2.99,1.31-.25,2.86-.54,4.62-.58,2.63-.05,4.89.38,6.68.88-2.72,0-6.55.34-10.78,1.96-5.45,2.09-9.16,5.36-11.35,7.78,1.66-1.12,4.37-2.52,7.92-2.7,1.89-.09,3.51.16,4.77.5-3.78.92-9.57,2.93-15.12,7.58-2.68,2.25-4.7,4.61-6.15,6.66-.11-.77-.14-1.73,0-2.83.14-1.12.77-2.79.77-2.79-1.35,1.13-3.44,3.31-4.53,6.7-1.42,4.32-.41,8.12.34,10.06ZM527.12,489.89c4.39-3.24,9.12-3.56,11.89-3.4-2.72,1.01-5.96,2.5-9.36,4.79-3.99,2.68-6.98,5.62-9.1,8.12.58-2.02,2.21-6.3,6.57-9.5ZM496.86,489.89c4.35,3.2,5.99,7.49,6.57,9.5-2.12-2.5-5.09-5.44-9.11-8.12-3.4-2.29-6.66-3.78-9.36-4.79,2.77-.16,7.5.16,11.89,3.4Z"/>
  <path class="cls-4" d="M526.6,505.13c-.65,1.04-1.02,1.9-1.59,2.66.58-.76.95-1.62,1.59-2.66Z"/>
  <path class="cls-4" d="M504.36,529.32l.09.23v-.21s-.02-.08-.02-.08c-.47-.97-1.13-2.07-2.03-3.19-.38-.47-.76-.88-1.13-1.26,0,.03-.02.07-.02.1.36.36.72.76,1.08,1.21.9,1.12,1.55,2.21,2.03,3.19Z"/>
  <path class="cls-4" d="M505.37,513.41v.02c.35-.14.73-.34,1.11-.59-.38.24-.76.43-1.11.56Z"/>
  <path class="cls-4" d="M529.72,536.79s.02.05.02.05c0,0,3.17-6.32,9.14-9.32.51-.26,1.02-.49,1.53-.71-.52.22-1.05.46-1.58.73-5.61,2.82-8.74,8.56-9.1,9.25Z"/>
  <path class="cls-4" d="M532.77,517.48c-1.4.8-3.35,1.73-5.78,2.39-.65.18-1.26.31-1.82.41,0,0,0,0,0,0,.54-.11,1.14-.23,1.76-.4,2.46-.65,4.43-1.6,5.83-2.41Z"/>
  <path class="cls-5" d="M527.48,503.86c-.35.45-.63.87-.88,1.27.24-.38.51-.79.84-1.22,1.21-1.55,2.52-2.59,3.42-3.22-.03.01-.07.03-.1.04-.91.64-2.13,1.65-3.28,3.12Z"/>
  <path class="cls-5" d="M523.62,509.06c-.59.38-2.03,1.31-3.58.94-2.23-.52-3.11-3.33-3.35-4.1-.76-2.43-.18-4.57.36-6.59.07-.24.14-.47.21-.7,0-.05.02-.1.03-.15-.09.29-.18.59-.27.9-.54,2.02-1.12,4.18-.36,6.59.25.77,1.13,3.56,3.35,4.1,1.55.38,2.99-.54,3.58-.94.63-.41,1.07-.85,1.43-1.33-.35.46-.78.88-1.4,1.27Z"/>
  <path class="cls-5" d="M520.5,507.82c-.97-.85-1.91-1.96-2.56-3.42-.96-2.18-.95-4.26-.69-5.79-.07.23-.14.46-.21.7-.54,2.02-1.12,4.16-.36,6.59.23.77,1.12,3.58,3.35,4.1,1.55.38,2.99-.56,3.58-.94.61-.39,1.04-.81,1.4-1.27.57-.76.95-1.62,1.59-2.66.25-.4.53-.82.88-1.27,1.15-1.47,2.37-2.49,3.28-3.12-1.62.66-3.52,1.6-5.51,2.96-1.98,1.37-3.54,2.81-4.75,4.12Z"/>
  <path class="cls-5" d="M519.62,529.27c.18-.36.39-.75.62-1.14-.25.42-.47.83-.66,1.21l-.05.14v.02s.09-.23.09-.23Z"/>
  <path class="cls-5" d="M518.65,513.48c-.47-.18-.99-.45-1.49-.83-1.69-1.28-2.32-3.13-2.61-4.52-.02.61-.02,1.3,0,2.02.2,5.67,1.94,9.38,3.02,12.69.88,2.77,1.76,6.64,1.76,11.73.38-.85.86-1.8,1.55-2.77.29-.41.58-.77.85-1.12.67,3.26,1.53,5.94,2.29,7.96.85,2.27,1.73,4.55,3.49,7.24.58.86,1.13,1.62,1.66,2.27.29-1.78.04-3.29-.11-4-.23-1.39-.43-1.03-2.16-5.44-1.58-4.01-2.36-6.73-2.54-7.33-.45-1.6-.81-3.08-.97-3.74-.25-1.03-.45-1.94-.63-2.75-.38.38-.76.79-1.13,1.26-.54.67-1,1.34-1.38,1.97-.23.39-.44.78-.62,1.14l-.09.23v-.02s-.04.09-.04.09l-.85-16.09Z"/>
  <path class="cls-5" d="M525.13,520.31c.5,4.82,4.55,16.56,4.55,16.56,0,0,.01-.02.04-.07-.29-.83-4.05-11.86-4.53-16.5-.02,0-.04,0-.05.01Z"/>
  <path class="cls-5" d="M540.4,526.81c4.91-2.08,9.45-2.29,12.52-1.92-.01,0-.03-.02-.04-.03-3.08-.38-7.6-.14-12.48,1.95Z"/>
  <path class="cls-5" d="M538.75,512.53c1.26-1.67,1.06-2.18,2.66-4.39.86-1.21,1.78-2.47,3.4-3.67.31-.23,1.57-1.15,3.44-1.91.16-.07.32-.13.48-.19-.17.06-.35.13-.53.2-1.87.76-3.13,1.67-3.44,1.91-1.6,1.21-2.54,2.47-3.4,3.67-1.6,2.2-1.4,2.72-2.66,4.39-1.31,1.76-2.68,2.75-4.03,3.71-.42.3-1.05.74-1.89,1.23.86-.5,1.52-.94,1.94-1.24,1.33-.97,2.72-1.94,4.03-3.71Z"/>
  <path class="cls-5" d="M537.96,525.63c-3.63,1.67-6.14,4-7.68,5.76.32-1.17.88-2.54,1.82-3.87.83-1.19,1.76-2.07,2.56-2.68-1.04.23-2.23.59-3.47,1.12-1.08.45-2.03.95-2.84,1.44,1.15-3.28,2.81-5.15,4.16-6.26,2.48-2.05,4.43-1.96,7.41-4.84,1.91-1.84,1.8-2.54,3.47-4.18,1.3-1.26,2.97-2.39,5.11-3.24-.79-.2-1.71-.38-2.7-.45-.58-.04-1.1-.05-1.6-.04.58-.54,1.33-1.15,2.25-1.78s2.02-1.24,3.29-1.78c1.84-.77,3.54-1.13,4.93-1.31-.76-.36-1.58-.68-2.47-.99-.7-.23-1.39-.43-2.03-.59-.44.12-.92.26-1.43.44-.16.06-.32.12-.48.19-1.87.76-3.13,1.67-3.44,1.91-1.62,1.21-2.54,2.47-3.4,3.67-1.6,2.21-1.4,2.72-2.66,4.39-1.31,1.76-2.7,2.74-4.03,3.71-.43.3-1.08.75-1.94,1.24-1.4.81-3.37,1.76-5.83,2.41-.63.17-1.22.3-1.76.4.49,4.64,4.25,15.67,4.53,16.5.36-.7,3.5-6.43,9.1-9.25.53-.27,1.06-.51,1.58-.73,4.88-2.09,9.4-2.32,12.48-1.95-.55-.39-1.16-.79-1.85-1.18-3.38-.41-8.15-.34-13.08,1.94Z"/>
  <path class="cls-5" d="M559.89,536.07c-3.72-3.47-7.49-5.46-10.17-6.6-.02,0-.03,0-.05.01,2.68,1.13,6.46,3.13,10.18,6.61,3.87,3.62,6.15,7.4,7.45,10.04,0-.02.01-.04.02-.06-1.3-2.64-3.58-6.4-7.43-10Z"/>
  <path class="cls-5" d="M560.86,534.76c-3.94-3.6-8.3-4.86-10.94-5.33-.07.01-.13.03-.2.04,2.68,1.13,6.45,3.13,10.17,6.6,3.85,3.6,6.13,7.36,7.43,10,.01-.04.02-.09.04-.12-.74-3.13-2.45-7.54-6.5-11.19Z"/>
  <path class="cls-5" d="M552.53,548.63c.09-1.42-.02-3.06-.52-4.81-.79-2.75-2.27-4.73-3.45-5.99.2,1.35.31,2.72.31,4.1,0,.56-.02,1.13-.05,1.69,0,.14-.02.27-.04.41.61.6,1.22,1.27,1.84,2,.72.88,1.37,1.75,1.93,2.59Z"/>
  <path class="cls-5" d="M517.74,583.97s0,0-.01,0c.25-.07.5-.13.76-.18,0,0,.01,0,.02,0-.01,0-.02,0-.04,0-.24.05-.48.1-.73.17Z"/>
  <path class="cls-5" d="M537.58,561.81c1.42-6.16.54-11.54-.52-15.14.05.45.09.9.13,1.37.05.85.09,1.69.09,2.56,0,6.32-1.6,12.29-4.46,17.6-.32.59-.65,1.17-.99,1.75-1.85,3.04-4.1,5.85-6.73,8.35-.54.52-1.08,1.03-1.66,1.51-.85.72-1.71,1.4-2.61,2.07-.47.34-.95.68-1.44,1.01-.23.16-.49.32-.72.49-.3.21-.6.41-.92.6.24-.07.48-.12.73-.17.01,0,.02,0,.04,0,3.3-1.49,15.84-7.95,19.07-21.98Z"/>
  <path class="cls-5" d="M518.17,567.39c-.32.3-.64.61-.95.92.31-.31.63-.62.95-.92Z"/>
  <path class="cls-5" d="M514.92,572.43c1.49-1.1,2.95-1.93,4.23-2.54.16-1.17.23-2.36.23-3.56-.17.14-.34.28-.5.42-.24.21-.48.43-.72.64-.32.3-.64.61-.95.92-1.77,1.79-3.31,3.81-4.58,6,.67-.61,1.42-1.26,2.29-1.89Z"/>
  <path class="cls-5" d="M561.69,518.01c.56.25,1.14.54,1.75.87-.03-.02-.06-.04-.08-.06-.58-.32-1.15-.59-1.68-.83,0,0,0,0,.01.01Z"/>
  <path class="cls-5" d="M548.05,516.24c2.16.18,5.11.7,8.28,2.23,3.6,1.75,6.03,4.05,7.5,5.76-.05-.11-.13-.2-.2-.31.14-.72.2-1.75-.11-2.88-.4-1.42-1.21-2.43-1.91-3.06.02,0,.04.02.07.03,0,0,0,0-.01-.01.53.23,1.1.5,1.68.83-1.59-1.11-4.15-2.53-7.57-3.06-3.01-.47-5.65-.11-7.74.47Z"/>
  <path class="cls-5" d="M527.17,475.89s.09-.1.14-.15c-.16.1-.31.21-.44.31,0,.02-.02.04-.02.07.11-.08.22-.15.33-.23Z"/>
  <path class="cls-5" d="M528.35,471.08c.43-1.71.77-3.35,1.03-4.91-.81,2.79-1.85,4.82-2.72,6.25-.9,1.48-1.84,2.65-2.56,4.73-.43,1.22-.63,2.36-.74,3.31.63-.86,1.31-1.75,2.07-2.65.58-.68,1.17-1.32,1.74-1.92-.11.08-.22.16-.33.23,0-.02.02-.04.02-.07-.01,0-.03.02-.04.03.54-1.53,1.06-3.2,1.53-5Z"/>
  <path class="cls-5" d="M554.39,479.88c-.59.77-1.22,1.53-1.89,2.23,5.31-1.06,9.41-5.42,10.06-10.82-.58,1.3-1.48,2.93-2.93,4.55-1.8,2.02-3.74,3.28-5.24,4.03Z"/>
  <path class="cls-5" d="M546.85,462.63c-.23.37-.46.76-.68,1.18,0,0,.02-.02.02-.03.23-.41.45-.8.68-1.16,0,0-.01,0-.02.01Z"/>
  <path class="cls-5" d="M535.96,468.38s0,0,0,0c-.28,1.35-.36,2.63-.35,3.75-.01-1.11.07-2.39.35-3.73,0,0,0-.02,0-.02Z"/>
  <path class="cls-5" d="M538.41,469.55c2.81-3.2,5.85-5.44,8.46-6.95,0,0-.01.02-.02.03,0,0,.01,0,.02-.01-.23.36-.45.75-.68,1.16.91-.95,1.84-2.15,2.6-3.63.41-.81.72-1.58.95-2.3-.94.74-2.12,1.64-3.53,2.61-3.44,2.38-4.86,2.9-6.95,4.57-.95.77-2.1,1.85-3.31,3.34,0,0,0,.02,0,.02-.28,1.34-.36,2.62-.35,3.73,0,.37.02.73.04,1.06.77-1.17,1.67-2.39,2.75-3.64Z"/>
  <path class="cls-5" d="M550.21,465.43h0c-.05-.04-.11-.09-.16-.13.04.04.08.08.12.13h.04Z"/>
  <path class="cls-5" d="M544.91,466.54s0,0,0,0c-.23.59-.43,1.17-.59,1.71,0,0,0,0,0,0,.16-.53.36-1.1.59-1.69,0,0,0-.01,0-.02Z"/>
  <path class="cls-5" d="M546.05,470.04c.7-.77,1.31-1.53,1.84-2.23,0,0,0,0-.01,0-.52.7-1.13,1.45-1.82,2.21-.67.74-1.33,1.39-1.96,1.96,0,0,.02,0,.02,0,.62-.57,1.28-1.21,1.94-1.94Z"/>
  <path class="cls-5" d="M549.92,465.18s-.02-.02-.04-.02c-.2-.22-.34-.43-.45-.63-.72.41-1.51.83-2.39,1.21-.73.32-1.45.59-2.13.81,0,0,0,.01,0,.02-.23.59-.43,1.16-.59,1.69.39-.14.82-.27,1.31-.36.83-.16,1.58-.16,2.27-.11,0,0,0,.01-.01.02,0,0,0,0,.01,0-.52.7-1.13,1.46-1.84,2.23-.66.73-1.32,1.37-1.94,1.94,1.55-.2,3.68-.7,5.92-1.99,2.45-1.42,4.05-3.24,5.04-4.64-1.01.74-2.47,1.53-4.32,1.75-.81.09-1.53.05-2.14-.02.25-.36.67-.81,1.26-1.19.2-.11.38-.22.56-.29-.07-.05-.14-.11-.22-.16h-.04s-.08-.09-.12-.13c-.04-.03-.07-.07-.11-.1-.02,0-.02-.02-.02-.02Z"/>
  <path class="cls-5" d="M504.04,509.99c-1.55.38-2.99-.54-3.58-.94-2-1.3-2.05-2.84-3.87-5.2-1.07-1.37-2.23-2.35-3.1-2.99-.12-.05-.25-.11-.37-.16.92.63,2.21,1.67,3.42,3.22,1.82,2.34,1.85,3.91,3.87,5.2.59.38,2.03,1.31,3.58.94,1.32-.31,2.16-1.41,2.68-2.42-.53.99-1.36,2.04-2.63,2.35Z"/>
  <path class="cls-5" d="M506.95,499.37c-.09-.31-.18-.61-.27-.9.29,1.57.34,3.69-.67,5.94-.65,1.46-1.58,2.57-2.56,3.42-1.22-1.31-2.77-2.75-4.75-4.12-1.87-1.28-3.67-2.19-5.22-2.85.88.64,2.03,1.62,3.1,2.99,1.82,2.36,1.87,3.91,3.87,5.2.59.4,2.03,1.31,3.58.94,1.27-.31,2.1-1.36,2.63-2.35.36-.7.57-1.36.66-1.68.76-2.43.18-4.57-.38-6.59Z"/>
  <path class="cls-5" d="M506.48,512.85s0,0,.01,0c0,0,0,0-.01,0Z"/>
  <path class="cls-5" d="M494.97,544.08c.23-1.39.43-1.03,2.16-5.44,1.58-4.01,2.36-6.73,2.54-7.33.45-1.6.81-3.08.97-3.74.24-.98.43-1.86.61-2.65-.02-.02-.03-.03-.05-.05-.18.81-.38,1.73-.63,2.75-.16.67-.52,2.14-.97,3.74-.18.59-.95,3.31-2.54,7.33-1.73,4.41-1.93,4.05-2.16,5.44-.13.72-.38,2.21-.09,4,.02-.03.05-.06.07-.09-.28-1.77-.03-3.25.09-3.96Z"/>
  <path class="cls-5" d="M509.41,508.33c0-.07,0-.14-.01-.21-.29,1.38-.91,3.21-2.57,4.49.01,0,.02-.02.04-.03,1.59-1.2,2.24-2.9,2.55-4.25Z"/>
  <path class="cls-5" d="M505.37,513.44s-.05.02-.07.03l-.83,15.88.06.16.84-16.07Z"/>
  <path class="cls-5" d="M499.95,538.63c.76-2.02,1.62-4.7,2.29-7.96.29.34.58.72.85,1.12.68.97,1.17,1.93,1.55,2.77,0-5.08.86-8.96,1.76-11.73,1.08-3.31,2.83-7.02,3.02-12.69.03-.64.03-1.25,0-1.8-.31,1.35-.97,3.05-2.55,4.25-.01,0-.02.02-.04.03-.01,0-.02.02-.04.03-.1.07-.2.14-.3.2,0,0,0,0-.01,0-.39.25-.76.45-1.11.59l-.84,16.07-.06-.16v.21s-.1-.23-.1-.23c-.49-.97-1.13-2.07-2.03-3.19-.36-.45-.72-.85-1.08-1.21-.17.78-.37,1.67-.61,2.65-.16.67-.52,2.14-.97,3.74-.18.59-.95,3.31-2.54,7.33-1.73,4.41-1.93,4.05-2.16,5.44-.13.72-.37,2.2-.09,3.96.5-.63,1.04-1.35,1.59-2.18,1.78-2.7,2.65-4.99,3.49-7.24Z"/>
  <path class="cls-5" d="M485.2,527.51c-5.47-2.74-10.64-3.06-14.04-2.65-.03.02-.06.04-.09.06,3.4-.43,8.6-.13,14.11,2.65,5.97,3.01,9.14,9.32,9.14,9.32,0,0,.17-.49.44-1.3-.26.78-.42,1.24-.42,1.24,0,0-3.17-6.32-9.14-9.32Z"/>
  <path class="cls-5" d="M497.06,519.93c-3.92-1.06-6.6-2.84-7.72-3.64-1.33-.97-2.72-1.94-4.03-3.71-1.26-1.67-1.06-2.18-2.66-4.39-.86-1.21-1.78-2.47-3.4-3.67-.31-.23-1.57-1.15-3.44-1.91-.7-.29-1.37-.5-1.96-.65-.65.16-1.33.36-2.03.59-.9.31-1.71.65-2.47.99,1.37.16,3.08.54,4.93,1.31,1.28.54,2.38,1.15,3.29,1.78.92.61,1.67,1.24,2.25,1.78-.5-.02-1.04,0-1.6.04-.99.07-1.89.23-2.7.45,2.16.85,3.81,1.98,5.11,3.24,1.67,1.64,1.57,2.34,3.47,4.18,2.99,2.88,4.93,2.79,7.43,4.84,1.35,1.12,3.01,2.99,4.16,6.26-.81-.49-1.76-.99-2.84-1.44-1.24-.52-2.41-.86-3.47-1.12.79.61,1.71,1.49,2.56,2.68.95,1.35,1.49,2.7,1.82,3.87-1.57-1.76-4.07-4.07-7.68-5.76-4.95-2.3-9.72-2.38-13.1-1.96-.68.38-1.28.77-1.8,1.14,3.4-.4,8.57-.08,14.04,2.65,5.97,3.01,9.14,9.32,9.14,9.32,0,0,.16-.46.42-1.24,1.06-3.19,3.71-11.42,4.11-15.26-.56-.11-1.17-.25-1.82-.4Z"/>
  <path class="cls-5" d="M456.64,545.78c-.01.05-.03.11-.04.16.02.05.04.13.05.18.02-.03.03-.06.05-.1-.01-.04-.02-.07-.03-.1-.01-.05-.02-.09-.03-.14Z"/>
  <path class="cls-5" d="M464.11,536.07c3.72-3.47,7.5-5.47,10.18-6.61-.07-.02-.16-.04-.25-.07-2.65.47-7,1.75-10.94,5.33-3.98,3.61-5.7,7.93-6.46,11.05.01.05.02.09.03.14.01.03.02.07.03.1,1.3-2.64,3.58-6.37,7.4-9.95Z"/>
  <path class="cls-5" d="M475.18,543.61c0,.14.02.27.04.41h0c-.02-.14-.04-.27-.04-.41-.04-.56-.05-1.13-.05-1.69,0-1.4.11-2.77.31-4.1h0c-.2,1.33-.31,2.7-.31,4.1,0,.56.02,1.13.05,1.69Z"/>
  <path class="cls-5" d="M471.45,548.62c.56-.85,1.19-1.71,1.93-2.59.65-.77,1.31-1.48,1.94-2.11-.04.04-.07.07-.11.11h0s0,0,0,0c-.02-.14-.04-.27-.04-.41-.04-.56-.05-1.13-.05-1.69,0-1.4.11-2.77.31-4.1-1.21,1.24-2.66,3.22-3.45,5.99-.5,1.76-.61,3.4-.52,4.81Z"/>
  <path class="cls-5" d="M487.48,558.26c.05.24.11.49.16.73-.06-.24-.11-.49-.16-.73Z"/>
  <path class="cls-5" d="M488.08,560.7c.03.09.05.19.08.28-.03-.09-.05-.19-.08-.28Z"/>
  <path class="cls-5" d="M486.67,550.61h0c0-.86.04-1.71.09-2.56.04-.47.07-.92.13-1.37h0c-.05.45-.09.9-.13,1.37-.05.85-.09,1.69-.09,2.56Z"/>
  <path class="cls-5" d="M505.28,583.39c-.23-.16-.49-.32-.72-.49-.49-.32-.97-.67-1.44-1.01-.92-.67-1.78-1.35-2.61-2.07-.58-.49-1.12-.99-1.66-1.51-2.63-2.5-4.88-5.31-6.73-8.35-.34-.58-.67-1.15-.99-1.75-1.24-2.3-2.24-4.72-2.98-7.24-.03-.09-.05-.19-.08-.28-.16-.56-.31-1.13-.44-1.71-.06-.24-.11-.49-.16-.73-.52-2.48-.8-5.03-.8-7.65h0c0-.86.04-1.71.09-2.56.04-.47.07-.92.13-1.37-1.03,3.58-1.91,8.98-.49,15.14,3.24,14.04,15.82,20.52,19.11,21.99.23.05.49.11.74.16-.16-.1-.32-.2-.48-.3-.16-.1-.32-.2-.49-.3Z"/>
  <path class="cls-5" d="M511.3,574.3s.03.02.04.03c-1.69-2.97-3.91-5.61-6.53-7.79,2.58,2.18,4.78,4.81,6.49,7.76Z"/>
  <path class="cls-5" d="M504.81,569.91c1.28.61,2.74,1.44,4.23,2.54.85.62,1.61,1.25,2.26,1.86-1.7-2.95-3.91-5.57-6.49-7.76-.08-.07-.16-.13-.24-.2.02,1.21.09,2.39.23,3.56Z"/>
  <path class="cls-5" d="M460.65,518.85s-.07.05-.11.07c.63-.36,1.24-.65,1.81-.9.01-.01.03-.03.04-.04-.54.24-1.13.54-1.75.86Z"/>
  <path class="cls-5" d="M460.49,521.04c.34-1.23,1-2.16,1.63-2.79-.64.63-1.31,1.57-1.66,2.83-.31,1.13-.25,2.14-.11,2.88-.05.09-.13.18-.18.27.02-.02.03-.04.05-.06.05-.08.12-.16.16-.25-.14-.72-.2-1.75.11-2.88Z"/>
  <path class="cls-5" d="M467.65,518.47c3.17-1.53,6.12-2.07,8.28-2.23-2.09-.58-4.73-.94-7.72-.43-3.4.53-5.95,1.94-7.56,3.04.62-.33,1.21-.62,1.75-.86-.01.01-.03.03-.04.04,0,0,0,0,0,0-.08.07-.16.15-.25.23-.63.63-1.28,1.56-1.63,2.79-.31,1.13-.25,2.16-.11,2.88-.05.08-.11.16-.16.25,1.46-1.7,3.88-3.99,7.43-5.7Z"/>
  <path class="cls-5" d="M497.22,476.12c-.54-1.53-1.06-3.2-1.53-5-.42-1.61-.73-3.16-.98-4.63-.03-.11-.07-.22-.1-.34.25,1.55.58,3.2,1.03,4.91.45,1.82.99,3.47,1.53,5-.16-.11-.31-.23-.49-.34.02.02.03.04.05.05h0c.18.11.34.23.49.34Z"/>
  <path class="cls-5" d="M500.62,480.44c-.11-.95-.32-2.09-.74-3.31-.72-2.11-1.66-3.28-2.56-4.73-.83-1.35-1.82-3.29-2.62-5.91.25,1.47.56,3.02.98,4.63.47,1.8.99,3.47,1.53,5-.14-.11-.31-.23-.49-.34h0c.61.63,1.21,1.3,1.82,2.02.76.9,1.44,1.78,2.07,2.65Z"/>
  <path class="cls-5" d="M469.56,479.88c-1.49-.76-3.44-2.02-5.24-4.03-1.44-1.64-2.34-3.28-2.92-4.55.67,5.4,4.77,9.75,10.06,10.82-.67-.7-1.3-1.46-1.91-2.23Z"/>
  <path class="cls-5" d="M488.35,472.11c0,.37-.02.73-.04,1.06.02-.33.04-.69.04-1.06Z"/>
  <path class="cls-5" d="M484.68,465.02c-2.09-1.69-3.51-2.2-6.95-4.57-1.39-.97-2.57-1.87-3.51-2.61.23.72.54,1.49.95,2.3.76,1.49,1.71,2.7,2.63,3.65-.23-.43-.47-.83-.7-1.21,2.61,1.51,5.65,3.74,8.46,6.95,1.08,1.24,2,2.47,2.75,3.64.02-.33.04-.69.04-1.06.01-1.12-.07-2.4-.37-3.75-1.19-1.49-2.36-2.57-3.31-3.35Z"/>
  <path class="cls-5" d="M470.58,467.36c.88.9,1.99,1.82,3.37,2.62,2.25,1.3,4.39,1.8,5.94,2,0,0-.01-.01-.02-.02-1.55-.2-3.69-.7-5.94-2-1.37-.79-2.47-1.71-3.35-2.61Z"/>
  <path class="cls-5" d="M478.34,467.88c-.83-.16-1.58-.16-2.27-.11.52.7,1.13,1.46,1.84,2.23.65.72,1.3,1.36,1.92,1.93-.61-.58-1.26-1.21-1.89-1.91-.7-.77-1.31-1.53-1.84-2.23.68-.05,1.44-.05,2.27.11.49.09.92.22,1.31.36-.16-.54-.36-1.12-.59-1.71-.01,0-.02,0-.03-.01.23.59.43,1.17.59,1.7-.4-.14-.83-.27-1.31-.36Z"/>
  <path class="cls-5" d="M474.56,464.53c-.11.2-.25.41-.45.63-.02,0-.02.02-.04.02l-.02.02c-.09.09-.18.16-.27.23-.07.07-.14.11-.22.16.18.07.38.18.56.29.59.38,1.01.83,1.26,1.19-.63.07-1.35.11-2.14.02-1.87-.22-3.33-1.01-4.34-1.75.43.62.98,1.32,1.67,2.02.88.9,1.98,1.81,3.35,2.61,2.25,1.3,4.39,1.8,5.94,2-.01-.01-.03-.02-.04-.04-.62-.57-1.27-1.2-1.92-1.93-.7-.77-1.31-1.53-1.84-2.23.68-.05,1.44-.05,2.27.11.49.09.92.22,1.31.36-.16-.54-.36-1.11-.59-1.7-.67-.21-1.38-.48-2.11-.8-.88-.4-1.67-.79-2.39-1.21Z"/>
</svg>