<svg width="16" fill="currentColor" xmlns="http://www.w3.org/2000/svg" xmlns:xlink="http://www.w3.org/1999/xlink" viewBox="0 0 1024 1024">
  <path class="cls-1" d="M933.92,429.31c-4.01-5.89-6.9-13.66-6.95-20.59-.53-61.61-.31-123.23-.31-184.85h-.24c0-55.53.03-111.05-.03-166.58-.01-9.66.24-19.4-.8-28.98-2.62-24.09-29.09-35.98-50.66-22.96-5.39,3.26-10.39,7.15-15.34,11.02-76.13,59.36-152.15,118.84-228.47,177.98-4.87,3.78-11.92,7.06-17.98,7.11-63.88.48-127.78-.08-191.66.51-13.47.13-23.64-3.78-33.69-11.71-51.1-40.33-102.53-80.28-153.89-120.3-26.56-20.7-52.97-41.57-79.91-61.82-20.82-15.66-47.63-7.71-53.88,15.59-1.28,4.76-1.1,9.94-1.11,14.92-.13,123.59-.15,247.18-.47,370.77-.01,5.35-1.46,11.52-4.49,15.92-29.92,43.42-60.19,86.62-90.71,129.67-4.47,6.31-4.29,11.07-.36,17.51,33.72,55.37,75.66,103.03,134.26,136.81,92.53,53.34,170.04,121.89,231.78,206.74,20.47,28.13,44.27,54.51,69.44,79.03,24.36,23.73,55.92,32.98,91.43,27.26,27.84-4.48,50.11-18.38,68.1-37.81,19.9-21.49,39-43.82,56.52-67.08,53.62-71.2,116.07-133.65,193.65-181.92,27.14-16.89,53.82-34.51,80.01-52.7,39.61-27.51,64.49-66.66,90.8-104.75,6.94-10.05,6.59-17.32-.19-26.86-28.69-40.38-56.97-81.02-84.84-121.92ZM161.71,139.08c34.81,28.58,67.92,55.75,102.01,83.73-33.73,37.21-67.07,73.99-102.01,112.53v-196.27ZM311.32,669.98c-54.84-28.35-82.77-73.42-91.65-130.6-.44-2.83-.59-5.7-.74-8.56-.05-1.02.31-2.06.47-3.05,75.26-5.37,138.76,21.19,175.28,84.95,25.2,44,34.85,92.52,41.5,141.99-35.46-36.91-79.76-61.41-124.87-84.73ZM575.11,919.68c-11.39,22.58-28.08,41.37-49.33,56.34-9.77,6.88-19.58,6.44-29.09-.69-19.22-14.4-34.95-31.68-45.69-52.54-10.29-20-.73-33.64,23.14-33.97,13.21-.18,26.43-.03,39.65-.03v-.08c13.59,0,27.19-.28,40.78.07,19.46.49,28.94,14.26,20.55,30.91ZM787.65,594.3c-13.46,34.16-41.52,56.37-73.65,74.52-35.32,19.95-71.78,38.34-101.87,65.57-7.85,7.1-15.48,14.42-24.52,22.86,4.03-37.72,12.78-72.86,24.49-107.36,8.27-24.35,20.27-46.95,37.94-66.59,37.12-41.27,86.13-55.76,141.29-56.45,4.8-.06,9.6,0,17.24,0-7.29,23.92-12.55,46.25-20.91,67.47ZM863.92,332.23c-.79.34-1.58.68-2.37,1.03-33.04-36.38-66.07-72.76-99.5-109.57,34.79-28.57,68.03-55.87,101.87-83.66v192.2Z"/>
</svg>