<?xml version="1.0" encoding="UTF-8"?>
<svg id="Camada_1" data-name="Camada 1" xmlns="http://www.w3.org/2000/svg" viewBox="0 0 26.56 32">
  <defs>
    <style>
      .cls-1, .cls-2 {
        fill: #303030;
        stroke-width: 0px;
      }

      .cls-2 {
        fill-rule: evenodd;
      }
    </style>
  </defs>
  <path class="cls-2" d="M14.35,26.68c-.32.16-.69.26-1.08.26h-.01c-.39,0-.76-.1-1.08-.26.39,0,.76-.11,1.08-.27.31.17.68.27,1.08.27h.02Z"/>
  <path class="cls-2" d="M14.5,24.05c-.09-.11-.61-.21-1.24-.21h-.04c-.53,0-.98.06-1.18.14.13-.38.62-.66,1.22-.67.6.01,1.1.29,1.22.67.01.02.02.04.03.06Z"/>
  <g>
    <path class="cls-2" d="M12.83,24.81h-.04c-.22,0-.41-.14-.46-.32.22.04.41.16.5.32Z"/>
    <path class="cls-2" d="M13.68,24.81h.04c.22,0,.41-.14.46-.32-.22.04-.41.16-.5.32Z"/>
  </g>
  <g>
    <path class="cls-2" d="M12.12,31.67s-.1-.02-.15-.04c-.09-.02-.19-.04-.29-.07-.09-.02-.16-.04-.25-.06-.24-.07-.47-.15-.7-.24-.18-.06-.35-.14-.52-.21-.66-.3-1.27-.67-1.82-1.1-.26-.21-.52-.43-.76-.67s-.46-.48-.67-.75c0,0,0,0-.01-.01-.79-1.01-1.33-2.19-1.52-3.48-.08.33-.11.68-.11,1.03,0,.51.08.99.23,1.45.31.95.9,1.79,1.7,2.43.11.31.24.61.39.9-1.07-.49-1.97-1.24-2.62-2.14-.33-.46-.6-.98-.78-1.52-.19-.57-.3-1.18-.3-1.81,0-1.47.57-2.82,1.52-3.88-.53.87-.83,1.87-.83,2.94.19-.47.45-.91.76-1.32.19-.26.41-.5.64-.72,0,.05-.01.09-.02.14-.04.26-.06.53-.06.81,0,.11,0,.22.01.33,0,.03,0,.05,0,.08,0,0,.01-.01.02-.02.27-.24.57-.44.89-.61-.29.55-.44,1.17-.44,1.82,0,.31.04.63.11.93.06.26.15.51.26.75.01-.07.03-.14.04-.21.21-.9.72-1.7,1.45-2.3,0,.06-.01.12-.02.19,0,.09-.01.18-.02.27-.01.16-.02.33-.02.51,0,1.25.32,2.43.88,3.48.06.11.13.23.2.34.36.6.81,1.15,1.33,1.65.11.1.21.2.33.3.16.14.33.28.51.41.09.06.19.14.29.2.05.03.1.06.14.09.06.04.12.08.19.12Z"/>
    <path class="cls-2" d="M3.22,25.2c-.31.33-.56.76-.73,1.25-.08.23-.14.47-.18.72-.17-.11-.33-.25-.48-.41-.65-.68-1.08-1.76-1.08-2.97,0-.71.15-1.38.4-1.95.21-.48.51-.89.86-1.2-.21.4-.38.86-.48,1.36-.08.37-.12.77-.12,1.18,0,1.05.27,2.02.71,2.74.26-.53.63-.97,1.07-1.26.02.17.04.35.04.53Z"/>
    <path class="cls-2" d="M14.73,28.17c0,.24-.01.48-.04.71-.11.9-.43,1.75-.93,2.48-.15.23-.32.44-.5.64-.18-.2-.35-.42-.5-.64-.48-.73-.81-1.57-.93-2.48-.03-.23-.04-.47-.04-.71.53.44.99.98,1.34,1.58.04.08.09.16.13.24.04-.08.09-.16.13-.24.35-.6.81-1.14,1.34-1.58Z"/>
    <path class="cls-2" d="M22.58,25.37c0,.63-.11,1.24-.3,1.81-.19.54-.45,1.05-.78,1.52-.65.9-1.55,1.65-2.62,2.14.16-.29.29-.58.39-.9.8-.64,1.4-1.48,1.7-2.43.15-.46.23-.95.23-1.45,0-.36-.04-.7-.11-1.03-.2,1.28-.74,2.47-1.52,3.48h-.01c-.21.28-.43.53-.67.76-.24.24-.49.46-.76.67-.55.43-1.16.81-1.82,1.1-.17.08-.34.15-.52.21-.23.09-.46.16-.7.24-.09.02-.16.04-.25.06-.09.02-.19.05-.28.07-.05.01-.1.02-.15.04.06-.04.13-.08.19-.12.05-.03.1-.06.14-.09.1-.06.19-.13.29-.2.18-.13.35-.26.51-.41.11-.09.22-.19.33-.3.52-.49.97-1.05,1.33-1.65.07-.11.14-.23.2-.34.56-1.05.88-2.23.88-3.48,0-.17,0-.33-.02-.51,0-.09-.01-.18-.02-.27,0-.06-.01-.12-.02-.18.73.6,1.24,1.4,1.45,2.3.02.07.04.14.04.21.11-.24.2-.49.26-.75.07-.3.11-.61.11-.93,0-.65-.16-1.26-.44-1.82.32.17.63.38.89.61l.02.02s0-.05,0-.08c0-.11.01-.22.01-.33,0-.28-.02-.55-.06-.81,0-.05-.01-.09-.02-.14.24.22.45.46.64.72.31.41.56.85.76,1.32,0-1.07-.3-2.07-.83-2.94.94,1.05,1.52,2.4,1.52,3.88Z"/>
    <path class="cls-2" d="M23.3,25.2c.31.33.56.76.73,1.25.08.23.14.47.18.72.17-.11.33-.25.48-.41.65-.68,1.08-1.76,1.08-2.97,0-.71-.15-1.38-.4-1.95-.21-.48-.51-.89-.86-1.2.21.4.38.86.48,1.36.08.37.12.77.12,1.18,0,1.05-.27,2.02-.71,2.74-.26-.53-.63-.97-1.07-1.26-.02.17-.04.35-.04.53Z"/>
  </g>
  <g>
    <path class="cls-2" d="M1.27,28.81h.04c.37-.15.66-.44.8-.81l.02-.04.02.04c.14.36.43.66.8.79h.04s-.04.03-.04.03c-.37.14-.66.43-.8.79l-.02.04-.02-.04c-.14-.36-.43-.66-.8-.79h-.04Z"/>
    <path class="cls-2" d="M25.24,28.81h-.04c-.37-.15-.66-.44-.8-.81l-.02-.04-.02.04c-.14.36-.43.66-.8.79h-.04s.04.03.04.03c.37.14.66.43.8.79l.02.04.02-.04c.14-.36.43-.66.8-.79h.04Z"/>
  </g>
  <g>
    <path class="cls-2" d="M5.23,11.51c-1.05-.21-1.86-1.07-1.99-2.14-.01-.1-.02-.2-.02-.3,0-.51.16-.98.42-1.38.04,1.27.49,2.44,1.22,3.38.11.14.24.29.37.43Z"/>
    <path class="cls-2" d="M23.29,9.06c0,.1,0,.21-.02.3-.13,1.07-.94,1.93-1.99,2.14.14-.14.26-.29.38-.44.73-.94,1.17-2.11,1.22-3.38.26.39.41.87.41,1.38Z"/>
  </g>
  <g>
    <path class="cls-1" d="M8.21,16.36c.03.21.11.58.41.92.11.13.46.52,1.04.55.35.01.63-.11.83-.24-.27-.26-.67-.6-1.23-.87-.38-.19-.76-.29-1.06-.36Z"/>
    <path class="cls-1" d="M18.31,16.36c-.03.21-.11.58-.41.92-.11.13-.46.52-1.04.55-.35.01-.63-.11-.83-.24.27-.26.67-.6,1.23-.87.39-.19.76-.29,1.06-.36Z"/>
  </g>
  <g>
    <path class="cls-1" d="M8.57,9.73c-.15-.23-.33-.47-.54-.72-.56-.63-1.15-1.08-1.67-1.38.04.07.09.16.14.24.06.12.13.26.19.4.02.05.04.09.06.14.04.11.09.23.11.33-.08-.03-.16-.05-.26-.07-.16-.03-.31-.04-.45-.02.11.14.23.29.36.44.14.14.26.28.39.39-.31-.04-.73-.14-1.18-.4-.48-.28-.81-.64-1-.92-.06-.09-.11-.16-.14-.23.17.06.36.11.56.16.2.04.38.07.56.09h0l.05-.05h0s.01-.01.01-.02c.03-.04.05-.07.07-.11-.14-.07-.29-.16-.43-.28-1.3-.96-1.55-2.47-1.59-2.71-.1-.68-.01-1.27.1-1.7.9,1.32,1.8,2.19,2.45,2.74.83.71,1.67,1.23,2.04,2.3.05.14.09.27.11.41.07.36.08.69.06.95Z"/>
    <path class="cls-1" d="M21.12,7.75c-.16.11-.3.21-.43.28.02.04.04.07.07.11,0,0,.01.01.01.02h0s.03.04.05.05h0c.17-.01.36-.04.56-.09.2-.04.38-.09.56-.16-.04.06-.09.14-.14.23-.19.28-.51.63-1,.92-.44.26-.87.36-1.18.4.13-.11.26-.24.39-.39s.26-.3.36-.44c-.14-.01-.29,0-.45.02-.09.01-.19.04-.26.07.04-.11.07-.22.11-.33h0s.04-.09.06-.14c.06-.14.13-.28.19-.4.04-.09.09-.16.14-.24-.52.3-1.12.74-1.67,1.38-.21.24-.39.48-.54.72-.02-.26-.01-.59.06-.95.03-.13.06-.26.11-.41.37-1.08,1.2-1.6,2.04-2.3.66-.56,1.55-1.43,2.45-2.74.11.43.2,1.02.1,1.7-.04.25-.29,1.75-1.59,2.71Z"/>
  </g>
  <path class="cls-1" d="M18.32,4.03l-2.34,1.63c-.39-.05-.89-.06-1.45.03-.51.08-.94.23-1.27.37-.33-.14-.76-.29-1.27-.37-.56-.09-1.05-.07-1.45-.03l-2.34-1.63-2.29-1.6L2.43,0c-.3,2.34-.6,4.68-.9,7.02-.21,2.66.39,3.99.77,4.55-.22.07-.5.13-.82.14-.33.01-.63-.02-.88-.08,0,.27.04.83.43,1.34.37.48.87.68,1.25.76-.74.98-1.48,1.97-2.22,2.96.43-.1.93-.29,1.38-.66.53-.45.64-.88,1.13-1.5.31-.4.81-.91,1.6-1.4-.46.11-1.09.15-1.76-.11-.43-.16-.75-.41-.97-.61.29.02.66,0,1.07-.14.43-.16.73-.41.9-.58-.46-.46-1.34-1.71-1.15-4.49.14-1.05.28-2.12.41-3.17.07-.53.14-1.07.21-1.6.04-.36.09-.71.14-1.06l1.5,1.06,2.27,1.6c1.45,1.02,2.89,2.04,4.34,3.06,0-.11,0-.23-.04-.36-.03-.15-.08-.27-.13-.38.31-.01.71,0,1.15.11.2.04.38.1.55.16.23.09.42.18.58.27.16-.09.36-.19.58-.27.16-.06.35-.12.55-.16.44-.1.83-.11,1.15-.11-.05.1-.09.23-.13.38-.03.13-.04.25-.04.36,1.45-1.02,2.89-2.04,4.34-3.06l2.27-1.6,1.49-1.05c.04.36.09.71.14,1.06.07.53.14,1.07.21,1.6.14,1.05.28,2.12.41,3.17.19,2.79-.69,4.04-1.15,4.49.18.18.48.42.9.58.41.15.78.16,1.07.14-.22.21-.53.44-.97.61-.67.26-1.3.21-1.76.11.8.48,1.29,1,1.6,1.4.49.63.6,1.05,1.13,1.5.45.38.95.56,1.38.66-.74-.98-1.48-1.97-2.22-2.96.38-.08.88-.28,1.25-.76.4-.51.43-1.07.43-1.34-.25.06-.55.09-.88.08-.32-.01-.6-.08-.82-.14.38-.56.98-1.9.77-4.55-.3-2.34-.6-4.68-.9-7.02l-3.47,2.42-2.29,1.6Z"/>
  <path class="cls-1" d="M26.42,18.33c-.22-.67-.63-1.1-.9-1.33,0,0,.12.33.16.55.03.21.02.41,0,.56-.29-.41-.68-.87-1.22-1.32-1.1-.92-2.24-1.32-2.99-1.5.25-.06.57-.12.94-.1.7.04,1.24.31,1.57.53-.43-.48-1.17-1.13-2.24-1.54-.83-.32-1.6-.39-2.13-.39.35-.1.81-.19,1.33-.18.35,0,.66.06.91.11,0,0-.68-.43-1.17-.59-.5-.16-.95-.21-1.29-.21.27-.16.56-.33.89-.49.35-.18.68-.32,1-.45-.36-.06-.75-.11-1.16-.15-.73-.06-1.4-.04-1.98,0,.02-.01.84-.56,1.33-.83.59-.33,1.15-.61,1.67-.83,0,0-1.75.05-2.86.54-.53.24-.97.53-1.31.79.12-.68.24-1.36.36-2.04,0,0-.62.45-1,.73h0s-.06.05-.09.07c.11-.3.21-.63.31-.99.09-.34.15-.66.2-.97h0c.04-.21.06-.42.08-.61-.2.23-.47.5-.84.73-.35.23-.57.29-.88.45-.33.18-.78.48-1.25,1.02.01-.15.04-.32.09-.51.14-.48.34-.68.52-1.1.1-.23.2-.56.22-1-.21.14-.46.33-.69.58-.34.37-.56.75-.69,1.06-.14-.31-.35-.69-.69-1.06-.24-.26-.48-.45-.69-.58.02.45.13.78.22,1,.17.41.38.61.52,1.1.05.19.08.36.09.51-.46-.53-.91-.84-1.25-1.02-.31-.16-.53-.23-.88-.45-.37-.24-.64-.51-.84-.73.02.19.04.4.08.61.05.31.11.63.2.98.09.36.19.68.31.99-.03-.02-.06-.04-.09-.07h0c-.38-.28-1-.73-1-.73.12.68.24,1.36.36,2.04-.33-.26-.77-.56-1.31-.79-1.1-.49-2.86-.54-2.86-.54.52.22,1.08.49,1.67.83.48.27,1.3.81,1.33.83-.58-.05-1.25-.06-1.98,0-.41.04-.81.09-1.16.15.31.13.65.28,1,.45.32.16.62.33.89.49-.34,0-.79.04-1.29.21-.49.16-1.17.59-1.17.59.26-.05.56-.11.91-.11.52,0,.97.07,1.33.18-.53,0-1.3.07-2.13.39-1.08.41-1.81,1.06-2.24,1.54.33-.22.87-.5,1.57-.53.37-.02.7.04.94.1-.75.18-1.9.58-2.99,1.5-.53.45-.93.91-1.22,1.32-.02-.16-.03-.34,0-.56.03-.22.16-.55.16-.55-.26.23-.68.66-.9,1.33-.28.86-.08,1.61.06,2,.17-.46.5-1.14,1.12-1.77.76-.77,1.6-1.15,2.22-1.33-.33.23-.73.56-1.08,1.05-.43.61-.62,1.2-.7,1.6.19-.23.45-.48.78-.73.2-.15.4-.27.58-.37.13-.07.25-.13.36-.18-.14.13-.3.33-.38.61-.06.23-.05.43-.02.57-.01.01-.02.04-.04.06-.22.34-.44.77-.61,1.28-.41,1.25-.26,2.37-.09,3.03,0,.01,0,.02,0,.04.26-.52.71-1.28,1.47-1.99.73-.69,1.49-1.08,2.02-1.31-.01,0-.04,0-.05-.01-.41-.1-.91-.17-1.5-.15-.47.01-.88.09-1.21.17.24-.41.88-1.25,2.04-1.64.95-.31,1.79-.17,2.24-.04-.34.01-.78.09-1.26.27-.2.08-.38.16-.54.26-.14.08-.26.16-.37.24.68-.09,1.7-.02,2.79.53,1.18.59,1.81,1.85,1.81,1.85,0,0,.8-2.32.9-3.28-.11-.02-.24-.05-.36-.08-.78-.21-1.31-.56-1.53-.72-.26-.19-.53-.38-.8-.73-.25-.33-.21-.43-.53-.87-.17-.24-.36-.48-.68-.73-.06-.04-.31-.23-.68-.38-.14-.06-.27-.1-.39-.13-.02,0-.04,0-.06-.01.41-.09.95-.16,1.59-.1.21.01.9.09,1.73.45.31.13.56.27.76.39-.16-.21-.38-.45-.67-.68-.14-.11-.49-.38-1.01-.61-.27-.12-.53-.2-.73-.25.1,0,.21-.01.33-.01.25,0,.98.02,1.72.47.04.02.1.06.17.11.18.12.44.33.68.63.36.46.37.77.77,1.03.12.08.4.26.71.19.44-.11.61-.66.66-.81.15-.48.04-.9-.07-1.3-.01-.06-.04-.12-.05-.18-.06-.17-.11-.32-.18-.45.34.41.89,1.24.76,2.14,0,.06-.02.14-.04.22h0c-.06.27-.19.64-.52.89-.1.08-.21.13-.29.16l-.17,3.19-.02-.04h0c-.09-.19-.22-.41-.4-.63-.08-.09-.15-.18-.23-.25-.04.16-.08.34-.12.55-.04.14-.1.43-.19.74-.04.12-.19.66-.5,1.45-.34.88-.38.81-.43,1.08-.02.14-.08.44-.02.79h0c.04.21.11.43.24.66.06.1.48.76,1.3.89.08.01.79.11,1.38-.32.09-.06.16-.13.21-.19-.16-.05-.35-.14-.56-.26-.14-.09-.31-.19-.48-.36-.11-.12-.38-.41-.43-.86-.01-.11-.05-.51.2-.85.26-.35.65-.43.93-.48.13-.03.26-.04.38-.05h0c.06,0,.13,0,.21,0,.09,0,.16,0,.21.01h0c.12,0,.25.01.38.04.28.06.67.14.93.48.25.34.21.73.2.85-.05.45-.31.74-.43.86-.16.18-.33.28-.48.36-.21.12-.4.21-.56.26.05.06.12.12.21.19.59.44,1.3.33,1.38.32.83-.14,1.25-.79,1.3-.89.14-.23.21-.46.24-.66h0c.06-.36,0-.65-.02-.79-.05-.27-.09-.2-.43-1.08-.31-.79-.47-1.33-.5-1.45-.09-.31-.16-.61-.19-.74-.05-.2-.09-.38-.12-.55-.07.07-.15.16-.23.25-.18.22-.31.43-.4.63h0l-.02.04-.17-3.19c-.09-.04-.19-.09-.29-.16-.33-.25-.46-.62-.52-.89h0c-.01-.09-.03-.16-.04-.22-.14-.9.41-1.72.76-2.14-.06.13-.12.28-.18.45h0c-.02.06-.04.11-.05.18-.11.4-.22.83-.07,1.3.05.15.22.71.66.81.31.07.59-.11.71-.19.4-.26.41-.56.77-1.03.24-.31.5-.51.68-.63h0c.07-.05.13-.09.17-.11.74-.45,1.48-.47,1.72-.47.12,0,.24,0,.33.01-.21.05-.46.13-.73.25-.52.23-.88.5-1.01.61-.29.23-.51.46-.67.68.2-.12.45-.26.76-.39.83-.36,1.52-.43,1.73-.45.63-.06,1.18.01,1.59.1-.02,0-.04,0-.06.01-.12.03-.25.07-.39.13-.37.15-.62.33-.68.38-.32.24-.5.49-.68.73-.31.43-.28.54-.53.87-.26.35-.53.54-.8.73-.22.16-.76.51-1.53.72-.13.04-.25.06-.36.08.1.95.9,3.28.9,3.28,0,0,.63-1.25,1.81-1.85,1.09-.55,2.12-.61,2.79-.53-.11-.08-.24-.16-.37-.24-.16-.09-.34-.18-.54-.26-.48-.19-.92-.25-1.26-.27.46-.14,1.3-.28,2.24.04,1.17.38,1.8,1.24,2.04,1.64-.33-.09-.74-.16-1.21-.17-.58-.02-1.09.06-1.5.15-.01,0-.04,0-.05.01.53.22,1.28.62,2.02,1.31.76.71,1.22,1.47,1.47,1.99,0-.01,0-.02,0-.04.16-.66.31-1.77-.09-3.03-.16-.51-.38-.93-.61-1.28-.01-.02-.02-.04-.04-.06.03-.14.04-.34-.02-.57-.08-.29-.24-.48-.38-.61.11.05.24.11.36.18.19.1.38.22.58.37.33.24.58.5.78.73-.09-.4-.27-1-.7-1.6-.35-.49-.76-.83-1.08-1.05.61.19,1.46.56,2.22,1.33.61.63.94,1.3,1.12,1.77.07-.4.27-1.15,0-2ZM9.76,13.32c-.68-.45-1.32-.75-1.85-.95.55-.03,1.48.04,2.36.68.86.63,1.18,1.48,1.3,1.88-.43-.5-1.02-1.08-1.81-1.61ZM16.76,13.32c-.79.53-1.38,1.11-1.8,1.61.11-.4.44-1.25,1.3-1.88.87-.64,1.81-.71,2.36-.68-.54.2-1.19.5-1.86.95Z"/>
  <g id="SOMBRA">
    <g>
      <path class="cls-1" d="M16.99,15.18c-.18.12-.44.33-.68.63-.36.46-.37.77-.77,1.03-.12.08-.4.26-.71.19-.44-.11-.61-.66-.66-.81-.15-.48-.04-.9.07-1.3.01-.06.04-.12.05-.18-.06.31-.06.73.14,1.18.13.29.31.51.51.68.24-.26.55-.54.94-.81.41-.28.79-.47,1.11-.6Z"/>
      <path class="cls-1" d="M16.66,24.58c-.11-.13-.21-.28-.33-.45-.35-.53-.52-.98-.69-1.43-.15-.4-.32-.93-.46-1.57-.06.06-.11.14-.16.22-.14.19-.24.38-.31.55,0-1-.17-1.77-.35-2.32-.21-.66-.56-1.39-.6-2.52,0-.14,0-.28,0-.4.06.27.19.64.52.89.1.08.21.13.29.16l.17,3.19.02-.04h0c.09-.19.22-.41.4-.63.08-.09.15-.18.23-.25.04.16.08.34.12.55.04.14.1.43.19.74.04.12.19.66.5,1.45.34.88.38.81.43,1.08.03.15.08.44.02.8Z"/>
      <path class="cls-1" d="M20.99,19.74c.14.08.26.16.37.24-.68-.09-1.7-.02-2.79.53-1.18.59-1.81,1.85-1.81,1.85,0,0-.8-2.32-.9-3.28.11-.02.24-.05.36-.08.78-.21,1.31-.56,1.53-.72.26-.19.53-.38.8-.73.25-.33.21-.43.53-.87.17-.24.36-.48.68-.73.06-.04.31-.23.68-.38.14-.06.27-.1.39-.13.13.03.26.07.4.11.18.06.33.13.48.19-.27.04-.61.11-.98.26-.25.11-.47.23-.65.35-.19.12-.33.25-.45.36.1,0,.21,0,.31,0,.2.01.38.05.53.09-.43.17-.76.39-1.01.64-.33.32-.31.46-.68.83-.59.57-.98.55-1.47.95-.27.22-.59.59-.83,1.24.16-.1.35-.2.56-.29.25-.1.48-.17.69-.22-.16.12-.34.29-.51.53-.19.26-.29.53-.36.76.31-.35.81-.81,1.52-1.14.97-.46,1.92-.48,2.59-.39Z"/>
      <path class="cls-1" d="M24.22,24.14s0,.02,0,.04c-.26-.52-.71-1.28-1.47-1.99-.73-.69-1.49-1.08-2.02-1.31.01,0,.04,0,.05-.01.52.09,1.38.34,2.17,1.05.8.73,1.14,1.6,1.28,2.22Z"/>
      <path class="cls-1" d="M21.29,24.67c-.11-.16-.24-.34-.38-.51-.13-.16-.26-.29-.38-.42l.02.02s0-.05,0-.08c0-.11.01-.22.01-.33,0-.28-.02-.55-.06-.81.24.25.53.64.68,1.19.09.35.11.67.1.95Z"/>
      <path class="cls-1" d="M18.32,27.28c-.64,2.78-3.13,4.06-3.78,4.35-.05.01-.1.02-.15.04.06-.04.13-.08.19-.12.05-.03.1-.06.14-.09.1-.06.19-.13.29-.2.18-.13.35-.26.51-.41.11-.09.22-.19.33-.3.52-.49.97-1.05,1.33-1.65.07-.11.14-.23.2-.34.56-1.05.88-2.23.88-3.48,0-.17,0-.33-.02-.51,0-.09-.01-.18-.02-.27.21.7.38,1.77.11,2.99Z"/>
      <path class="cls-1" d="M14.73,28.17c0,.24-.01.48-.04.71-.26.12-.54.29-.84.5-.17.13-.32.25-.46.38.35-.6.81-1.14,1.34-1.58Z"/>
      <path class="cls-1" d="M23.52,19.84c-.29-.33-.77-.8-1.48-1.14-.63-.3-1.21-.41-1.64-.44.41-.11.94-.19,1.53-.09.68.11,1.2.39,1.52.62-.13-.07-.25-.13-.36-.18.14.13.3.33.38.61.06.23.05.43.02.57,0,.02.02.04.04.06Z"/>
      <path class="cls-1" d="M16.49,9.32c-.09.36-.19.68-.31.99.03-.02.06-.04.09-.07-.12.13-.24.26-.37.41-.15.18-.29.35-.41.52.02-.19.06-.41.14-.66.14-.41.33-.65.51-.93.17-.28.38-.68.54-1.23-.04.31-.11.63-.2.97Z"/>
      <path class="cls-1" d="M23.27,9.36c-.13,1.07-.94,1.93-1.99,2.14.14-.14.26-.29.38-.44.3-.15.68-.4,1.04-.8.28-.32.46-.64.57-.9Z"/>
      <path class="cls-1" d="M20.73,6.7c-.04.14-.11.3-.19.46-.15.3-.33.53-.52.73.04-.09.09-.16.14-.24-.52.3-1.12.74-1.67,1.38-.21.24-.39.48-.54.72-.02-.26-.01-.59.06-.95.24-.3.47-.51.66-.66.41-.33.7-.43,1.38-.9.28-.19.51-.36.7-.51Z"/>
      <path class="cls-1" d="M21.79,8.19c-.19.28-.51.63-1,.92-.44.26-.87.36-1.18.4.13-.11.26-.24.39-.39s.26-.3.36-.44c-.14-.01-.29,0-.45.02-.09.01-.19.04-.26.07.04-.11.07-.22.11-.33h0c.14-.04.28-.1.42-.16.17-.08.33-.16.48-.24.02.04.05.08.09.12,0,0,0,0,0,0h0s.04.04.06.05c.01.01.03.02.04.03-.04.01-.07.04-.11.06-.12.07-.2.16-.25.24.12.01.26.02.42,0,.36-.04.65-.2.85-.34Z"/>
      <path class="cls-1" d="M12.34,16.22c-.05.15-.22.71-.66.81-.31.07-.59-.11-.71-.19-.4-.26-.41-.56-.77-1.03-.24-.31-.5-.51-.68-.63.33.13.71.32,1.1.6.39.27.7.56.94.81.19-.16.38-.38.51-.68.2-.44.19-.87.14-1.18.02.06.04.11.05.18.11.4.23.83.08,1.3Z"/>
      <path class="cls-1" d="M12.75,17.05c-.04,1.13-.38,1.86-.6,2.52-.18.55-.35,1.32-.35,2.32-.07-.16-.17-.36-.31-.55-.06-.08-.11-.15-.16-.22-.14.64-.31,1.18-.46,1.57-.16.45-.34.9-.69,1.43-.11.17-.22.32-.33.45-.06-.36,0-.65.02-.79.05-.27.09-.2.43-1.08.31-.79.47-1.33.5-1.45.09-.31.16-.61.19-.74.05-.2.09-.38.12-.55.07.07.15.16.23.25.18.22.31.43.4.63h0l.02.04.17-3.19c.09-.04.19-.09.29-.16.33-.25.46-.62.52-.89,0,.11,0,.25,0,.39Z"/>
      <path class="cls-1" d="M10.66,19.07c-.1.95-.9,3.28-.9,3.28,0,0-.63-1.25-1.81-1.85-1.09-.55-2.12-.61-2.79-.53.11-.08.24-.16.37-.24.67-.08,1.62-.06,2.59.39.72.33,1.21.79,1.52,1.14-.06-.24-.17-.5-.36-.76-.16-.24-.35-.41-.51-.53.21.05.44.12.69.22.21.09.4.19.56.29-.23-.65-.56-1.02-.83-1.24-.49-.41-.88-.39-1.47-.95-.38-.36-.36-.51-.68-.83-.26-.25-.58-.47-1.01-.64.16-.04.33-.08.53-.09.11,0,.21,0,.31,0-.11-.11-.26-.23-.45-.36-.19-.12-.4-.25-.65-.35-.36-.15-.71-.23-.98-.26.15-.07.31-.14.48-.19.14-.05.27-.09.4-.11.12.03.25.07.39.13.37.15.62.33.68.38.32.24.5.49.68.73.31.43.28.54.53.87.26.35.53.54.8.73.22.16.76.51,1.53.72.12.03.24.06.36.08Z"/>
      <path class="cls-1" d="M5.8,20.88c-.53.22-1.28.62-2.02,1.31-.76.71-1.22,1.47-1.47,1.99,0-.01,0-.02,0-.04.14-.62.48-1.49,1.28-2.22.78-.71,1.65-.96,2.17-1.05.01,0,.03.01.05.01Z"/>
      <path class="cls-1" d="M5.98,23.76s.01-.01.02-.02c-.13.12-.26.26-.38.42-.14.17-.27.35-.38.51-.01-.28,0-.61.11-.95.16-.55.45-.94.68-1.19-.04.26-.06.53-.06.81,0,.11,0,.22.01.33,0,.04,0,.06,0,.09Z"/>
      <path class="cls-1" d="M12.12,31.67s-.1-.02-.15-.04c-.65-.29-3.14-1.57-3.78-4.35-.28-1.22-.11-2.29.1-2.99,0,.09-.01.18-.02.27-.01.16-.02.33-.02.51,0,1.25.32,2.43.88,3.48.06.11.13.23.2.34.36.6.81,1.15,1.33,1.65.11.1.21.2.33.3.16.14.33.28.51.41.09.06.19.14.29.2.05.03.1.06.14.09.06.05.13.09.19.13Z"/>
      <path class="cls-1" d="M13.13,29.76c-.14-.12-.29-.25-.46-.38-.3-.22-.58-.38-.84-.5-.03-.23-.04-.47-.04-.71.54.43.99.98,1.34,1.58Z"/>
      <path class="cls-1" d="M6.12,18.26c-.43.04-1.01.14-1.64.44-.71.34-1.19.8-1.48,1.14.01-.02.02-.04.04-.06-.03-.14-.04-.34.02-.57.08-.29.24-.48.38-.61-.11.05-.24.11-.36.18.31-.22.83-.51,1.52-.62.59-.1,1.12-.03,1.53.09Z"/>
      <path class="cls-1" d="M11.01,11.17c-.12-.17-.26-.34-.41-.52-.12-.15-.25-.29-.37-.41.04.02.06.05.09.07-.11-.3-.21-.63-.31-.99-.09-.34-.16-.66-.2-.98.16.55.37.95.54,1.24.18.29.36.52.51.93.08.24.12.47.14.66Z"/>
      <path class="cls-1" d="M5.23,11.51c-1.05-.21-1.86-1.07-1.99-2.14.11.26.29.58.58.9.36.4.74.65,1.04.8.11.15.24.3.37.44Z"/>
      <path class="cls-1" d="M8.57,9.73c-.15-.23-.33-.47-.54-.72-.56-.63-1.15-1.08-1.67-1.38.04.07.09.16.14.24-.19-.19-.37-.43-.52-.73-.09-.16-.14-.31-.19-.46.19.15.42.33.7.51.68.47.96.57,1.38.9.19.15.42.36.66.66.07.36.08.69.06.95Z"/>
      <path class="cls-1" d="M6.9,9.5c-.31-.04-.73-.14-1.18-.4-.48-.28-.81-.64-1-.92.2.15.49.3.86.34.16.02.3.01.42,0-.05-.07-.13-.16-.25-.24-.04-.02-.07-.04-.11-.06.01,0,.03-.02.04-.03.02-.01.04-.03.06-.05h0s0,0,0,0c.04-.04.07-.09.09-.12.14.08.3.16.48.24.15.06.29.11.42.16.04.11.09.23.11.33-.08-.03-.16-.05-.26-.07-.16-.03-.31-.04-.45-.02.11.14.23.29.36.44.13.15.26.28.38.39Z"/>
    </g>
  </g>
</svg>